<?xml version="1.0" encoding="utf-8" standalone="no"?>
<!DOCTYPE svg PUBLIC "-//W3C//DTD SVG 1.1//EN"
  "http://www.w3.org/Graphics/SVG/1.1/DTD/svg11.dtd">
<svg xmlns:xlink="http://www.w3.org/1999/xlink" width="712.207187pt" height="424.474375pt" viewBox="0 0 712.207187 424.474375" xmlns="http://www.w3.org/2000/svg" version="1.1">
 <metadata>
  <rdf:RDF xmlns:dc="http://purl.org/dc/elements/1.1/" xmlns:cc="http://creativecommons.org/ns#" xmlns:rdf="http://www.w3.org/1999/02/22-rdf-syntax-ns#">
   <cc:Work>
    <dc:type rdf:resource="http://purl.org/dc/dcmitype/StillImage"/>
    <dc:date>2026-05-11T14:19:43.481262</dc:date>
    <dc:format>image/svg+xml</dc:format>
    <dc:creator>
     <cc:Agent>
      <dc:title>Matplotlib v3.10.9, https://matplotlib.org/</dc:title>
     </cc:Agent>
    </dc:creator>
   </cc:Work>
  </rdf:RDF>
 </metadata>
 <defs>
  <style type="text/css">*{stroke-linejoin: round; stroke-linecap: butt}</style>
 </defs>
 <g id="figure_1">
  <g id="patch_1">
   <path d="M 0 424.474375 
L 712.207187 424.474375 
L 712.207187 0 
L 0 0 
z
" style="fill: #ffffff"/>
  </g>
  <g id="axes_1">
   <g id="patch_2">
    <path d="M 177.640625 386.918125 
L 697.055625 386.918125 
L 697.055625 31.318125 
L 177.640625 31.318125 
z
" style="fill: #ffffff"/>
   </g>
   <g id="FillBetweenPolyCollection_1">
    <defs>
     <path id="m5c46ce7eb4" d="M 177.640625 -361.23323 
L 177.640625 -334.206517 
L 182.887241 -334.206517 
L 188.133857 -334.206517 
L 193.380473 -334.206517 
L 198.62709 -334.206517 
L 203.873706 -334.206517 
L 209.120322 -334.206517 
L 214.366938 -334.206517 
L 219.613554 -334.206517 
L 224.86017 -334.206517 
L 230.106787 -334.206517 
L 235.353403 -334.206517 
L 240.600019 -334.206517 
L 245.846635 -334.206517 
L 251.093251 -334.206517 
L 256.339867 -334.206517 
L 261.586484 -334.206517 
L 266.8331 -334.206517 
L 272.079716 -334.206517 
L 277.326332 -334.206517 
L 282.572948 -334.206517 
L 287.819564 -334.206517 
L 293.066181 -334.206517 
L 298.312797 -334.206517 
L 303.559413 -334.206517 
L 308.806029 -334.206517 
L 314.052645 -334.206517 
L 319.299261 -334.206517 
L 324.545878 -334.206517 
L 329.792494 -334.206517 
L 335.03911 -334.206517 
L 340.285726 -334.206517 
L 345.532342 -334.206517 
L 350.778958 -334.206517 
L 356.025574 -334.206517 
L 361.272191 -334.206517 
L 366.518807 -334.206517 
L 371.765423 -334.206517 
L 377.012039 -334.206517 
L 382.258655 -334.206517 
L 387.505271 -334.206517 
L 392.751888 -334.206517 
L 397.998504 -334.206517 
L 403.24512 -334.206517 
L 408.491736 -334.206517 
L 413.738352 -334.206517 
L 418.984968 -334.206517 
L 424.231585 -334.206517 
L 429.478201 -334.206517 
L 434.724817 -334.206517 
L 439.971433 -334.206517 
L 445.218049 -334.206517 
L 450.464665 -334.206517 
L 455.711282 -334.206517 
L 460.957898 -334.206517 
L 466.204514 -334.206517 
L 471.45113 -334.206517 
L 476.697746 -334.206517 
L 481.944362 -334.206517 
L 487.190979 -334.206517 
L 492.437595 -334.206517 
L 497.684211 -334.206517 
L 502.930827 -334.206517 
L 508.177443 -334.206517 
L 513.424059 -334.206517 
L 518.670676 -334.206517 
L 523.917292 -334.206517 
L 529.163908 -334.206517 
L 534.410524 -334.206517 
L 539.65714 -334.206517 
L 544.903756 -334.206517 
L 550.150372 -334.206517 
L 555.396989 -334.206517 
L 560.643605 -334.206517 
L 565.890221 -334.206517 
L 571.136837 -334.206517 
L 576.383453 -334.206517 
L 581.630069 -334.206517 
L 586.876686 -334.206517 
L 592.123302 -334.206517 
L 597.369918 -334.206517 
L 602.616534 -334.206517 
L 607.86315 -334.206517 
L 613.109766 -334.206517 
L 618.356383 -334.206517 
L 623.602999 -334.206517 
L 628.849615 -334.206517 
L 634.096231 -334.206517 
L 639.342847 -334.206517 
L 644.589463 -334.206517 
L 649.83608 -334.206517 
L 655.082696 -334.206517 
L 660.329312 -334.206517 
L 665.575928 -334.206517 
L 670.822544 -334.206517 
L 676.06916 -334.206517 
L 681.315777 -334.206517 
L 686.562393 -334.206517 
L 691.809009 -334.206517 
L 697.055625 -334.206517 
L 697.055625 -368.443377 
L 697.055625 -368.443377 
L 691.809009 -369.8609 
L 686.562393 -371.172921 
L 681.315777 -372.368056 
L 676.06916 -373.436711 
L 670.822544 -374.371243 
L 665.575928 -375.166057 
L 660.329312 -375.817651 
L 655.082696 -376.324597 
L 649.83608 -376.687474 
L 644.589463 -376.908748 
L 639.342847 -376.992614 
L 634.096231 -376.944805 
L 628.849615 -376.772379 
L 623.602999 -376.483489 
L 618.356383 -376.087154 
L 613.109766 -375.593029 
L 607.86315 -375.011186 
L 602.616534 -374.351917 
L 597.369918 -373.625547 
L 592.123302 -372.842285 
L 586.876686 -372.012081 
L 581.630069 -371.144525 
L 576.383453 -370.248756 
L 571.136837 -369.333395 
L 565.890221 -368.406505 
L 560.643605 -367.475552 
L 555.396989 -366.54739 
L 550.150372 -365.628254 
L 544.903756 -364.723759 
L 539.65714 -363.838913 
L 534.410524 -362.978125 
L 529.163908 -362.145232 
L 523.917292 -361.34352 
L 518.670676 -360.575755 
L 513.424059 -359.844219 
L 508.177443 -359.150752 
L 502.930827 -358.496791 
L 497.684211 -357.883427 
L 492.437595 -357.311453 
L 487.190979 -356.781419 
L 481.944362 -356.29369 
L 476.697746 -355.848502 
L 471.45113 -355.446014 
L 466.204514 -355.086358 
L 460.957898 -354.769681 
L 455.711282 -354.496183 
L 450.464665 -354.266139 
L 445.218049 -354.079917 
L 439.971433 -353.937979 
L 434.724817 -353.840874 
L 429.478201 -353.789217 
L 424.231585 -353.783661 
L 418.984968 -353.824848 
L 413.738352 -353.91337 
L 408.491736 -354.049702 
L 403.24512 -354.234153 
L 397.998504 -354.466796 
L 392.751888 -354.747411 
L 387.505271 -355.075434 
L 382.258655 -355.449898 
L 377.012039 -355.8694 
L 371.765423 -356.332068 
L 366.518807 -356.83554 
L 361.272191 -357.376962 
L 356.025574 -357.952993 
L 350.778958 -358.55982 
L 345.532342 -359.193193 
L 340.285726 -359.848463 
L 335.03911 -360.520623 
L 329.792494 -361.204364 
L 324.545878 -361.894126 
L 319.299261 -362.58415 
L 314.052645 -363.268525 
L 308.806029 -363.941237 
L 303.559413 -364.596204 
L 298.312797 -365.227311 
L 293.066181 -365.828435 
L 287.819564 -366.393467 
L 282.572948 -366.916328 
L 277.326332 -367.390992 
L 272.079716 -367.811497 
L 266.8331 -368.171981 
L 261.586484 -368.466707 
L 256.339867 -368.690115 
L 251.093251 -368.836877 
L 245.846635 -368.901973 
L 240.600019 -368.880778 
L 235.353403 -368.769169 
L 230.106787 -368.56363 
L 224.86017 -368.26138 
L 219.613554 -367.860492 
L 214.366938 -367.360012 
L 209.120322 -366.760069 
L 203.873706 -366.061968 
L 198.62709 -365.268259 
L 193.380473 -364.382776 
L 188.133857 -363.410649 
L 182.887241 -362.35827 
L 177.640625 -361.23323 
z
" style="stroke: #fc8d62; stroke-opacity: 0.42"/>
    </defs>
    <g clip-path="url(#p8da8805cf1)">
     <use xlink:href="#m5c46ce7eb4" x="0" y="424.474375" style="fill: #fc8d62; fill-opacity: 0.42; stroke: #fc8d62; stroke-opacity: 0.42"/>
    </g>
   </g>
   <g id="FillBetweenPolyCollection_2">
    <defs>
     <path id="m65142645d7" d="M 177.640625 -323.970717 
L 177.640625 -286.66641 
L 182.887241 -286.66641 
L 188.133857 -286.66641 
L 193.380473 -286.66641 
L 198.62709 -286.66641 
L 203.873706 -286.66641 
L 209.120322 -286.66641 
L 214.366938 -286.66641 
L 219.613554 -286.66641 
L 224.86017 -286.66641 
L 230.106787 -286.66641 
L 235.353403 -286.66641 
L 240.600019 -286.66641 
L 245.846635 -286.66641 
L 251.093251 -286.66641 
L 256.339867 -286.66641 
L 261.586484 -286.66641 
L 266.8331 -286.66641 
L 272.079716 -286.66641 
L 277.326332 -286.66641 
L 282.572948 -286.66641 
L 287.819564 -286.66641 
L 293.066181 -286.66641 
L 298.312797 -286.66641 
L 303.559413 -286.66641 
L 308.806029 -286.66641 
L 314.052645 -286.66641 
L 319.299261 -286.66641 
L 324.545878 -286.66641 
L 329.792494 -286.66641 
L 335.03911 -286.66641 
L 340.285726 -286.66641 
L 345.532342 -286.66641 
L 350.778958 -286.66641 
L 356.025574 -286.66641 
L 361.272191 -286.66641 
L 366.518807 -286.66641 
L 371.765423 -286.66641 
L 377.012039 -286.66641 
L 382.258655 -286.66641 
L 387.505271 -286.66641 
L 392.751888 -286.66641 
L 397.998504 -286.66641 
L 403.24512 -286.66641 
L 408.491736 -286.66641 
L 413.738352 -286.66641 
L 418.984968 -286.66641 
L 424.231585 -286.66641 
L 429.478201 -286.66641 
L 434.724817 -286.66641 
L 439.971433 -286.66641 
L 445.218049 -286.66641 
L 450.464665 -286.66641 
L 455.711282 -286.66641 
L 460.957898 -286.66641 
L 466.204514 -286.66641 
L 471.45113 -286.66641 
L 476.697746 -286.66641 
L 481.944362 -286.66641 
L 487.190979 -286.66641 
L 492.437595 -286.66641 
L 497.684211 -286.66641 
L 502.930827 -286.66641 
L 508.177443 -286.66641 
L 513.424059 -286.66641 
L 518.670676 -286.66641 
L 523.917292 -286.66641 
L 529.163908 -286.66641 
L 534.410524 -286.66641 
L 539.65714 -286.66641 
L 544.903756 -286.66641 
L 550.150372 -286.66641 
L 555.396989 -286.66641 
L 560.643605 -286.66641 
L 565.890221 -286.66641 
L 571.136837 -286.66641 
L 576.383453 -286.66641 
L 581.630069 -286.66641 
L 586.876686 -286.66641 
L 592.123302 -286.66641 
L 597.369918 -286.66641 
L 602.616534 -286.66641 
L 607.86315 -286.66641 
L 613.109766 -286.66641 
L 618.356383 -286.66641 
L 623.602999 -286.66641 
L 628.849615 -286.66641 
L 634.096231 -286.66641 
L 639.342847 -286.66641 
L 644.589463 -286.66641 
L 649.83608 -286.66641 
L 655.082696 -286.66641 
L 660.329312 -286.66641 
L 665.575928 -286.66641 
L 670.822544 -286.66641 
L 676.06916 -286.66641 
L 681.315777 -286.66641 
L 686.562393 -286.66641 
L 691.809009 -286.66641 
L 697.055625 -286.66641 
L 697.055625 -310.656789 
L 697.055625 -310.656789 
L 691.809009 -311.647989 
L 686.562393 -312.566656 
L 681.315777 -313.405968 
L 676.06916 -314.160416 
L 670.822544 -314.825864 
L 665.575928 -315.399551 
L 660.329312 -315.880058 
L 655.082696 -316.267247 
L 649.83608 -316.562152 
L 644.589463 -316.766868 
L 639.342847 -316.884415 
L 634.096231 -316.918595 
L 628.849615 -316.873859 
L 623.602999 -316.755176 
L 618.356383 -316.567913 
L 613.109766 -316.317739 
L 607.86315 -316.010536 
L 602.616534 -315.652333 
L 597.369918 -315.249254 
L 592.123302 -314.807472 
L 586.876686 -314.333177 
L 581.630069 -313.832544 
L 576.383453 -313.311695 
L 571.136837 -312.776668 
L 565.890221 -312.233364 
L 560.643605 -311.6875 
L 555.396989 -311.144541 
L 550.150372 -310.609631 
L 544.903756 -310.087523 
L 539.65714 -309.582498 
L 534.410524 -309.098294 
L 529.163908 -308.638047 
L 523.917292 -308.204233 
L 518.670676 -307.798638 
L 513.424059 -307.422345 
L 508.177443 -307.075743 
L 502.930827 -306.758559 
L 497.684211 -306.469921 
L 492.437595 -306.208436 
L 487.190979 -305.972294 
L 481.944362 -305.759384 
L 476.697746 -305.567425 
L 471.45113 -305.394103 
L 466.204514 -305.237204 
L 460.957898 -305.094751 
L 455.711282 -304.96512 
L 450.464665 -304.847148 
L 445.218049 -304.740224 
L 439.971433 -304.644345 
L 434.724817 -304.560165 
L 429.478201 -304.489006 
L 424.231585 -304.432851 
L 418.984968 -304.394308 
L 413.738352 -304.376558 
L 408.491736 -304.38328 
L 403.24512 -304.418562 
L 397.998504 -304.486801 
L 392.751888 -304.592591 
L 387.505271 -304.740607 
L 382.258655 -304.935491 
L 377.012039 -305.181733 
L 371.765423 -305.48356 
L 366.518807 -305.844823 
L 361.272191 -306.268899 
L 356.025574 -306.758587 
L 350.778958 -307.316025 
L 345.532342 -307.942595 
L 340.285726 -308.638854 
L 335.03911 -309.404451 
L 329.792494 -310.238061 
L 324.545878 -311.137319 
L 319.299261 -312.098762 
L 314.052645 -313.117776 
L 308.806029 -314.188553 
L 303.559413 -315.304058 
L 298.312797 -316.456014 
L 293.066181 -317.634897 
L 287.819564 -318.829964 
L 282.572948 -320.029302 
L 277.326332 -321.219905 
L 272.079716 -322.387788 
L 266.8331 -323.518143 
L 261.586484 -324.595519 
L 256.339867 -325.604057 
L 251.093251 -326.527749 
L 245.846635 -327.350737 
L 240.600019 -328.057634 
L 235.353403 -328.633869 
L 230.106787 -329.066039 
L 224.86017 -329.34226 
L 219.613554 -329.452507 
L 214.366938 -329.388923 
L 209.120322 -329.146093 
L 203.873706 -328.721265 
L 198.62709 -328.114502 
L 193.380473 -327.328777 
L 188.133857 -326.369974 
L 182.887241 -325.246817 
L 177.640625 -323.970717 
z
" style="stroke: #fc8d62; stroke-opacity: 0.42"/>
    </defs>
    <g clip-path="url(#p8da8805cf1)">
     <use xlink:href="#m65142645d7" x="0" y="424.474375" style="fill: #fc8d62; fill-opacity: 0.42; stroke: #fc8d62; stroke-opacity: 0.42"/>
    </g>
   </g>
   <g id="FillBetweenPolyCollection_3">
    <defs>
     <path id="m84f8f887aa" d="M 177.640625 -277.756805 
L 177.640625 -239.126303 
L 182.887241 -239.126303 
L 188.133857 -239.126303 
L 193.380473 -239.126303 
L 198.62709 -239.126303 
L 203.873706 -239.126303 
L 209.120322 -239.126303 
L 214.366938 -239.126303 
L 219.613554 -239.126303 
L 224.86017 -239.126303 
L 230.106787 -239.126303 
L 235.353403 -239.126303 
L 240.600019 -239.126303 
L 245.846635 -239.126303 
L 251.093251 -239.126303 
L 256.339867 -239.126303 
L 261.586484 -239.126303 
L 266.8331 -239.126303 
L 272.079716 -239.126303 
L 277.326332 -239.126303 
L 282.572948 -239.126303 
L 287.819564 -239.126303 
L 293.066181 -239.126303 
L 298.312797 -239.126303 
L 303.559413 -239.126303 
L 308.806029 -239.126303 
L 314.052645 -239.126303 
L 319.299261 -239.126303 
L 324.545878 -239.126303 
L 329.792494 -239.126303 
L 335.03911 -239.126303 
L 340.285726 -239.126303 
L 345.532342 -239.126303 
L 350.778958 -239.126303 
L 356.025574 -239.126303 
L 361.272191 -239.126303 
L 366.518807 -239.126303 
L 371.765423 -239.126303 
L 377.012039 -239.126303 
L 382.258655 -239.126303 
L 387.505271 -239.126303 
L 392.751888 -239.126303 
L 397.998504 -239.126303 
L 403.24512 -239.126303 
L 408.491736 -239.126303 
L 413.738352 -239.126303 
L 418.984968 -239.126303 
L 424.231585 -239.126303 
L 429.478201 -239.126303 
L 434.724817 -239.126303 
L 439.971433 -239.126303 
L 445.218049 -239.126303 
L 450.464665 -239.126303 
L 455.711282 -239.126303 
L 460.957898 -239.126303 
L 466.204514 -239.126303 
L 471.45113 -239.126303 
L 476.697746 -239.126303 
L 481.944362 -239.126303 
L 487.190979 -239.126303 
L 492.437595 -239.126303 
L 497.684211 -239.126303 
L 502.930827 -239.126303 
L 508.177443 -239.126303 
L 513.424059 -239.126303 
L 518.670676 -239.126303 
L 523.917292 -239.126303 
L 529.163908 -239.126303 
L 534.410524 -239.126303 
L 539.65714 -239.126303 
L 544.903756 -239.126303 
L 550.150372 -239.126303 
L 555.396989 -239.126303 
L 560.643605 -239.126303 
L 565.890221 -239.126303 
L 571.136837 -239.126303 
L 576.383453 -239.126303 
L 581.630069 -239.126303 
L 586.876686 -239.126303 
L 592.123302 -239.126303 
L 597.369918 -239.126303 
L 602.616534 -239.126303 
L 607.86315 -239.126303 
L 613.109766 -239.126303 
L 618.356383 -239.126303 
L 623.602999 -239.126303 
L 628.849615 -239.126303 
L 634.096231 -239.126303 
L 639.342847 -239.126303 
L 644.589463 -239.126303 
L 649.83608 -239.126303 
L 655.082696 -239.126303 
L 660.329312 -239.126303 
L 665.575928 -239.126303 
L 670.822544 -239.126303 
L 676.06916 -239.126303 
L 681.315777 -239.126303 
L 686.562393 -239.126303 
L 691.809009 -239.126303 
L 697.055625 -239.126303 
L 697.055625 -246.668874 
L 697.055625 -246.668874 
L 691.809009 -247.15299 
L 686.562393 -247.634644 
L 681.315777 -248.11053 
L 676.06916 -248.577324 
L 670.822544 -249.031728 
L 665.575928 -249.470502 
L 660.329312 -249.890503 
L 655.082696 -250.288715 
L 649.83608 -250.66228 
L 644.589463 -251.008524 
L 639.342847 -251.324985 
L 634.096231 -251.609433 
L 628.849615 -251.859892 
L 623.602999 -252.07466 
L 618.356383 -252.252327 
L 613.109766 -252.391791 
L 607.86315 -252.492272 
L 602.616534 -252.553324 
L 597.369918 -252.574844 
L 592.123302 -252.557081 
L 586.876686 -252.500636 
L 581.630069 -252.406462 
L 576.383453 -252.275859 
L 571.136837 -252.110463 
L 565.890221 -251.912227 
L 560.643605 -251.683408 
L 555.396989 -251.426536 
L 550.150372 -251.144389 
L 544.903756 -250.839958 
L 539.65714 -250.516415 
L 534.410524 -250.177075 
L 529.163908 -249.825362 
L 523.917292 -249.464769 
L 518.670676 -249.098824 
L 513.424059 -248.731056 
L 508.177443 -248.364968 
L 502.930827 -248.004003 
L 497.684211 -247.651525 
L 492.437595 -247.310798 
L 487.190979 -246.984966 
L 481.944362 -246.677048 
L 476.697746 -246.389922 
L 471.45113 -246.126326 
L 466.204514 -245.888858 
L 460.957898 -245.679973 
L 455.711282 -245.501995 
L 450.464665 -245.357125 
L 445.218049 -245.247453 
L 439.971433 -245.174974 
L 434.724817 -245.141602 
L 429.478201 -245.149195 
L 424.231585 -245.19957 
L 418.984968 -245.294526 
L 413.738352 -245.435864 
L 408.491736 -245.625407 
L 403.24512 -245.865012 
L 397.998504 -246.156588 
L 392.751888 -246.502097 
L 387.505271 -246.90356 
L 382.258655 -247.363039 
L 377.012039 -247.882625 
L 371.765423 -248.464404 
L 366.518807 -249.110412 
L 361.272191 -249.822578 
L 356.025574 -250.602651 
L 350.778958 -251.452112 
L 345.532342 -252.372072 
L 340.285726 -253.363159 
L 335.03911 -254.425389 
L 329.792494 -255.558035 
L 324.545878 -256.759486 
L 319.299261 -258.027107 
L 314.052645 -259.357108 
L 308.806029 -260.744415 
L 303.559413 -262.182568 
L 298.312797 -263.663636 
L 293.066181 -265.178165 
L 287.819564 -266.715162 
L 282.572948 -268.262121 
L 277.326332 -269.805103 
L 272.079716 -271.328852 
L 266.8331 -272.816983 
L 261.586484 -274.252203 
L 256.339867 -275.616601 
L 251.093251 -276.891965 
L 245.846635 -278.060153 
L 240.600019 -279.103481 
L 235.353403 -280.005141 
L 230.106787 -280.74961 
L 224.86017 -281.323066 
L 219.613554 -281.713767 
L 214.366938 -281.9124 
L 209.120322 -281.912376 
L 203.873706 -281.710062 
L 198.62709 -281.304942 
L 193.380473 -280.699684 
L 188.133857 -279.900139 
L 182.887241 -278.915238 
L 177.640625 -277.756805 
z
" style="stroke: #fc8d62; stroke-opacity: 0.42"/>
    </defs>
    <g clip-path="url(#p8da8805cf1)">
     <use xlink:href="#m84f8f887aa" x="0" y="424.474375" style="fill: #fc8d62; fill-opacity: 0.42; stroke: #fc8d62; stroke-opacity: 0.42"/>
    </g>
   </g>
   <g id="FillBetweenPolyCollection_4">
    <defs>
     <path id="m967eb03e9a" d="M 177.640625 -231.227034 
L 177.640625 -191.586197 
L 182.559328 -191.586197 
L 187.47803 -191.586197 
L 192.396733 -191.586197 
L 197.315436 -191.586197 
L 202.234138 -191.586197 
L 207.152841 -191.586197 
L 212.071544 -191.586197 
L 216.990246 -191.586197 
L 221.908949 -191.586197 
L 226.827652 -191.586197 
L 231.746354 -191.586197 
L 236.665057 -191.586197 
L 241.583759 -191.586197 
L 246.502462 -191.586197 
L 251.421165 -191.586197 
L 256.339867 -191.586197 
L 261.25857 -191.586197 
L 266.177273 -191.586197 
L 271.095975 -191.586197 
L 276.014678 -191.586197 
L 280.933381 -191.586197 
L 285.852083 -191.586197 
L 290.770786 -191.586197 
L 295.689489 -191.586197 
L 300.608191 -191.586197 
L 305.526894 -191.586197 
L 310.445597 -191.586197 
L 315.364299 -191.586197 
L 320.283002 -191.586197 
L 325.201705 -191.586197 
L 330.120407 -191.586197 
L 335.03911 -191.586197 
L 339.957813 -191.586197 
L 344.876515 -191.586197 
L 349.795218 -191.586197 
L 354.71392 -191.586197 
L 359.632623 -191.586197 
L 364.551326 -191.586197 
L 369.470028 -191.586197 
L 374.388731 -191.586197 
L 379.307434 -191.586197 
L 384.226136 -191.586197 
L 389.144839 -191.586197 
L 394.063542 -191.586197 
L 398.982244 -191.586197 
L 403.900947 -191.586197 
L 408.81965 -191.586197 
L 413.738352 -191.586197 
L 418.657055 -191.586197 
L 423.575758 -191.586197 
L 428.49446 -191.586197 
L 433.413163 -191.586197 
L 438.331866 -191.586197 
L 443.250568 -191.586197 
L 448.169271 -191.586197 
L 453.087973 -191.586197 
L 458.006676 -191.586197 
L 462.925379 -191.586197 
L 467.844081 -191.586197 
L 472.762784 -191.586197 
L 477.681487 -191.586197 
L 482.600189 -191.586197 
L 487.518892 -191.586197 
L 492.437595 -191.586197 
L 497.356297 -191.586197 
L 502.275 -191.586197 
L 507.193703 -191.586197 
L 512.112405 -191.586197 
L 517.031108 -191.586197 
L 521.949811 -191.586197 
L 526.868513 -191.586197 
L 531.787216 -191.586197 
L 536.705919 -191.586197 
L 541.624621 -191.586197 
L 546.543324 -191.586197 
L 551.462027 -191.586197 
L 556.380729 -191.586197 
L 561.299432 -191.586197 
L 566.218134 -191.586197 
L 571.136837 -191.586197 
L 576.05554 -191.586197 
L 580.974242 -191.586197 
L 585.892945 -191.586197 
L 590.811648 -191.586197 
L 595.73035 -191.586197 
L 600.649053 -191.586197 
L 605.567756 -191.586197 
L 610.486458 -191.586197 
L 615.405161 -191.586197 
L 620.323864 -191.586197 
L 625.242566 -191.586197 
L 630.161269 -191.586197 
L 635.079972 -191.586197 
L 639.998674 -191.586197 
L 644.917377 -191.586197 
L 649.83608 -191.586197 
L 654.754782 -191.586197 
L 659.673485 -191.586197 
L 664.592187 -191.586197 
L 664.592187 -199.935221 
L 664.592187 -199.935221 
L 659.673485 -200.246879 
L 654.754782 -200.5464 
L 649.83608 -200.832466 
L 644.917377 -201.10392 
L 639.998674 -201.359785 
L 635.079972 -201.599271 
L 630.161269 -201.821784 
L 625.242566 -202.026932 
L 620.323864 -202.214524 
L 615.405161 -202.384566 
L 610.486458 -202.537258 
L 605.567756 -202.67298 
L 600.649053 -202.792288 
L 595.73035 -202.89589 
L 590.811648 -202.984639 
L 585.892945 -203.059509 
L 580.974242 -203.12158 
L 576.05554 -203.172018 
L 571.136837 -203.212054 
L 566.218134 -203.242966 
L 561.299432 -203.266061 
L 556.380729 -203.282656 
L 551.462027 -203.294061 
L 546.543324 -203.301565 
L 541.624621 -203.306423 
L 536.705919 -203.309844 
L 531.787216 -203.312984 
L 526.868513 -203.316935 
L 521.949811 -203.322727 
L 517.031108 -203.331319 
L 512.112405 -203.343608 
L 507.193703 -203.360425 
L 502.275 -203.382546 
L 497.356297 -203.410696 
L 492.437595 -203.445561 
L 487.518892 -203.487802 
L 482.600189 -203.538062 
L 477.681487 -203.596987 
L 472.762784 -203.665237 
L 467.844081 -203.743505 
L 462.925379 -203.832527 
L 458.006676 -203.933104 
L 453.087973 -204.04611 
L 448.169271 -204.172507 
L 443.250568 -204.313353 
L 438.331866 -204.469814 
L 433.413163 -204.643163 
L 428.49446 -204.834786 
L 423.575758 -205.04618 
L 418.657055 -205.278943 
L 413.738352 -205.534769 
L 408.81965 -205.815435 
L 403.900947 -206.122777 
L 398.982244 -206.458678 
L 394.063542 -206.825033 
L 389.144839 -207.223727 
L 384.226136 -207.656597 
L 379.307434 -208.1254 
L 374.388731 -208.631774 
L 369.470028 -209.177193 
L 364.551326 -209.762928 
L 359.632623 -210.389997 
L 354.71392 -211.059125 
L 349.795218 -211.770694 
L 344.876515 -212.524697 
L 339.957813 -213.32069 
L 335.03911 -214.157756 
L 330.120407 -215.034455 
L 325.201705 -215.948793 
L 320.283002 -216.898186 
L 315.364299 -217.879434 
L 310.445597 -218.888702 
L 305.526894 -219.921504 
L 300.608191 -220.972702 
L 295.689489 -222.036516 
L 290.770786 -223.106536 
L 285.852083 -224.175757 
L 280.933381 -225.23662 
L 276.014678 -226.281069 
L 271.095975 -227.30062 
L 266.177273 -228.286445 
L 261.25857 -229.229468 
L 256.339867 -230.120471 
L 251.421165 -230.950216 
L 246.502462 -231.709568 
L 241.583759 -232.389636 
L 236.665057 -232.981903 
L 231.746354 -233.478376 
L 226.827652 -233.871719 
L 221.908949 -234.155393 
L 216.990246 -234.323778 
L 212.071544 -234.372293 
L 207.152841 -234.297497 
L 202.234138 -234.097173 
L 197.315436 -233.770393 
L 192.396733 -233.317563 
L 187.47803 -232.740438 
L 182.559328 -232.042123 
L 177.640625 -231.227034 
z
" style="stroke: #8da0cb; stroke-opacity: 0.42"/>
    </defs>
    <g clip-path="url(#p8da8805cf1)">
     <use xlink:href="#m967eb03e9a" x="0" y="424.474375" style="fill: #8da0cb; fill-opacity: 0.42; stroke: #8da0cb; stroke-opacity: 0.42"/>
    </g>
   </g>
   <g id="FillBetweenPolyCollection_5">
    <defs>
     <path id="m47c553af2e" d="M 177.640625 -180.654136 
L 177.640625 -144.04609 
L 182.887241 -144.04609 
L 188.133857 -144.04609 
L 193.380473 -144.04609 
L 198.62709 -144.04609 
L 203.873706 -144.04609 
L 209.120322 -144.04609 
L 214.366938 -144.04609 
L 219.613554 -144.04609 
L 224.86017 -144.04609 
L 230.106787 -144.04609 
L 235.353403 -144.04609 
L 240.600019 -144.04609 
L 245.846635 -144.04609 
L 251.093251 -144.04609 
L 256.339867 -144.04609 
L 261.586484 -144.04609 
L 266.8331 -144.04609 
L 272.079716 -144.04609 
L 277.326332 -144.04609 
L 282.572948 -144.04609 
L 287.819564 -144.04609 
L 293.066181 -144.04609 
L 298.312797 -144.04609 
L 303.559413 -144.04609 
L 308.806029 -144.04609 
L 314.052645 -144.04609 
L 319.299261 -144.04609 
L 324.545878 -144.04609 
L 329.792494 -144.04609 
L 335.03911 -144.04609 
L 340.285726 -144.04609 
L 345.532342 -144.04609 
L 350.778958 -144.04609 
L 356.025574 -144.04609 
L 361.272191 -144.04609 
L 366.518807 -144.04609 
L 371.765423 -144.04609 
L 377.012039 -144.04609 
L 382.258655 -144.04609 
L 387.505271 -144.04609 
L 392.751888 -144.04609 
L 397.998504 -144.04609 
L 403.24512 -144.04609 
L 408.491736 -144.04609 
L 413.738352 -144.04609 
L 418.984968 -144.04609 
L 424.231585 -144.04609 
L 429.478201 -144.04609 
L 434.724817 -144.04609 
L 439.971433 -144.04609 
L 445.218049 -144.04609 
L 450.464665 -144.04609 
L 455.711282 -144.04609 
L 460.957898 -144.04609 
L 466.204514 -144.04609 
L 471.45113 -144.04609 
L 476.697746 -144.04609 
L 481.944362 -144.04609 
L 487.190979 -144.04609 
L 492.437595 -144.04609 
L 497.684211 -144.04609 
L 502.930827 -144.04609 
L 508.177443 -144.04609 
L 513.424059 -144.04609 
L 518.670676 -144.04609 
L 523.917292 -144.04609 
L 529.163908 -144.04609 
L 534.410524 -144.04609 
L 539.65714 -144.04609 
L 544.903756 -144.04609 
L 550.150372 -144.04609 
L 555.396989 -144.04609 
L 560.643605 -144.04609 
L 565.890221 -144.04609 
L 571.136837 -144.04609 
L 576.383453 -144.04609 
L 581.630069 -144.04609 
L 586.876686 -144.04609 
L 592.123302 -144.04609 
L 597.369918 -144.04609 
L 602.616534 -144.04609 
L 607.86315 -144.04609 
L 613.109766 -144.04609 
L 618.356383 -144.04609 
L 623.602999 -144.04609 
L 628.849615 -144.04609 
L 634.096231 -144.04609 
L 639.342847 -144.04609 
L 644.589463 -144.04609 
L 649.83608 -144.04609 
L 655.082696 -144.04609 
L 660.329312 -144.04609 
L 665.575928 -144.04609 
L 670.822544 -144.04609 
L 676.06916 -144.04609 
L 681.315777 -144.04609 
L 686.562393 -144.04609 
L 691.809009 -144.04609 
L 697.055625 -144.04609 
L 697.055625 -147.195204 
L 697.055625 -147.195204 
L 691.809009 -147.372563 
L 686.562393 -147.549789 
L 681.315777 -147.727191 
L 676.06916 -147.905101 
L 670.822544 -148.083784 
L 665.575928 -148.263353 
L 660.329312 -148.44369 
L 655.082696 -148.624385 
L 649.83608 -148.804689 
L 644.589463 -148.983508 
L 639.342847 -149.159417 
L 634.096231 -149.330714 
L 628.849615 -149.495505 
L 623.602999 -149.651813 
L 618.356383 -149.797704 
L 613.109766 -149.931432 
L 607.86315 -150.05157 
L 602.616534 -150.157134 
L 597.369918 -150.247688 
L 592.123302 -150.323408 
L 586.876686 -150.38511 
L 581.630069 -150.434238 
L 576.383453 -150.472807 
L 571.136837 -150.503302 
L 565.890221 -150.528549 
L 560.643605 -150.551561 
L 555.396989 -150.575367 
L 550.150372 -150.602848 
L 544.903756 -150.636579 
L 539.65714 -150.678692 
L 534.410524 -150.730777 
L 529.163908 -150.793818 
L 523.917292 -150.868169 
L 518.670676 -150.953575 
L 513.424059 -151.049235 
L 508.177443 -151.153887 
L 502.930827 -151.265929 
L 497.684211 -151.383555 
L 492.437595 -151.504885 
L 487.190979 -151.628105 
L 481.944362 -151.751587 
L 476.697746 -151.873981 
L 471.45113 -151.994298 
L 466.204514 -152.111946 
L 460.957898 -152.226752 
L 455.711282 -152.338948 
L 450.464665 -152.449144 
L 445.218049 -152.558275 
L 439.971433 -152.667548 
L 434.724817 -152.778385 
L 429.478201 -152.89237 
L 424.231585 -153.011211 
L 418.984968 -153.136719 
L 413.738352 -153.270804 
L 408.491736 -153.415502 
L 403.24512 -153.573007 
L 397.998504 -153.745737 
L 392.751888 -153.936404 
L 387.505271 -154.148093 
L 382.258655 -154.384338 
L 377.012039 -154.649196 
L 371.765423 -154.947295 
L 366.518807 -155.283865 
L 361.272191 -155.664729 
L 356.025574 -156.096258 
L 350.778958 -156.585282 
L 345.532342 -157.13895 
L 340.285726 -157.764534 
L 335.03911 -158.469194 
L 329.792494 -159.259682 
L 324.545878 -160.142011 
L 319.299261 -161.121081 
L 314.052645 -162.200286 
L 308.806029 -163.381104 
L 303.559413 -164.6627 
L 298.312797 -166.041544 
L 293.066181 -167.51108 
L 287.819564 -169.061464 
L 282.572948 -170.679389 
L 277.326332 -172.34802 
L 272.079716 -174.047066 
L 266.8331 -175.752986 
L 261.586484 -177.43936 
L 256.339867 -179.077401 
L 251.093251 -180.636623 
L 245.846635 -182.085637 
L 240.600019 -183.393053 
L 235.353403 -184.528463 
L 230.106787 -185.463449 
L 224.86017 -186.172587 
L 219.613554 -186.634397 
L 214.366938 -186.832186 
L 209.120322 -186.754739 
L 203.873706 -186.396834 
L 198.62709 -185.759531 
L 193.380473 -184.850236 
L 188.133857 -183.682513 
L 182.887241 -182.275673 
L 177.640625 -180.654136 
z
" style="stroke: #fc8d62; stroke-opacity: 0.42"/>
    </defs>
    <g clip-path="url(#p8da8805cf1)">
     <use xlink:href="#m47c553af2e" x="0" y="424.474375" style="fill: #fc8d62; fill-opacity: 0.42; stroke: #fc8d62; stroke-opacity: 0.42"/>
    </g>
   </g>
   <g id="FillBetweenPolyCollection_6">
    <defs>
     <path id="m3b215c4378" d="M 177.640625 -135.005047 
L 177.640625 -96.505983 
L 182.777937 -96.505983 
L 187.915248 -96.505983 
L 193.05256 -96.505983 
L 198.189872 -96.505983 
L 203.327183 -96.505983 
L 208.464495 -96.505983 
L 213.601807 -96.505983 
L 218.739118 -96.505983 
L 223.87643 -96.505983 
L 229.013742 -96.505983 
L 234.151053 -96.505983 
L 239.288365 -96.505983 
L 244.425677 -96.505983 
L 249.562988 -96.505983 
L 254.7003 -96.505983 
L 259.837612 -96.505983 
L 264.974923 -96.505983 
L 270.112235 -96.505983 
L 275.249547 -96.505983 
L 280.386858 -96.505983 
L 285.52417 -96.505983 
L 290.661481 -96.505983 
L 295.798793 -96.505983 
L 300.936105 -96.505983 
L 306.073416 -96.505983 
L 311.210728 -96.505983 
L 316.34804 -96.505983 
L 321.485351 -96.505983 
L 326.622663 -96.505983 
L 331.759975 -96.505983 
L 336.897286 -96.505983 
L 342.034598 -96.505983 
L 347.17191 -96.505983 
L 352.309221 -96.505983 
L 357.446533 -96.505983 
L 362.583845 -96.505983 
L 367.721156 -96.505983 
L 372.858468 -96.505983 
L 377.99578 -96.505983 
L 383.133091 -96.505983 
L 388.270403 -96.505983 
L 393.407715 -96.505983 
L 398.545026 -96.505983 
L 403.682338 -96.505983 
L 408.81965 -96.505983 
L 413.956961 -96.505983 
L 419.094273 -96.505983 
L 424.231585 -96.505983 
L 429.368896 -96.505983 
L 434.506208 -96.505983 
L 439.64352 -96.505983 
L 444.780831 -96.505983 
L 449.918143 -96.505983 
L 455.055455 -96.505983 
L 460.192766 -96.505983 
L 465.330078 -96.505983 
L 470.46739 -96.505983 
L 475.604701 -96.505983 
L 480.742013 -96.505983 
L 485.879324 -96.505983 
L 491.016636 -96.505983 
L 496.153948 -96.505983 
L 501.291259 -96.505983 
L 506.428571 -96.505983 
L 511.565883 -96.505983 
L 516.703194 -96.505983 
L 521.840506 -96.505983 
L 526.977818 -96.505983 
L 532.115129 -96.505983 
L 537.252441 -96.505983 
L 542.389753 -96.505983 
L 547.527064 -96.505983 
L 552.664376 -96.505983 
L 557.801688 -96.505983 
L 562.938999 -96.505983 
L 568.076311 -96.505983 
L 573.213623 -96.505983 
L 578.350934 -96.505983 
L 583.488246 -96.505983 
L 588.625558 -96.505983 
L 593.762869 -96.505983 
L 598.900181 -96.505983 
L 604.037493 -96.505983 
L 609.174804 -96.505983 
L 614.312116 -96.505983 
L 619.449428 -96.505983 
L 624.586739 -96.505983 
L 629.724051 -96.505983 
L 634.861363 -96.505983 
L 639.998674 -96.505983 
L 645.135986 -96.505983 
L 650.273298 -96.505983 
L 655.410609 -96.505983 
L 660.547921 -96.505983 
L 665.685233 -96.505983 
L 670.822544 -96.505983 
L 675.959856 -96.505983 
L 681.097168 -96.505983 
L 686.234479 -96.505983 
L 686.234479 -101.429109 
L 686.234479 -101.429109 
L 681.097168 -101.74673 
L 675.959856 -102.060723 
L 670.822544 -102.368501 
L 665.685233 -102.667391 
L 660.547921 -102.954654 
L 655.410609 -103.227501 
L 650.273298 -103.483127 
L 645.135986 -103.718742 
L 639.998674 -103.93162 
L 634.861363 -104.119148 
L 629.724051 -104.278892 
L 624.586739 -104.408665 
L 619.449428 -104.506601 
L 614.312116 -104.571232 
L 609.174804 -104.601568 
L 604.037493 -104.597159 
L 598.900181 -104.55816 
L 593.762869 -104.485372 
L 588.625558 -104.380271 
L 583.488246 -104.245007 
L 578.350934 -104.082389 
L 573.213623 -103.895832 
L 568.076311 -103.689294 
L 562.938999 -103.467176 
L 557.801688 -103.234215 
L 552.664376 -102.995353 
L 547.527064 -102.755603 
L 542.389753 -102.519908 
L 537.252441 -102.293005 
L 532.115129 -102.079299 
L 526.977818 -101.882752 
L 521.840506 -101.706793 
L 516.703194 -101.554249 
L 511.565883 -101.427308 
L 506.428571 -101.327505 
L 501.291259 -101.255737 
L 496.153948 -101.212302 
L 491.016636 -101.196962 
L 485.879324 -101.209024 
L 480.742013 -101.247428 
L 475.604701 -101.310855 
L 470.46739 -101.397825 
L 465.330078 -101.506802 
L 460.192766 -101.636289 
L 455.055455 -101.784908 
L 449.918143 -101.951479 
L 444.780831 -102.135067 
L 439.64352 -102.335029 
L 434.506208 -102.551034 
L 429.368896 -102.783075 
L 424.231585 -103.031463 
L 419.094273 -103.296819 
L 413.956961 -103.580049 
L 408.81965 -103.882324 
L 403.682338 -104.205054 
L 398.545026 -104.549865 
L 393.407715 -104.918583 
L 388.270403 -105.313216 
L 383.133091 -105.735953 
L 377.99578 -106.189155 
L 372.858468 -106.675363 
L 367.721156 -107.197298 
L 362.583845 -107.757861 
L 357.446533 -108.360131 
L 352.309221 -109.007347 
L 347.17191 -109.702871 
L 342.034598 -110.45014 
L 336.897286 -111.252584 
L 331.759975 -112.113514 
L 326.622663 -113.035985 
L 321.485351 -114.022623 
L 316.34804 -115.075418 
L 311.210728 -116.195498 
L 306.073416 -117.382878 
L 300.936105 -118.636199 
L 295.798793 -119.952468 
L 290.661481 -121.326811 
L 285.52417 -122.752255 
L 280.386858 -124.21956 
L 275.249547 -125.717105 
L 270.112235 -127.230857 
L 264.974923 -128.744424 
L 259.837612 -130.239209 
L 254.7003 -131.694672 
L 249.562988 -133.088695 
L 244.425677 -134.398044 
L 239.288365 -135.598934 
L 234.151053 -136.667655 
L 229.013742 -137.581264 
L 223.87643 -138.318291 
L 218.739118 -138.859461 
L 213.601807 -139.188364 
L 208.464495 -139.292079 
L 203.327183 -139.161692 
L 198.189872 -138.792698 
L 193.05256 -138.185264 
L 187.915248 -137.344329 
L 182.777937 -136.279544 
L 177.640625 -135.005047 
z
" style="stroke: #8da0cb; stroke-opacity: 0.42"/>
    </defs>
    <g clip-path="url(#p8da8805cf1)">
     <use xlink:href="#m3b215c4378" x="0" y="424.474375" style="fill: #8da0cb; fill-opacity: 0.42; stroke: #8da0cb; stroke-opacity: 0.42"/>
    </g>
   </g>
   <g id="matplotlib.axis_1">
    <g id="xtick_1">
     <g id="line2d_1">
      <path d="M 177.640625 386.918125 
L 177.640625 31.318125 
" clip-path="url(#p8da8805cf1)" style="fill: none; stroke: #b0b0b0; stroke-opacity: 0.3; stroke-width: 0.8; stroke-linecap: square"/>
     </g>
     <g id="line2d_2">
      <defs>
       <path id="m8e330c5ef0" d="M 0 0 
L 0 3.5 
" style="stroke: #000000; stroke-width: 0.8"/>
      </defs>
      <g>
       <use xlink:href="#m8e330c5ef0" x="177.640625" y="386.918125" style="stroke: #000000; stroke-width: 0.8"/>
      </g>
     </g>
     <g id="text_1">
      <!-- 1.0 -->
      <g transform="translate(169.689063 401.516563) scale(0.1 -0.1)">
       <defs>
        <path id="DejaVuSans-31" d="M 794 531 
L 1825 531 
L 1825 4091 
L 703 3866 
L 703 4441 
L 1819 4666 
L 2450 4666 
L 2450 531 
L 3481 531 
L 3481 0 
L 794 0 
L 794 531 
z
" transform="scale(0.015625)"/>
        <path id="DejaVuSans-2e" d="M 684 794 
L 1344 794 
L 1344 0 
L 684 0 
L 684 794 
z
" transform="scale(0.015625)"/>
        <path id="DejaVuSans-30" d="M 2034 4250 
Q 1547 4250 1301 3770 
Q 1056 3291 1056 2328 
Q 1056 1369 1301 889 
Q 1547 409 2034 409 
Q 2525 409 2770 889 
Q 3016 1369 3016 2328 
Q 3016 3291 2770 3770 
Q 2525 4250 2034 4250 
z
M 2034 4750 
Q 2819 4750 3233 4129 
Q 3647 3509 3647 2328 
Q 3647 1150 3233 529 
Q 2819 -91 2034 -91 
Q 1250 -91 836 529 
Q 422 1150 422 2328 
Q 422 3509 836 4129 
Q 1250 4750 2034 4750 
z
" transform="scale(0.015625)"/>
       </defs>
       <use xlink:href="#DejaVuSans-31"/>
       <use xlink:href="#DejaVuSans-2e" transform="translate(63.623047 0)"/>
       <use xlink:href="#DejaVuSans-30" transform="translate(95.410156 0)"/>
      </g>
     </g>
    </g>
    <g id="xtick_2">
     <g id="line2d_3">
      <path d="M 242.5675 386.918125 
L 242.5675 31.318125 
" clip-path="url(#p8da8805cf1)" style="fill: none; stroke: #b0b0b0; stroke-opacity: 0.3; stroke-width: 0.8; stroke-linecap: square"/>
     </g>
     <g id="line2d_4">
      <g>
       <use xlink:href="#m8e330c5ef0" x="242.5675" y="386.918125" style="stroke: #000000; stroke-width: 0.8"/>
      </g>
     </g>
     <g id="text_2">
      <!-- 1.5 -->
      <g transform="translate(234.615938 401.516563) scale(0.1 -0.1)">
       <defs>
        <path id="DejaVuSans-35" d="M 691 4666 
L 3169 4666 
L 3169 4134 
L 1269 4134 
L 1269 2991 
Q 1406 3038 1543 3061 
Q 1681 3084 1819 3084 
Q 2600 3084 3056 2656 
Q 3513 2228 3513 1497 
Q 3513 744 3044 326 
Q 2575 -91 1722 -91 
Q 1428 -91 1123 -41 
Q 819 9 494 109 
L 494 744 
Q 775 591 1075 516 
Q 1375 441 1709 441 
Q 2250 441 2565 725 
Q 2881 1009 2881 1497 
Q 2881 1984 2565 2268 
Q 2250 2553 1709 2553 
Q 1456 2553 1204 2497 
Q 953 2441 691 2322 
L 691 4666 
z
" transform="scale(0.015625)"/>
       </defs>
       <use xlink:href="#DejaVuSans-31"/>
       <use xlink:href="#DejaVuSans-2e" transform="translate(63.623047 0)"/>
       <use xlink:href="#DejaVuSans-35" transform="translate(95.410156 0)"/>
      </g>
     </g>
    </g>
    <g id="xtick_3">
     <g id="line2d_5">
      <path d="M 307.494375 386.918125 
L 307.494375 31.318125 
" clip-path="url(#p8da8805cf1)" style="fill: none; stroke: #b0b0b0; stroke-opacity: 0.3; stroke-width: 0.8; stroke-linecap: square"/>
     </g>
     <g id="line2d_6">
      <g>
       <use xlink:href="#m8e330c5ef0" x="307.494375" y="386.918125" style="stroke: #000000; stroke-width: 0.8"/>
      </g>
     </g>
     <g id="text_3">
      <!-- 2.0 -->
      <g transform="translate(299.542812 401.516563) scale(0.1 -0.1)">
       <defs>
        <path id="DejaVuSans-32" d="M 1228 531 
L 3431 531 
L 3431 0 
L 469 0 
L 469 531 
Q 828 903 1448 1529 
Q 2069 2156 2228 2338 
Q 2531 2678 2651 2914 
Q 2772 3150 2772 3378 
Q 2772 3750 2511 3984 
Q 2250 4219 1831 4219 
Q 1534 4219 1204 4116 
Q 875 4013 500 3803 
L 500 4441 
Q 881 4594 1212 4672 
Q 1544 4750 1819 4750 
Q 2544 4750 2975 4387 
Q 3406 4025 3406 3419 
Q 3406 3131 3298 2873 
Q 3191 2616 2906 2266 
Q 2828 2175 2409 1742 
Q 1991 1309 1228 531 
z
" transform="scale(0.015625)"/>
       </defs>
       <use xlink:href="#DejaVuSans-32"/>
       <use xlink:href="#DejaVuSans-2e" transform="translate(63.623047 0)"/>
       <use xlink:href="#DejaVuSans-30" transform="translate(95.410156 0)"/>
      </g>
     </g>
    </g>
    <g id="xtick_4">
     <g id="line2d_7">
      <path d="M 372.42125 386.918125 
L 372.42125 31.318125 
" clip-path="url(#p8da8805cf1)" style="fill: none; stroke: #b0b0b0; stroke-opacity: 0.3; stroke-width: 0.8; stroke-linecap: square"/>
     </g>
     <g id="line2d_8">
      <g>
       <use xlink:href="#m8e330c5ef0" x="372.42125" y="386.918125" style="stroke: #000000; stroke-width: 0.8"/>
      </g>
     </g>
     <g id="text_4">
      <!-- 2.5 -->
      <g transform="translate(364.469687 401.516563) scale(0.1 -0.1)">
       <use xlink:href="#DejaVuSans-32"/>
       <use xlink:href="#DejaVuSans-2e" transform="translate(63.623047 0)"/>
       <use xlink:href="#DejaVuSans-35" transform="translate(95.410156 0)"/>
      </g>
     </g>
    </g>
    <g id="xtick_5">
     <g id="line2d_9">
      <path d="M 437.348125 386.918125 
L 437.348125 31.318125 
" clip-path="url(#p8da8805cf1)" style="fill: none; stroke: #b0b0b0; stroke-opacity: 0.3; stroke-width: 0.8; stroke-linecap: square"/>
     </g>
     <g id="line2d_10">
      <g>
       <use xlink:href="#m8e330c5ef0" x="437.348125" y="386.918125" style="stroke: #000000; stroke-width: 0.8"/>
      </g>
     </g>
     <g id="text_5">
      <!-- 3.0 -->
      <g transform="translate(429.396562 401.516563) scale(0.1 -0.1)">
       <defs>
        <path id="DejaVuSans-33" d="M 2597 2516 
Q 3050 2419 3304 2112 
Q 3559 1806 3559 1356 
Q 3559 666 3084 287 
Q 2609 -91 1734 -91 
Q 1441 -91 1130 -33 
Q 819 25 488 141 
L 488 750 
Q 750 597 1062 519 
Q 1375 441 1716 441 
Q 2309 441 2620 675 
Q 2931 909 2931 1356 
Q 2931 1769 2642 2001 
Q 2353 2234 1838 2234 
L 1294 2234 
L 1294 2753 
L 1863 2753 
Q 2328 2753 2575 2939 
Q 2822 3125 2822 3475 
Q 2822 3834 2567 4026 
Q 2313 4219 1838 4219 
Q 1578 4219 1281 4162 
Q 984 4106 628 3988 
L 628 4550 
Q 988 4650 1302 4700 
Q 1616 4750 1894 4750 
Q 2613 4750 3031 4423 
Q 3450 4097 3450 3541 
Q 3450 3153 3228 2886 
Q 3006 2619 2597 2516 
z
" transform="scale(0.015625)"/>
       </defs>
       <use xlink:href="#DejaVuSans-33"/>
       <use xlink:href="#DejaVuSans-2e" transform="translate(63.623047 0)"/>
       <use xlink:href="#DejaVuSans-30" transform="translate(95.410156 0)"/>
      </g>
     </g>
    </g>
    <g id="xtick_6">
     <g id="line2d_11">
      <path d="M 502.275 386.918125 
L 502.275 31.318125 
" clip-path="url(#p8da8805cf1)" style="fill: none; stroke: #b0b0b0; stroke-opacity: 0.3; stroke-width: 0.8; stroke-linecap: square"/>
     </g>
     <g id="line2d_12">
      <g>
       <use xlink:href="#m8e330c5ef0" x="502.275" y="386.918125" style="stroke: #000000; stroke-width: 0.8"/>
      </g>
     </g>
     <g id="text_6">
      <!-- 3.5 -->
      <g transform="translate(494.323437 401.516563) scale(0.1 -0.1)">
       <use xlink:href="#DejaVuSans-33"/>
       <use xlink:href="#DejaVuSans-2e" transform="translate(63.623047 0)"/>
       <use xlink:href="#DejaVuSans-35" transform="translate(95.410156 0)"/>
      </g>
     </g>
    </g>
    <g id="xtick_7">
     <g id="line2d_13">
      <path d="M 567.201875 386.918125 
L 567.201875 31.318125 
" clip-path="url(#p8da8805cf1)" style="fill: none; stroke: #b0b0b0; stroke-opacity: 0.3; stroke-width: 0.8; stroke-linecap: square"/>
     </g>
     <g id="line2d_14">
      <g>
       <use xlink:href="#m8e330c5ef0" x="567.201875" y="386.918125" style="stroke: #000000; stroke-width: 0.8"/>
      </g>
     </g>
     <g id="text_7">
      <!-- 4.0 -->
      <g transform="translate(559.250312 401.516563) scale(0.1 -0.1)">
       <defs>
        <path id="DejaVuSans-34" d="M 2419 4116 
L 825 1625 
L 2419 1625 
L 2419 4116 
z
M 2253 4666 
L 3047 4666 
L 3047 1625 
L 3713 1625 
L 3713 1100 
L 3047 1100 
L 3047 0 
L 2419 0 
L 2419 1100 
L 313 1100 
L 313 1709 
L 2253 4666 
z
" transform="scale(0.015625)"/>
       </defs>
       <use xlink:href="#DejaVuSans-34"/>
       <use xlink:href="#DejaVuSans-2e" transform="translate(63.623047 0)"/>
       <use xlink:href="#DejaVuSans-30" transform="translate(95.410156 0)"/>
      </g>
     </g>
    </g>
    <g id="xtick_8">
     <g id="line2d_15">
      <path d="M 632.12875 386.918125 
L 632.12875 31.318125 
" clip-path="url(#p8da8805cf1)" style="fill: none; stroke: #b0b0b0; stroke-opacity: 0.3; stroke-width: 0.8; stroke-linecap: square"/>
     </g>
     <g id="line2d_16">
      <g>
       <use xlink:href="#m8e330c5ef0" x="632.12875" y="386.918125" style="stroke: #000000; stroke-width: 0.8"/>
      </g>
     </g>
     <g id="text_8">
      <!-- 4.5 -->
      <g transform="translate(624.177187 401.516563) scale(0.1 -0.1)">
       <use xlink:href="#DejaVuSans-34"/>
       <use xlink:href="#DejaVuSans-2e" transform="translate(63.623047 0)"/>
       <use xlink:href="#DejaVuSans-35" transform="translate(95.410156 0)"/>
      </g>
     </g>
    </g>
    <g id="xtick_9">
     <g id="line2d_17">
      <path d="M 697.055625 386.918125 
L 697.055625 31.318125 
" clip-path="url(#p8da8805cf1)" style="fill: none; stroke: #b0b0b0; stroke-opacity: 0.3; stroke-width: 0.8; stroke-linecap: square"/>
     </g>
     <g id="line2d_18">
      <g>
       <use xlink:href="#m8e330c5ef0" x="697.055625" y="386.918125" style="stroke: #000000; stroke-width: 0.8"/>
      </g>
     </g>
     <g id="text_9">
      <!-- 5.0 -->
      <g transform="translate(689.104062 401.516563) scale(0.1 -0.1)">
       <use xlink:href="#DejaVuSans-35"/>
       <use xlink:href="#DejaVuSans-2e" transform="translate(63.623047 0)"/>
       <use xlink:href="#DejaVuSans-30" transform="translate(95.410156 0)"/>
      </g>
     </g>
    </g>
    <g id="text_10">
     <!-- Score -->
     <g transform="translate(423.345781 415.194687) scale(0.1 -0.1)">
      <defs>
       <path id="DejaVuSans-53" d="M 3425 4513 
L 3425 3897 
Q 3066 4069 2747 4153 
Q 2428 4238 2131 4238 
Q 1616 4238 1336 4038 
Q 1056 3838 1056 3469 
Q 1056 3159 1242 3001 
Q 1428 2844 1947 2747 
L 2328 2669 
Q 3034 2534 3370 2195 
Q 3706 1856 3706 1288 
Q 3706 609 3251 259 
Q 2797 -91 1919 -91 
Q 1588 -91 1214 -16 
Q 841 59 441 206 
L 441 856 
Q 825 641 1194 531 
Q 1563 422 1919 422 
Q 2459 422 2753 634 
Q 3047 847 3047 1241 
Q 3047 1584 2836 1778 
Q 2625 1972 2144 2069 
L 1759 2144 
Q 1053 2284 737 2584 
Q 422 2884 422 3419 
Q 422 4038 858 4394 
Q 1294 4750 2059 4750 
Q 2388 4750 2728 4690 
Q 3069 4631 3425 4513 
z
" transform="scale(0.015625)"/>
       <path id="DejaVuSans-63" d="M 3122 3366 
L 3122 2828 
Q 2878 2963 2633 3030 
Q 2388 3097 2138 3097 
Q 1578 3097 1268 2742 
Q 959 2388 959 1747 
Q 959 1106 1268 751 
Q 1578 397 2138 397 
Q 2388 397 2633 464 
Q 2878 531 3122 666 
L 3122 134 
Q 2881 22 2623 -34 
Q 2366 -91 2075 -91 
Q 1284 -91 818 406 
Q 353 903 353 1747 
Q 353 2603 823 3093 
Q 1294 3584 2113 3584 
Q 2378 3584 2631 3529 
Q 2884 3475 3122 3366 
z
" transform="scale(0.015625)"/>
       <path id="DejaVuSans-6f" d="M 1959 3097 
Q 1497 3097 1228 2736 
Q 959 2375 959 1747 
Q 959 1119 1226 758 
Q 1494 397 1959 397 
Q 2419 397 2687 759 
Q 2956 1122 2956 1747 
Q 2956 2369 2687 2733 
Q 2419 3097 1959 3097 
z
M 1959 3584 
Q 2709 3584 3137 3096 
Q 3566 2609 3566 1747 
Q 3566 888 3137 398 
Q 2709 -91 1959 -91 
Q 1206 -91 779 398 
Q 353 888 353 1747 
Q 353 2609 779 3096 
Q 1206 3584 1959 3584 
z
" transform="scale(0.015625)"/>
       <path id="DejaVuSans-72" d="M 2631 2963 
Q 2534 3019 2420 3045 
Q 2306 3072 2169 3072 
Q 1681 3072 1420 2755 
Q 1159 2438 1159 1844 
L 1159 0 
L 581 0 
L 581 3500 
L 1159 3500 
L 1159 2956 
Q 1341 3275 1631 3429 
Q 1922 3584 2338 3584 
Q 2397 3584 2469 3576 
Q 2541 3569 2628 3553 
L 2631 2963 
z
" transform="scale(0.015625)"/>
       <path id="DejaVuSans-65" d="M 3597 1894 
L 3597 1613 
L 953 1613 
Q 991 1019 1311 708 
Q 1631 397 2203 397 
Q 2534 397 2845 478 
Q 3156 559 3463 722 
L 3463 178 
Q 3153 47 2828 -22 
Q 2503 -91 2169 -91 
Q 1331 -91 842 396 
Q 353 884 353 1716 
Q 353 2575 817 3079 
Q 1281 3584 2069 3584 
Q 2775 3584 3186 3129 
Q 3597 2675 3597 1894 
z
M 3022 2063 
Q 3016 2534 2758 2815 
Q 2500 3097 2075 3097 
Q 1594 3097 1305 2825 
Q 1016 2553 972 2059 
L 3022 2063 
z
" transform="scale(0.015625)"/>
      </defs>
      <use xlink:href="#DejaVuSans-53"/>
      <use xlink:href="#DejaVuSans-63" transform="translate(63.476562 0)"/>
      <use xlink:href="#DejaVuSans-6f" transform="translate(118.457031 0)"/>
      <use xlink:href="#DejaVuSans-72" transform="translate(179.638672 0)"/>
      <use xlink:href="#DejaVuSans-65" transform="translate(218.501953 0)"/>
     </g>
    </g>
   </g>
   <g id="matplotlib.axis_2">
    <g id="ytick_1">
     <g id="line2d_19">
      <defs>
       <path id="m6879340c6c" d="M 0 0 
L -3.5 0 
" style="stroke: #000000; stroke-width: 0.8"/>
      </defs>
      <g>
       <use xlink:href="#m6879340c6c" x="177.640625" y="90.267858" style="stroke: #000000; stroke-width: 0.8"/>
      </g>
     </g>
     <g id="text_11">
      <!-- o3 no_images -->
      <g transform="translate(101.167188 94.067076) scale(0.1 -0.1)">
       <defs>
        <path id="DejaVuSans-20" transform="scale(0.015625)"/>
        <path id="DejaVuSans-6e" d="M 3513 2113 
L 3513 0 
L 2938 0 
L 2938 2094 
Q 2938 2591 2744 2837 
Q 2550 3084 2163 3084 
Q 1697 3084 1428 2787 
Q 1159 2491 1159 1978 
L 1159 0 
L 581 0 
L 581 3500 
L 1159 3500 
L 1159 2956 
Q 1366 3272 1645 3428 
Q 1925 3584 2291 3584 
Q 2894 3584 3203 3211 
Q 3513 2838 3513 2113 
z
" transform="scale(0.015625)"/>
        <path id="DejaVuSans-5f" d="M 3263 -1063 
L 3263 -1509 
L -63 -1509 
L -63 -1063 
L 3263 -1063 
z
" transform="scale(0.015625)"/>
        <path id="DejaVuSans-69" d="M 603 3500 
L 1178 3500 
L 1178 0 
L 603 0 
L 603 3500 
z
M 603 4863 
L 1178 4863 
L 1178 4134 
L 603 4134 
L 603 4863 
z
" transform="scale(0.015625)"/>
        <path id="DejaVuSans-6d" d="M 3328 2828 
Q 3544 3216 3844 3400 
Q 4144 3584 4550 3584 
Q 5097 3584 5394 3201 
Q 5691 2819 5691 2113 
L 5691 0 
L 5113 0 
L 5113 2094 
Q 5113 2597 4934 2840 
Q 4756 3084 4391 3084 
Q 3944 3084 3684 2787 
Q 3425 2491 3425 1978 
L 3425 0 
L 2847 0 
L 2847 2094 
Q 2847 2600 2669 2842 
Q 2491 3084 2119 3084 
Q 1678 3084 1418 2786 
Q 1159 2488 1159 1978 
L 1159 0 
L 581 0 
L 581 3500 
L 1159 3500 
L 1159 2956 
Q 1356 3278 1631 3431 
Q 1906 3584 2284 3584 
Q 2666 3584 2933 3390 
Q 3200 3197 3328 2828 
z
" transform="scale(0.015625)"/>
        <path id="DejaVuSans-61" d="M 2194 1759 
Q 1497 1759 1228 1600 
Q 959 1441 959 1056 
Q 959 750 1161 570 
Q 1363 391 1709 391 
Q 2188 391 2477 730 
Q 2766 1069 2766 1631 
L 2766 1759 
L 2194 1759 
z
M 3341 1997 
L 3341 0 
L 2766 0 
L 2766 531 
Q 2569 213 2275 61 
Q 1981 -91 1556 -91 
Q 1019 -91 701 211 
Q 384 513 384 1019 
Q 384 1609 779 1909 
Q 1175 2209 1959 2209 
L 2766 2209 
L 2766 2266 
Q 2766 2663 2505 2880 
Q 2244 3097 1772 3097 
Q 1472 3097 1187 3025 
Q 903 2953 641 2809 
L 641 3341 
Q 956 3463 1253 3523 
Q 1550 3584 1831 3584 
Q 2591 3584 2966 3190 
Q 3341 2797 3341 1997 
z
" transform="scale(0.015625)"/>
        <path id="DejaVuSans-67" d="M 2906 1791 
Q 2906 2416 2648 2759 
Q 2391 3103 1925 3103 
Q 1463 3103 1205 2759 
Q 947 2416 947 1791 
Q 947 1169 1205 825 
Q 1463 481 1925 481 
Q 2391 481 2648 825 
Q 2906 1169 2906 1791 
z
M 3481 434 
Q 3481 -459 3084 -895 
Q 2688 -1331 1869 -1331 
Q 1566 -1331 1297 -1286 
Q 1028 -1241 775 -1147 
L 775 -588 
Q 1028 -725 1275 -790 
Q 1522 -856 1778 -856 
Q 2344 -856 2625 -561 
Q 2906 -266 2906 331 
L 2906 616 
Q 2728 306 2450 153 
Q 2172 0 1784 0 
Q 1141 0 747 490 
Q 353 981 353 1791 
Q 353 2603 747 3093 
Q 1141 3584 1784 3584 
Q 2172 3584 2450 3431 
Q 2728 3278 2906 2969 
L 2906 3500 
L 3481 3500 
L 3481 434 
z
" transform="scale(0.015625)"/>
        <path id="DejaVuSans-73" d="M 2834 3397 
L 2834 2853 
Q 2591 2978 2328 3040 
Q 2066 3103 1784 3103 
Q 1356 3103 1142 2972 
Q 928 2841 928 2578 
Q 928 2378 1081 2264 
Q 1234 2150 1697 2047 
L 1894 2003 
Q 2506 1872 2764 1633 
Q 3022 1394 3022 966 
Q 3022 478 2636 193 
Q 2250 -91 1575 -91 
Q 1294 -91 989 -36 
Q 684 19 347 128 
L 347 722 
Q 666 556 975 473 
Q 1284 391 1588 391 
Q 1994 391 2212 530 
Q 2431 669 2431 922 
Q 2431 1156 2273 1281 
Q 2116 1406 1581 1522 
L 1381 1569 
Q 847 1681 609 1914 
Q 372 2147 372 2553 
Q 372 3047 722 3315 
Q 1072 3584 1716 3584 
Q 2034 3584 2315 3537 
Q 2597 3491 2834 3397 
z
" transform="scale(0.015625)"/>
       </defs>
       <use xlink:href="#DejaVuSans-6f"/>
       <use xlink:href="#DejaVuSans-33" transform="translate(61.181641 0)"/>
       <use xlink:href="#DejaVuSans-20" transform="translate(124.804688 0)"/>
       <use xlink:href="#DejaVuSans-6e" transform="translate(156.591797 0)"/>
       <use xlink:href="#DejaVuSans-6f" transform="translate(219.970703 0)"/>
       <use xlink:href="#DejaVuSans-5f" transform="translate(281.152344 0)"/>
       <use xlink:href="#DejaVuSans-69" transform="translate(331.152344 0)"/>
       <use xlink:href="#DejaVuSans-6d" transform="translate(358.935547 0)"/>
       <use xlink:href="#DejaVuSans-61" transform="translate(456.347656 0)"/>
       <use xlink:href="#DejaVuSans-67" transform="translate(517.626953 0)"/>
       <use xlink:href="#DejaVuSans-65" transform="translate(581.103516 0)"/>
       <use xlink:href="#DejaVuSans-73" transform="translate(642.626953 0)"/>
      </g>
     </g>
    </g>
    <g id="ytick_2">
     <g id="line2d_20">
      <g>
       <use xlink:href="#m6879340c6c" x="177.640625" y="137.807965" style="stroke: #000000; stroke-width: 0.8"/>
      </g>
     </g>
     <g id="text_12">
      <!-- o3 with_images -->
      <g transform="translate(92.409375 141.607183) scale(0.1 -0.1)">
       <defs>
        <path id="DejaVuSans-77" d="M 269 3500 
L 844 3500 
L 1563 769 
L 2278 3500 
L 2956 3500 
L 3675 769 
L 4391 3500 
L 4966 3500 
L 4050 0 
L 3372 0 
L 2619 2869 
L 1863 0 
L 1184 0 
L 269 3500 
z
" transform="scale(0.015625)"/>
        <path id="DejaVuSans-74" d="M 1172 4494 
L 1172 3500 
L 2356 3500 
L 2356 3053 
L 1172 3053 
L 1172 1153 
Q 1172 725 1289 603 
Q 1406 481 1766 481 
L 2356 481 
L 2356 0 
L 1766 0 
Q 1100 0 847 248 
Q 594 497 594 1153 
L 594 3053 
L 172 3053 
L 172 3500 
L 594 3500 
L 594 4494 
L 1172 4494 
z
" transform="scale(0.015625)"/>
        <path id="DejaVuSans-68" d="M 3513 2113 
L 3513 0 
L 2938 0 
L 2938 2094 
Q 2938 2591 2744 2837 
Q 2550 3084 2163 3084 
Q 1697 3084 1428 2787 
Q 1159 2491 1159 1978 
L 1159 0 
L 581 0 
L 581 4863 
L 1159 4863 
L 1159 2956 
Q 1366 3272 1645 3428 
Q 1925 3584 2291 3584 
Q 2894 3584 3203 3211 
Q 3513 2838 3513 2113 
z
" transform="scale(0.015625)"/>
       </defs>
       <use xlink:href="#DejaVuSans-6f"/>
       <use xlink:href="#DejaVuSans-33" transform="translate(61.181641 0)"/>
       <use xlink:href="#DejaVuSans-20" transform="translate(124.804688 0)"/>
       <use xlink:href="#DejaVuSans-77" transform="translate(156.591797 0)"/>
       <use xlink:href="#DejaVuSans-69" transform="translate(238.378906 0)"/>
       <use xlink:href="#DejaVuSans-74" transform="translate(266.162109 0)"/>
       <use xlink:href="#DejaVuSans-68" transform="translate(305.371094 0)"/>
       <use xlink:href="#DejaVuSans-5f" transform="translate(368.75 0)"/>
       <use xlink:href="#DejaVuSans-69" transform="translate(418.75 0)"/>
       <use xlink:href="#DejaVuSans-6d" transform="translate(446.533203 0)"/>
       <use xlink:href="#DejaVuSans-61" transform="translate(543.945312 0)"/>
       <use xlink:href="#DejaVuSans-67" transform="translate(605.224609 0)"/>
       <use xlink:href="#DejaVuSans-65" transform="translate(668.701172 0)"/>
       <use xlink:href="#DejaVuSans-73" transform="translate(730.224609 0)"/>
      </g>
     </g>
    </g>
    <g id="ytick_3">
     <g id="line2d_21">
      <g>
       <use xlink:href="#m6879340c6c" x="177.640625" y="185.348072" style="stroke: #000000; stroke-width: 0.8"/>
      </g>
     </g>
     <g id="text_13">
      <!-- gpt4.1 no_images -->
      <g transform="translate(81.128125 189.14729) scale(0.1 -0.1)">
       <defs>
        <path id="DejaVuSans-70" d="M 1159 525 
L 1159 -1331 
L 581 -1331 
L 581 3500 
L 1159 3500 
L 1159 2969 
Q 1341 3281 1617 3432 
Q 1894 3584 2278 3584 
Q 2916 3584 3314 3078 
Q 3713 2572 3713 1747 
Q 3713 922 3314 415 
Q 2916 -91 2278 -91 
Q 1894 -91 1617 61 
Q 1341 213 1159 525 
z
M 3116 1747 
Q 3116 2381 2855 2742 
Q 2594 3103 2138 3103 
Q 1681 3103 1420 2742 
Q 1159 2381 1159 1747 
Q 1159 1113 1420 752 
Q 1681 391 2138 391 
Q 2594 391 2855 752 
Q 3116 1113 3116 1747 
z
" transform="scale(0.015625)"/>
       </defs>
       <use xlink:href="#DejaVuSans-67"/>
       <use xlink:href="#DejaVuSans-70" transform="translate(63.476562 0)"/>
       <use xlink:href="#DejaVuSans-74" transform="translate(126.953125 0)"/>
       <use xlink:href="#DejaVuSans-34" transform="translate(166.162109 0)"/>
       <use xlink:href="#DejaVuSans-2e" transform="translate(229.785156 0)"/>
       <use xlink:href="#DejaVuSans-31" transform="translate(261.572266 0)"/>
       <use xlink:href="#DejaVuSans-20" transform="translate(325.195312 0)"/>
       <use xlink:href="#DejaVuSans-6e" transform="translate(356.982422 0)"/>
       <use xlink:href="#DejaVuSans-6f" transform="translate(420.361328 0)"/>
       <use xlink:href="#DejaVuSans-5f" transform="translate(481.542969 0)"/>
       <use xlink:href="#DejaVuSans-69" transform="translate(531.542969 0)"/>
       <use xlink:href="#DejaVuSans-6d" transform="translate(559.326172 0)"/>
       <use xlink:href="#DejaVuSans-61" transform="translate(656.738281 0)"/>
       <use xlink:href="#DejaVuSans-67" transform="translate(718.017578 0)"/>
       <use xlink:href="#DejaVuSans-65" transform="translate(781.494141 0)"/>
       <use xlink:href="#DejaVuSans-73" transform="translate(843.017578 0)"/>
      </g>
     </g>
    </g>
    <g id="ytick_4">
     <g id="line2d_22">
      <g>
       <use xlink:href="#m6879340c6c" x="177.640625" y="232.888178" style="stroke: #000000; stroke-width: 0.8"/>
      </g>
     </g>
     <g id="text_14">
      <!-- gemini_2.0_flash with_images -->
      <g transform="translate(20.878125 236.687397) scale(0.1 -0.1)">
       <defs>
        <path id="DejaVuSans-66" d="M 2375 4863 
L 2375 4384 
L 1825 4384 
Q 1516 4384 1395 4259 
Q 1275 4134 1275 3809 
L 1275 3500 
L 2222 3500 
L 2222 3053 
L 1275 3053 
L 1275 0 
L 697 0 
L 697 3053 
L 147 3053 
L 147 3500 
L 697 3500 
L 697 3744 
Q 697 4328 969 4595 
Q 1241 4863 1831 4863 
L 2375 4863 
z
" transform="scale(0.015625)"/>
        <path id="DejaVuSans-6c" d="M 603 4863 
L 1178 4863 
L 1178 0 
L 603 0 
L 603 4863 
z
" transform="scale(0.015625)"/>
       </defs>
       <use xlink:href="#DejaVuSans-67"/>
       <use xlink:href="#DejaVuSans-65" transform="translate(63.476562 0)"/>
       <use xlink:href="#DejaVuSans-6d" transform="translate(125 0)"/>
       <use xlink:href="#DejaVuSans-69" transform="translate(222.412109 0)"/>
       <use xlink:href="#DejaVuSans-6e" transform="translate(250.195312 0)"/>
       <use xlink:href="#DejaVuSans-69" transform="translate(313.574219 0)"/>
       <use xlink:href="#DejaVuSans-5f" transform="translate(341.357422 0)"/>
       <use xlink:href="#DejaVuSans-32" transform="translate(391.357422 0)"/>
       <use xlink:href="#DejaVuSans-2e" transform="translate(454.980469 0)"/>
       <use xlink:href="#DejaVuSans-30" transform="translate(486.767578 0)"/>
       <use xlink:href="#DejaVuSans-5f" transform="translate(550.390625 0)"/>
       <use xlink:href="#DejaVuSans-66" transform="translate(600.390625 0)"/>
       <use xlink:href="#DejaVuSans-6c" transform="translate(635.595703 0)"/>
       <use xlink:href="#DejaVuSans-61" transform="translate(663.378906 0)"/>
       <use xlink:href="#DejaVuSans-73" transform="translate(724.658203 0)"/>
       <use xlink:href="#DejaVuSans-68" transform="translate(776.757812 0)"/>
       <use xlink:href="#DejaVuSans-20" transform="translate(840.136719 0)"/>
       <use xlink:href="#DejaVuSans-77" transform="translate(871.923828 0)"/>
       <use xlink:href="#DejaVuSans-69" transform="translate(953.710938 0)"/>
       <use xlink:href="#DejaVuSans-74" transform="translate(981.494141 0)"/>
       <use xlink:href="#DejaVuSans-68" transform="translate(1020.703125 0)"/>
       <use xlink:href="#DejaVuSans-5f" transform="translate(1084.082031 0)"/>
       <use xlink:href="#DejaVuSans-69" transform="translate(1134.082031 0)"/>
       <use xlink:href="#DejaVuSans-6d" transform="translate(1161.865234 0)"/>
       <use xlink:href="#DejaVuSans-61" transform="translate(1259.277344 0)"/>
       <use xlink:href="#DejaVuSans-67" transform="translate(1320.556641 0)"/>
       <use xlink:href="#DejaVuSans-65" transform="translate(1384.033203 0)"/>
       <use xlink:href="#DejaVuSans-73" transform="translate(1445.556641 0)"/>
      </g>
     </g>
    </g>
    <g id="ytick_5">
     <g id="line2d_23">
      <g>
       <use xlink:href="#m6879340c6c" x="177.640625" y="280.428285" style="stroke: #000000; stroke-width: 0.8"/>
      </g>
     </g>
     <g id="text_15">
      <!-- gpt4.1 with_images -->
      <g transform="translate(72.370313 284.227504) scale(0.1 -0.1)">
       <use xlink:href="#DejaVuSans-67"/>
       <use xlink:href="#DejaVuSans-70" transform="translate(63.476562 0)"/>
       <use xlink:href="#DejaVuSans-74" transform="translate(126.953125 0)"/>
       <use xlink:href="#DejaVuSans-34" transform="translate(166.162109 0)"/>
       <use xlink:href="#DejaVuSans-2e" transform="translate(229.785156 0)"/>
       <use xlink:href="#DejaVuSans-31" transform="translate(261.572266 0)"/>
       <use xlink:href="#DejaVuSans-20" transform="translate(325.195312 0)"/>
       <use xlink:href="#DejaVuSans-77" transform="translate(356.982422 0)"/>
       <use xlink:href="#DejaVuSans-69" transform="translate(438.769531 0)"/>
       <use xlink:href="#DejaVuSans-74" transform="translate(466.552734 0)"/>
       <use xlink:href="#DejaVuSans-68" transform="translate(505.761719 0)"/>
       <use xlink:href="#DejaVuSans-5f" transform="translate(569.140625 0)"/>
       <use xlink:href="#DejaVuSans-69" transform="translate(619.140625 0)"/>
       <use xlink:href="#DejaVuSans-6d" transform="translate(646.923828 0)"/>
       <use xlink:href="#DejaVuSans-61" transform="translate(744.335938 0)"/>
       <use xlink:href="#DejaVuSans-67" transform="translate(805.615234 0)"/>
       <use xlink:href="#DejaVuSans-65" transform="translate(869.091797 0)"/>
       <use xlink:href="#DejaVuSans-73" transform="translate(930.615234 0)"/>
      </g>
     </g>
    </g>
    <g id="ytick_6">
     <g id="line2d_24">
      <g>
       <use xlink:href="#m6879340c6c" x="177.640625" y="327.968392" style="stroke: #000000; stroke-width: 0.8"/>
      </g>
     </g>
     <g id="text_16">
      <!-- gemini_2.0_flash no_images -->
      <g transform="translate(29.635938 331.767611) scale(0.1 -0.1)">
       <use xlink:href="#DejaVuSans-67"/>
       <use xlink:href="#DejaVuSans-65" transform="translate(63.476562 0)"/>
       <use xlink:href="#DejaVuSans-6d" transform="translate(125 0)"/>
       <use xlink:href="#DejaVuSans-69" transform="translate(222.412109 0)"/>
       <use xlink:href="#DejaVuSans-6e" transform="translate(250.195312 0)"/>
       <use xlink:href="#DejaVuSans-69" transform="translate(313.574219 0)"/>
       <use xlink:href="#DejaVuSans-5f" transform="translate(341.357422 0)"/>
       <use xlink:href="#DejaVuSans-32" transform="translate(391.357422 0)"/>
       <use xlink:href="#DejaVuSans-2e" transform="translate(454.980469 0)"/>
       <use xlink:href="#DejaVuSans-30" transform="translate(486.767578 0)"/>
       <use xlink:href="#DejaVuSans-5f" transform="translate(550.390625 0)"/>
       <use xlink:href="#DejaVuSans-66" transform="translate(600.390625 0)"/>
       <use xlink:href="#DejaVuSans-6c" transform="translate(635.595703 0)"/>
       <use xlink:href="#DejaVuSans-61" transform="translate(663.378906 0)"/>
       <use xlink:href="#DejaVuSans-73" transform="translate(724.658203 0)"/>
       <use xlink:href="#DejaVuSans-68" transform="translate(776.757812 0)"/>
       <use xlink:href="#DejaVuSans-20" transform="translate(840.136719 0)"/>
       <use xlink:href="#DejaVuSans-6e" transform="translate(871.923828 0)"/>
       <use xlink:href="#DejaVuSans-6f" transform="translate(935.302734 0)"/>
       <use xlink:href="#DejaVuSans-5f" transform="translate(996.484375 0)"/>
       <use xlink:href="#DejaVuSans-69" transform="translate(1046.484375 0)"/>
       <use xlink:href="#DejaVuSans-6d" transform="translate(1074.267578 0)"/>
       <use xlink:href="#DejaVuSans-61" transform="translate(1171.679688 0)"/>
       <use xlink:href="#DejaVuSans-67" transform="translate(1232.958984 0)"/>
       <use xlink:href="#DejaVuSans-65" transform="translate(1296.435547 0)"/>
       <use xlink:href="#DejaVuSans-73" transform="translate(1357.958984 0)"/>
      </g>
     </g>
    </g>
    <g id="text_17">
     <!-- Model -->
     <g transform="translate(14.798438 224.131406) rotate(-90) scale(0.1 -0.1)">
      <defs>
       <path id="DejaVuSans-4d" d="M 628 4666 
L 1569 4666 
L 2759 1491 
L 3956 4666 
L 4897 4666 
L 4897 0 
L 4281 0 
L 4281 4097 
L 3078 897 
L 2444 897 
L 1241 4097 
L 1241 0 
L 628 0 
L 628 4666 
z
" transform="scale(0.015625)"/>
       <path id="DejaVuSans-64" d="M 2906 2969 
L 2906 4863 
L 3481 4863 
L 3481 0 
L 2906 0 
L 2906 525 
Q 2725 213 2448 61 
Q 2172 -91 1784 -91 
Q 1150 -91 751 415 
Q 353 922 353 1747 
Q 353 2572 751 3078 
Q 1150 3584 1784 3584 
Q 2172 3584 2448 3432 
Q 2725 3281 2906 2969 
z
M 947 1747 
Q 947 1113 1208 752 
Q 1469 391 1925 391 
Q 2381 391 2643 752 
Q 2906 1113 2906 1747 
Q 2906 2381 2643 2742 
Q 2381 3103 1925 3103 
Q 1469 3103 1208 2742 
Q 947 2381 947 1747 
z
" transform="scale(0.015625)"/>
      </defs>
      <use xlink:href="#DejaVuSans-4d"/>
      <use xlink:href="#DejaVuSans-6f" transform="translate(86.279297 0)"/>
      <use xlink:href="#DejaVuSans-64" transform="translate(147.460938 0)"/>
      <use xlink:href="#DejaVuSans-65" transform="translate(210.9375 0)"/>
      <use xlink:href="#DejaVuSans-6c" transform="translate(272.460938 0)"/>
     </g>
    </g>
   </g>
   <g id="line2d_25">
    <path d="M 427.511375 90.267858 
L 482.022094 90.267858 
" clip-path="url(#p8da8805cf1)" style="fill: none; stroke: #d93d00; stroke-width: 1.2; stroke-linecap: square"/>
    <defs>
     <path id="m8c7df6bcf3" d="M 0 4.5 
L 0 -4.5 
" style="stroke: #d93d00; stroke-width: 1.2"/>
    </defs>
    <g clip-path="url(#p8da8805cf1)">
     <use xlink:href="#m8c7df6bcf3" x="427.511375" y="90.267858" style="fill: #d93d00; stroke: #d93d00; stroke-width: 1.2"/>
     <use xlink:href="#m8c7df6bcf3" x="482.022094" y="90.267858" style="fill: #d93d00; stroke: #d93d00; stroke-width: 1.2"/>
    </g>
   </g>
   <g id="line2d_26">
    <path d="M 382.950287 137.807965 
L 431.344646 137.807965 
" clip-path="url(#p8da8805cf1)" style="fill: none; stroke: #d93d00; stroke-width: 1.2; stroke-linecap: square"/>
    <g clip-path="url(#p8da8805cf1)">
     <use xlink:href="#m8c7df6bcf3" x="382.950287" y="137.807965" style="fill: #d93d00; stroke: #d93d00; stroke-width: 1.2"/>
     <use xlink:href="#m8c7df6bcf3" x="431.344646" y="137.807965" style="fill: #d93d00; stroke: #d93d00; stroke-width: 1.2"/>
    </g>
   </g>
   <g id="line2d_27">
    <path d="M 292.794587 185.348072 
L 354.35873 185.348072 
" clip-path="url(#p8da8805cf1)" style="fill: none; stroke: #d93d00; stroke-width: 1.2; stroke-linecap: square"/>
    <g clip-path="url(#p8da8805cf1)">
     <use xlink:href="#m8c7df6bcf3" x="292.794587" y="185.348072" style="fill: #d93d00; stroke: #d93d00; stroke-width: 1.2"/>
     <use xlink:href="#m8c7df6bcf3" x="354.35873" y="185.348072" style="fill: #d93d00; stroke: #d93d00; stroke-width: 1.2"/>
    </g>
   </g>
   <g id="line2d_28">
    <path d="M 262.009389 232.888178 
L 362.173267 232.888178 
" clip-path="url(#p8da8805cf1)" style="fill: none; stroke: #3556a0; stroke-width: 1.2; stroke-linecap: square"/>
    <defs>
     <path id="mf2708afccf" d="M 0 4.5 
L 0 -4.5 
" style="stroke: #3556a0; stroke-width: 1.2"/>
    </defs>
    <g clip-path="url(#p8da8805cf1)">
     <use xlink:href="#mf2708afccf" x="262.009389" y="232.888178" style="fill: #3556a0; stroke: #3556a0; stroke-width: 1.2"/>
     <use xlink:href="#mf2708afccf" x="362.173267" y="232.888178" style="fill: #3556a0; stroke: #3556a0; stroke-width: 1.2"/>
    </g>
   </g>
   <g id="line2d_29">
    <path d="M 272.828133 280.428285 
L 324.173409 280.428285 
" clip-path="url(#p8da8805cf1)" style="fill: none; stroke: #d93d00; stroke-width: 1.2; stroke-linecap: square"/>
    <g clip-path="url(#p8da8805cf1)">
     <use xlink:href="#m8c7df6bcf3" x="272.828133" y="280.428285" style="fill: #d93d00; stroke: #d93d00; stroke-width: 1.2"/>
     <use xlink:href="#m8c7df6bcf3" x="324.173409" y="280.428285" style="fill: #d93d00; stroke: #d93d00; stroke-width: 1.2"/>
    </g>
   </g>
   <g id="line2d_30">
    <path d="M 268.477134 327.968392 
L 322.466069 327.968392 
" clip-path="url(#p8da8805cf1)" style="fill: none; stroke: #3556a0; stroke-width: 1.2; stroke-linecap: square"/>
    <g clip-path="url(#p8da8805cf1)">
     <use xlink:href="#mf2708afccf" x="268.477134" y="327.968392" style="fill: #3556a0; stroke: #3556a0; stroke-width: 1.2"/>
     <use xlink:href="#mf2708afccf" x="322.466069" y="327.968392" style="fill: #3556a0; stroke: #3556a0; stroke-width: 1.2"/>
    </g>
   </g>
   <g id="patch_3">
    <path d="M 177.640625 386.918125 
L 177.640625 31.318125 
" style="fill: none; stroke: #000000; stroke-width: 0.8; stroke-linejoin: miter; stroke-linecap: square"/>
   </g>
   <g id="patch_4">
    <path d="M 697.055625 386.918125 
L 697.055625 31.318125 
" style="fill: none; stroke: #000000; stroke-width: 0.8; stroke-linejoin: miter; stroke-linecap: square"/>
   </g>
   <g id="patch_5">
    <path d="M 177.640625 386.918125 
L 697.055625 386.918125 
" style="fill: none; stroke: #000000; stroke-width: 0.8; stroke-linejoin: miter; stroke-linecap: square"/>
   </g>
   <g id="patch_6">
    <path d="M 177.640625 31.318125 
L 697.055625 31.318125 
" style="fill: none; stroke: #000000; stroke-width: 0.8; stroke-linejoin: miter; stroke-linecap: square"/>
   </g>
   <g id="PathCollection_1">
    <defs>
     <path id="m9d96d54a95" d="M 0 2.645751 
C 0.701661 2.645751 1.374679 2.366978 1.870829 1.870829 
C 2.366978 1.374679 2.645751 0.701661 2.645751 0 
C 2.645751 -0.701661 2.366978 -1.374679 1.870829 -1.870829 
C 1.374679 -2.366978 0.701661 -2.645751 0 -2.645751 
C -0.701661 -2.645751 -1.374679 -2.366978 -1.870829 -1.870829 
C -2.366978 -1.374679 -2.645751 -0.701661 -2.645751 0 
C -2.645751 0.701661 -2.366978 1.374679 -1.870829 1.870829 
C -1.374679 2.366978 -0.701661 2.645751 0 2.645751 
z
" style="stroke: #000000; stroke-width: 0.4"/>
    </defs>
    <g clip-path="url(#p8da8805cf1)">
     <use xlink:href="#m9d96d54a95" x="454.766735" y="90.267858" style="fill: #d93d00; stroke: #000000; stroke-width: 0.4"/>
    </g>
   </g>
   <g id="PathCollection_2">
    <g clip-path="url(#p8da8805cf1)">
     <use xlink:href="#m9d96d54a95" x="407.147466" y="137.807965" style="fill: #d93d00; stroke: #000000; stroke-width: 0.4"/>
    </g>
   </g>
   <g id="PathCollection_3">
    <g clip-path="url(#p8da8805cf1)">
     <use xlink:href="#m9d96d54a95" x="323.576659" y="185.348072" style="fill: #d93d00; stroke: #000000; stroke-width: 0.4"/>
    </g>
   </g>
   <g id="PathCollection_4">
    <defs>
     <path id="m7279692730" d="M 0 2.645751 
C 0.701661 2.645751 1.374679 2.366978 1.870829 1.870829 
C 2.366978 1.374679 2.645751 0.701661 2.645751 0 
C 2.645751 -0.701661 2.366978 -1.374679 1.870829 -1.870829 
C 1.374679 -2.366978 0.701661 -2.645751 0 -2.645751 
C -0.701661 -2.645751 -1.374679 -2.366978 -1.870829 -1.870829 
C -2.366978 -1.374679 -2.645751 -0.701661 -2.645751 0 
C -2.645751 0.701661 -2.366978 1.374679 -1.870829 1.870829 
C -1.374679 2.366978 -0.701661 2.645751 0 2.645751 
z
" style="stroke: #000000; stroke-width: 0.4"/>
    </defs>
    <g clip-path="url(#p8da8805cf1)">
     <use xlink:href="#m7279692730" x="312.091328" y="232.888178" style="fill: #3556a0; stroke: #000000; stroke-width: 0.4"/>
    </g>
   </g>
   <g id="PathCollection_5">
    <g clip-path="url(#p8da8805cf1)">
     <use xlink:href="#m9d96d54a95" x="298.500771" y="280.428285" style="fill: #d93d00; stroke: #000000; stroke-width: 0.4"/>
    </g>
   </g>
   <g id="PathCollection_6">
    <g clip-path="url(#p8da8805cf1)">
     <use xlink:href="#m7279692730" x="295.471601" y="327.968392" style="fill: #3556a0; stroke: #000000; stroke-width: 0.4"/>
    </g>
   </g>
   <g id="text_18">
    <!-- Mean Score Distributions by Model and Image Variant -->
    <g transform="translate(275.982813 16.318125) scale(0.12 -0.12)">
     <defs>
      <path id="DejaVuSans-44" d="M 1259 4147 
L 1259 519 
L 2022 519 
Q 2988 519 3436 956 
Q 3884 1394 3884 2338 
Q 3884 3275 3436 3711 
Q 2988 4147 2022 4147 
L 1259 4147 
z
M 628 4666 
L 1925 4666 
Q 3281 4666 3915 4102 
Q 4550 3538 4550 2338 
Q 4550 1131 3912 565 
Q 3275 0 1925 0 
L 628 0 
L 628 4666 
z
" transform="scale(0.015625)"/>
      <path id="DejaVuSans-62" d="M 3116 1747 
Q 3116 2381 2855 2742 
Q 2594 3103 2138 3103 
Q 1681 3103 1420 2742 
Q 1159 2381 1159 1747 
Q 1159 1113 1420 752 
Q 1681 391 2138 391 
Q 2594 391 2855 752 
Q 3116 1113 3116 1747 
z
M 1159 2969 
Q 1341 3281 1617 3432 
Q 1894 3584 2278 3584 
Q 2916 3584 3314 3078 
Q 3713 2572 3713 1747 
Q 3713 922 3314 415 
Q 2916 -91 2278 -91 
Q 1894 -91 1617 61 
Q 1341 213 1159 525 
L 1159 0 
L 581 0 
L 581 4863 
L 1159 4863 
L 1159 2969 
z
" transform="scale(0.015625)"/>
      <path id="DejaVuSans-75" d="M 544 1381 
L 544 3500 
L 1119 3500 
L 1119 1403 
Q 1119 906 1312 657 
Q 1506 409 1894 409 
Q 2359 409 2629 706 
Q 2900 1003 2900 1516 
L 2900 3500 
L 3475 3500 
L 3475 0 
L 2900 0 
L 2900 538 
Q 2691 219 2414 64 
Q 2138 -91 1772 -91 
Q 1169 -91 856 284 
Q 544 659 544 1381 
z
M 1991 3584 
L 1991 3584 
z
" transform="scale(0.015625)"/>
      <path id="DejaVuSans-79" d="M 2059 -325 
Q 1816 -950 1584 -1140 
Q 1353 -1331 966 -1331 
L 506 -1331 
L 506 -850 
L 844 -850 
Q 1081 -850 1212 -737 
Q 1344 -625 1503 -206 
L 1606 56 
L 191 3500 
L 800 3500 
L 1894 763 
L 2988 3500 
L 3597 3500 
L 2059 -325 
z
" transform="scale(0.015625)"/>
      <path id="DejaVuSans-49" d="M 628 4666 
L 1259 4666 
L 1259 0 
L 628 0 
L 628 4666 
z
" transform="scale(0.015625)"/>
      <path id="DejaVuSans-56" d="M 1831 0 
L 50 4666 
L 709 4666 
L 2188 738 
L 3669 4666 
L 4325 4666 
L 2547 0 
L 1831 0 
z
" transform="scale(0.015625)"/>
     </defs>
     <use xlink:href="#DejaVuSans-4d"/>
     <use xlink:href="#DejaVuSans-65" transform="translate(86.279297 0)"/>
     <use xlink:href="#DejaVuSans-61" transform="translate(147.802734 0)"/>
     <use xlink:href="#DejaVuSans-6e" transform="translate(209.082031 0)"/>
     <use xlink:href="#DejaVuSans-20" transform="translate(272.460938 0)"/>
     <use xlink:href="#DejaVuSans-53" transform="translate(304.248047 0)"/>
     <use xlink:href="#DejaVuSans-63" transform="translate(367.724609 0)"/>
     <use xlink:href="#DejaVuSans-6f" transform="translate(422.705078 0)"/>
     <use xlink:href="#DejaVuSans-72" transform="translate(483.886719 0)"/>
     <use xlink:href="#DejaVuSans-65" transform="translate(522.75 0)"/>
     <use xlink:href="#DejaVuSans-20" transform="translate(584.273438 0)"/>
     <use xlink:href="#DejaVuSans-44" transform="translate(616.060547 0)"/>
     <use xlink:href="#DejaVuSans-69" transform="translate(693.0625 0)"/>
     <use xlink:href="#DejaVuSans-73" transform="translate(720.845703 0)"/>
     <use xlink:href="#DejaVuSans-74" transform="translate(772.945312 0)"/>
     <use xlink:href="#DejaVuSans-72" transform="translate(812.154297 0)"/>
     <use xlink:href="#DejaVuSans-69" transform="translate(853.267578 0)"/>
     <use xlink:href="#DejaVuSans-62" transform="translate(881.050781 0)"/>
     <use xlink:href="#DejaVuSans-75" transform="translate(944.527344 0)"/>
     <use xlink:href="#DejaVuSans-74" transform="translate(1007.90625 0)"/>
     <use xlink:href="#DejaVuSans-69" transform="translate(1047.115234 0)"/>
     <use xlink:href="#DejaVuSans-6f" transform="translate(1074.898438 0)"/>
     <use xlink:href="#DejaVuSans-6e" transform="translate(1136.080078 0)"/>
     <use xlink:href="#DejaVuSans-73" transform="translate(1199.458984 0)"/>
     <use xlink:href="#DejaVuSans-20" transform="translate(1251.558594 0)"/>
     <use xlink:href="#DejaVuSans-62" transform="translate(1283.345703 0)"/>
     <use xlink:href="#DejaVuSans-79" transform="translate(1346.822266 0)"/>
     <use xlink:href="#DejaVuSans-20" transform="translate(1406.001953 0)"/>
     <use xlink:href="#DejaVuSans-4d" transform="translate(1437.789062 0)"/>
     <use xlink:href="#DejaVuSans-6f" transform="translate(1524.068359 0)"/>
     <use xlink:href="#DejaVuSans-64" transform="translate(1585.25 0)"/>
     <use xlink:href="#DejaVuSans-65" transform="translate(1648.726562 0)"/>
     <use xlink:href="#DejaVuSans-6c" transform="translate(1710.25 0)"/>
     <use xlink:href="#DejaVuSans-20" transform="translate(1738.033203 0)"/>
     <use xlink:href="#DejaVuSans-61" transform="translate(1769.820312 0)"/>
     <use xlink:href="#DejaVuSans-6e" transform="translate(1831.099609 0)"/>
     <use xlink:href="#DejaVuSans-64" transform="translate(1894.478516 0)"/>
     <use xlink:href="#DejaVuSans-20" transform="translate(1957.955078 0)"/>
     <use xlink:href="#DejaVuSans-49" transform="translate(1989.742188 0)"/>
     <use xlink:href="#DejaVuSans-6d" transform="translate(2019.234375 0)"/>
     <use xlink:href="#DejaVuSans-61" transform="translate(2116.646484 0)"/>
     <use xlink:href="#DejaVuSans-67" transform="translate(2177.925781 0)"/>
     <use xlink:href="#DejaVuSans-65" transform="translate(2241.402344 0)"/>
     <use xlink:href="#DejaVuSans-20" transform="translate(2302.925781 0)"/>
     <use xlink:href="#DejaVuSans-56" transform="translate(2334.712891 0)"/>
     <use xlink:href="#DejaVuSans-61" transform="translate(2395.371094 0)"/>
     <use xlink:href="#DejaVuSans-72" transform="translate(2456.650391 0)"/>
     <use xlink:href="#DejaVuSans-69" transform="translate(2497.763672 0)"/>
     <use xlink:href="#DejaVuSans-61" transform="translate(2525.546875 0)"/>
     <use xlink:href="#DejaVuSans-6e" transform="translate(2586.826172 0)"/>
     <use xlink:href="#DejaVuSans-74" transform="translate(2650.205078 0)"/>
    </g>
   </g>
   <g id="legend_1">
    <g id="patch_7">
     <path d="M 621.554062 381.918125 
L 690.055625 381.918125 
Q 692.055625 381.918125 692.055625 379.918125 
L 692.055625 351.561875 
Q 692.055625 349.561875 690.055625 349.561875 
L 621.554062 349.561875 
Q 619.554062 349.561875 619.554062 351.561875 
L 619.554062 379.918125 
Q 619.554062 381.918125 621.554062 381.918125 
z
" style="fill: #ffffff; opacity: 0.8; stroke: #cccccc; stroke-linejoin: miter"/>
    </g>
    <g id="line2d_31">
     <path d="M 623.554062 357.660313 
L 633.554062 357.660313 
L 643.554062 357.660313 
" style="fill: none; stroke: #000000; stroke-opacity: 0; stroke-width: 1.5; stroke-linecap: square"/>
     <defs>
      <path id="m12cedbf6be" d="M 0 3.5 
C 0.928211 3.5 1.81853 3.131218 2.474874 2.474874 
C 3.131218 1.81853 3.5 0.928211 3.5 0 
C 3.5 -0.928211 3.131218 -1.81853 2.474874 -2.474874 
C 1.81853 -3.131218 0.928211 -3.5 0 -3.5 
C -0.928211 -3.5 -1.81853 -3.131218 -2.474874 -2.474874 
C -3.131218 -1.81853 -3.5 -0.928211 -3.5 0 
C -3.5 0.928211 -3.131218 1.81853 -2.474874 2.474874 
C -1.81853 3.131218 -0.928211 3.5 0 3.5 
z
" style="stroke: #fc8d62"/>
     </defs>
     <g>
      <use xlink:href="#m12cedbf6be" x="633.554062" y="357.660313" style="fill: #fc8d62; stroke: #fc8d62"/>
     </g>
    </g>
    <g id="text_19">
     <!-- OpenAI -->
     <g transform="translate(651.554062 361.160313) scale(0.1 -0.1)">
      <defs>
       <path id="DejaVuSans-4f" d="M 2522 4238 
Q 1834 4238 1429 3725 
Q 1025 3213 1025 2328 
Q 1025 1447 1429 934 
Q 1834 422 2522 422 
Q 3209 422 3611 934 
Q 4013 1447 4013 2328 
Q 4013 3213 3611 3725 
Q 3209 4238 2522 4238 
z
M 2522 4750 
Q 3503 4750 4090 4092 
Q 4678 3434 4678 2328 
Q 4678 1225 4090 567 
Q 3503 -91 2522 -91 
Q 1538 -91 948 565 
Q 359 1222 359 2328 
Q 359 3434 948 4092 
Q 1538 4750 2522 4750 
z
" transform="scale(0.015625)"/>
       <path id="DejaVuSans-41" d="M 2188 4044 
L 1331 1722 
L 3047 1722 
L 2188 4044 
z
M 1831 4666 
L 2547 4666 
L 4325 0 
L 3669 0 
L 3244 1197 
L 1141 1197 
L 716 0 
L 50 0 
L 1831 4666 
z
" transform="scale(0.015625)"/>
      </defs>
      <use xlink:href="#DejaVuSans-4f"/>
      <use xlink:href="#DejaVuSans-70" transform="translate(78.710938 0)"/>
      <use xlink:href="#DejaVuSans-65" transform="translate(142.1875 0)"/>
      <use xlink:href="#DejaVuSans-6e" transform="translate(203.710938 0)"/>
      <use xlink:href="#DejaVuSans-41" transform="translate(267.089844 0)"/>
      <use xlink:href="#DejaVuSans-49" transform="translate(335.498047 0)"/>
     </g>
    </g>
    <g id="line2d_32">
     <path d="M 623.554062 372.338437 
L 633.554062 372.338437 
L 643.554062 372.338437 
" style="fill: none; stroke: #000000; stroke-opacity: 0; stroke-width: 1.5; stroke-linecap: square"/>
     <defs>
      <path id="m57369e36c6" d="M 0 3.5 
C 0.928211 3.5 1.81853 3.131218 2.474874 2.474874 
C 3.131218 1.81853 3.5 0.928211 3.5 0 
C 3.5 -0.928211 3.131218 -1.81853 2.474874 -2.474874 
C 1.81853 -3.131218 0.928211 -3.5 0 -3.5 
C -0.928211 -3.5 -1.81853 -3.131218 -2.474874 -2.474874 
C -3.131218 -1.81853 -3.5 -0.928211 -3.5 0 
C -3.5 0.928211 -3.131218 1.81853 -2.474874 2.474874 
C -1.81853 3.131218 -0.928211 3.5 0 3.5 
z
" style="stroke: #8da0cb"/>
     </defs>
     <g>
      <use xlink:href="#m57369e36c6" x="633.554062" y="372.338437" style="fill: #8da0cb; stroke: #8da0cb"/>
     </g>
    </g>
    <g id="text_20">
     <!-- Gemini -->
     <g transform="translate(651.554062 375.838437) scale(0.1 -0.1)">
      <defs>
       <path id="DejaVuSans-47" d="M 3809 666 
L 3809 1919 
L 2778 1919 
L 2778 2438 
L 4434 2438 
L 4434 434 
Q 4069 175 3628 42 
Q 3188 -91 2688 -91 
Q 1594 -91 976 548 
Q 359 1188 359 2328 
Q 359 3472 976 4111 
Q 1594 4750 2688 4750 
Q 3144 4750 3555 4637 
Q 3966 4525 4313 4306 
L 4313 3634 
Q 3963 3931 3569 4081 
Q 3175 4231 2741 4231 
Q 1884 4231 1454 3753 
Q 1025 3275 1025 2328 
Q 1025 1384 1454 906 
Q 1884 428 2741 428 
Q 3075 428 3337 486 
Q 3600 544 3809 666 
z
" transform="scale(0.015625)"/>
      </defs>
      <use xlink:href="#DejaVuSans-47"/>
      <use xlink:href="#DejaVuSans-65" transform="translate(77.490234 0)"/>
      <use xlink:href="#DejaVuSans-6d" transform="translate(139.013672 0)"/>
      <use xlink:href="#DejaVuSans-69" transform="translate(236.425781 0)"/>
      <use xlink:href="#DejaVuSans-6e" transform="translate(264.208984 0)"/>
      <use xlink:href="#DejaVuSans-69" transform="translate(327.587891 0)"/>
     </g>
    </g>
   </g>
  </g>
 </g>
 <defs>
  <clipPath id="p8da8805cf1">
   <rect x="177.640625" y="31.318125" width="519.415" height="355.6"/>
  </clipPath>
 </defs>
</svg>
