<?xml version="1.0" encoding="utf-8" standalone="no"?>
<!DOCTYPE svg PUBLIC "-//W3C//DTD SVG 1.1//EN"
  "http://www.w3.org/Graphics/SVG/1.1/DTD/svg11.dtd">
<svg xmlns:xlink="http://www.w3.org/1999/xlink" width="1062.830625pt" height="260.003394pt" viewBox="0 0 1062.830625 260.003394" xmlns="http://www.w3.org/2000/svg" version="1.1">
 <metadata>
  <rdf:RDF xmlns:dc="http://purl.org/dc/elements/1.1/" xmlns:cc="http://creativecommons.org/ns#" xmlns:rdf="http://www.w3.org/1999/02/22-rdf-syntax-ns#">
   <cc:Work>
    <dc:type rdf:resource="http://purl.org/dc/dcmitype/StillImage"/>
    <dc:date>2026-05-11T14:19:40.988132</dc:date>
    <dc:format>image/svg+xml</dc:format>
    <dc:creator>
     <cc:Agent>
      <dc:title>Matplotlib v3.10.9, https://matplotlib.org/</dc:title>
     </cc:Agent>
    </dc:creator>
   </cc:Work>
  </rdf:RDF>
 </metadata>
 <defs>
  <style type="text/css">*{stroke-linejoin: round; stroke-linecap: butt}</style>
 </defs>
 <g id="figure_1">
  <g id="patch_1">
   <path d="M 0 260.003394 
L 1062.830625 260.003394 
L 1062.830625 0 
L 0 0 
z
" style="fill: #ffffff"/>
  </g>
  <g id="axes_1">
   <g id="patch_2">
    <path d="M 34.240625 201.368613 
L 342.830625 201.368613 
L 342.830625 59.28 
L 34.240625 59.28 
z
" style="fill: #ffffff"/>
   </g>
   <g id="matplotlib.axis_1">
    <g id="xtick_1">
     <g id="line2d_1">
      <defs>
       <path id="ma9f535122c" d="M 0 0 
L 0 3.5 
" style="stroke: #000000; stroke-width: 0.8"/>
      </defs>
      <g>
       <use xlink:href="#ma9f535122c" x="111.388125" y="201.368613" style="stroke: #000000; stroke-width: 0.8"/>
      </g>
     </g>
     <g id="text_1">
      <!-- no_images -->
      <g transform="translate(86.999986 233.914302) rotate(-20) scale(0.1 -0.1)">
       <defs>
        <path id="DejaVuSans-6e" d="M 3513 2113 
L 3513 0 
L 2938 0 
L 2938 2094 
Q 2938 2591 2744 2837 
Q 2550 3084 2163 3084 
Q 1697 3084 1428 2787 
Q 1159 2491 1159 1978 
L 1159 0 
L 581 0 
L 581 3500 
L 1159 3500 
L 1159 2956 
Q 1366 3272 1645 3428 
Q 1925 3584 2291 3584 
Q 2894 3584 3203 3211 
Q 3513 2838 3513 2113 
z
" transform="scale(0.015625)"/>
        <path id="DejaVuSans-6f" d="M 1959 3097 
Q 1497 3097 1228 2736 
Q 959 2375 959 1747 
Q 959 1119 1226 758 
Q 1494 397 1959 397 
Q 2419 397 2687 759 
Q 2956 1122 2956 1747 
Q 2956 2369 2687 2733 
Q 2419 3097 1959 3097 
z
M 1959 3584 
Q 2709 3584 3137 3096 
Q 3566 2609 3566 1747 
Q 3566 888 3137 398 
Q 2709 -91 1959 -91 
Q 1206 -91 779 398 
Q 353 888 353 1747 
Q 353 2609 779 3096 
Q 1206 3584 1959 3584 
z
" transform="scale(0.015625)"/>
        <path id="DejaVuSans-5f" d="M 3263 -1063 
L 3263 -1509 
L -63 -1509 
L -63 -1063 
L 3263 -1063 
z
" transform="scale(0.015625)"/>
        <path id="DejaVuSans-69" d="M 603 3500 
L 1178 3500 
L 1178 0 
L 603 0 
L 603 3500 
z
M 603 4863 
L 1178 4863 
L 1178 4134 
L 603 4134 
L 603 4863 
z
" transform="scale(0.015625)"/>
        <path id="DejaVuSans-6d" d="M 3328 2828 
Q 3544 3216 3844 3400 
Q 4144 3584 4550 3584 
Q 5097 3584 5394 3201 
Q 5691 2819 5691 2113 
L 5691 0 
L 5113 0 
L 5113 2094 
Q 5113 2597 4934 2840 
Q 4756 3084 4391 3084 
Q 3944 3084 3684 2787 
Q 3425 2491 3425 1978 
L 3425 0 
L 2847 0 
L 2847 2094 
Q 2847 2600 2669 2842 
Q 2491 3084 2119 3084 
Q 1678 3084 1418 2786 
Q 1159 2488 1159 1978 
L 1159 0 
L 581 0 
L 581 3500 
L 1159 3500 
L 1159 2956 
Q 1356 3278 1631 3431 
Q 1906 3584 2284 3584 
Q 2666 3584 2933 3390 
Q 3200 3197 3328 2828 
z
" transform="scale(0.015625)"/>
        <path id="DejaVuSans-61" d="M 2194 1759 
Q 1497 1759 1228 1600 
Q 959 1441 959 1056 
Q 959 750 1161 570 
Q 1363 391 1709 391 
Q 2188 391 2477 730 
Q 2766 1069 2766 1631 
L 2766 1759 
L 2194 1759 
z
M 3341 1997 
L 3341 0 
L 2766 0 
L 2766 531 
Q 2569 213 2275 61 
Q 1981 -91 1556 -91 
Q 1019 -91 701 211 
Q 384 513 384 1019 
Q 384 1609 779 1909 
Q 1175 2209 1959 2209 
L 2766 2209 
L 2766 2266 
Q 2766 2663 2505 2880 
Q 2244 3097 1772 3097 
Q 1472 3097 1187 3025 
Q 903 2953 641 2809 
L 641 3341 
Q 956 3463 1253 3523 
Q 1550 3584 1831 3584 
Q 2591 3584 2966 3190 
Q 3341 2797 3341 1997 
z
" transform="scale(0.015625)"/>
        <path id="DejaVuSans-67" d="M 2906 1791 
Q 2906 2416 2648 2759 
Q 2391 3103 1925 3103 
Q 1463 3103 1205 2759 
Q 947 2416 947 1791 
Q 947 1169 1205 825 
Q 1463 481 1925 481 
Q 2391 481 2648 825 
Q 2906 1169 2906 1791 
z
M 3481 434 
Q 3481 -459 3084 -895 
Q 2688 -1331 1869 -1331 
Q 1566 -1331 1297 -1286 
Q 1028 -1241 775 -1147 
L 775 -588 
Q 1028 -725 1275 -790 
Q 1522 -856 1778 -856 
Q 2344 -856 2625 -561 
Q 2906 -266 2906 331 
L 2906 616 
Q 2728 306 2450 153 
Q 2172 0 1784 0 
Q 1141 0 747 490 
Q 353 981 353 1791 
Q 353 2603 747 3093 
Q 1141 3584 1784 3584 
Q 2172 3584 2450 3431 
Q 2728 3278 2906 2969 
L 2906 3500 
L 3481 3500 
L 3481 434 
z
" transform="scale(0.015625)"/>
        <path id="DejaVuSans-65" d="M 3597 1894 
L 3597 1613 
L 953 1613 
Q 991 1019 1311 708 
Q 1631 397 2203 397 
Q 2534 397 2845 478 
Q 3156 559 3463 722 
L 3463 178 
Q 3153 47 2828 -22 
Q 2503 -91 2169 -91 
Q 1331 -91 842 396 
Q 353 884 353 1716 
Q 353 2575 817 3079 
Q 1281 3584 2069 3584 
Q 2775 3584 3186 3129 
Q 3597 2675 3597 1894 
z
M 3022 2063 
Q 3016 2534 2758 2815 
Q 2500 3097 2075 3097 
Q 1594 3097 1305 2825 
Q 1016 2553 972 2059 
L 3022 2063 
z
" transform="scale(0.015625)"/>
        <path id="DejaVuSans-73" d="M 2834 3397 
L 2834 2853 
Q 2591 2978 2328 3040 
Q 2066 3103 1784 3103 
Q 1356 3103 1142 2972 
Q 928 2841 928 2578 
Q 928 2378 1081 2264 
Q 1234 2150 1697 2047 
L 1894 2003 
Q 2506 1872 2764 1633 
Q 3022 1394 3022 966 
Q 3022 478 2636 193 
Q 2250 -91 1575 -91 
Q 1294 -91 989 -36 
Q 684 19 347 128 
L 347 722 
Q 666 556 975 473 
Q 1284 391 1588 391 
Q 1994 391 2212 530 
Q 2431 669 2431 922 
Q 2431 1156 2273 1281 
Q 2116 1406 1581 1522 
L 1381 1569 
Q 847 1681 609 1914 
Q 372 2147 372 2553 
Q 372 3047 722 3315 
Q 1072 3584 1716 3584 
Q 2034 3584 2315 3537 
Q 2597 3491 2834 3397 
z
" transform="scale(0.015625)"/>
       </defs>
       <use xlink:href="#DejaVuSans-6e"/>
       <use xlink:href="#DejaVuSans-6f" transform="translate(63.378906 0)"/>
       <use xlink:href="#DejaVuSans-5f" transform="translate(124.560547 0)"/>
       <use xlink:href="#DejaVuSans-69" transform="translate(174.560547 0)"/>
       <use xlink:href="#DejaVuSans-6d" transform="translate(202.34375 0)"/>
       <use xlink:href="#DejaVuSans-61" transform="translate(299.755859 0)"/>
       <use xlink:href="#DejaVuSans-67" transform="translate(361.035156 0)"/>
       <use xlink:href="#DejaVuSans-65" transform="translate(424.511719 0)"/>
       <use xlink:href="#DejaVuSans-73" transform="translate(486.035156 0)"/>
      </g>
     </g>
    </g>
    <g id="xtick_2">
     <g id="line2d_2">
      <g>
       <use xlink:href="#ma9f535122c" x="265.683125" y="201.368613" style="stroke: #000000; stroke-width: 0.8"/>
      </g>
     </g>
     <g id="text_2">
      <!-- with_images -->
      <g transform="translate(237.18016 236.90965) rotate(-20) scale(0.1 -0.1)">
       <defs>
        <path id="DejaVuSans-77" d="M 269 3500 
L 844 3500 
L 1563 769 
L 2278 3500 
L 2956 3500 
L 3675 769 
L 4391 3500 
L 4966 3500 
L 4050 0 
L 3372 0 
L 2619 2869 
L 1863 0 
L 1184 0 
L 269 3500 
z
" transform="scale(0.015625)"/>
        <path id="DejaVuSans-74" d="M 1172 4494 
L 1172 3500 
L 2356 3500 
L 2356 3053 
L 1172 3053 
L 1172 1153 
Q 1172 725 1289 603 
Q 1406 481 1766 481 
L 2356 481 
L 2356 0 
L 1766 0 
Q 1100 0 847 248 
Q 594 497 594 1153 
L 594 3053 
L 172 3053 
L 172 3500 
L 594 3500 
L 594 4494 
L 1172 4494 
z
" transform="scale(0.015625)"/>
        <path id="DejaVuSans-68" d="M 3513 2113 
L 3513 0 
L 2938 0 
L 2938 2094 
Q 2938 2591 2744 2837 
Q 2550 3084 2163 3084 
Q 1697 3084 1428 2787 
Q 1159 2491 1159 1978 
L 1159 0 
L 581 0 
L 581 4863 
L 1159 4863 
L 1159 2956 
Q 1366 3272 1645 3428 
Q 1925 3584 2291 3584 
Q 2894 3584 3203 3211 
Q 3513 2838 3513 2113 
z
" transform="scale(0.015625)"/>
       </defs>
       <use xlink:href="#DejaVuSans-77"/>
       <use xlink:href="#DejaVuSans-69" transform="translate(81.787109 0)"/>
       <use xlink:href="#DejaVuSans-74" transform="translate(109.570312 0)"/>
       <use xlink:href="#DejaVuSans-68" transform="translate(148.779297 0)"/>
       <use xlink:href="#DejaVuSans-5f" transform="translate(212.158203 0)"/>
       <use xlink:href="#DejaVuSans-69" transform="translate(262.158203 0)"/>
       <use xlink:href="#DejaVuSans-6d" transform="translate(289.941406 0)"/>
       <use xlink:href="#DejaVuSans-61" transform="translate(387.353516 0)"/>
       <use xlink:href="#DejaVuSans-67" transform="translate(448.632812 0)"/>
       <use xlink:href="#DejaVuSans-65" transform="translate(512.109375 0)"/>
       <use xlink:href="#DejaVuSans-73" transform="translate(573.632812 0)"/>
      </g>
     </g>
    </g>
    <g id="text_3">
     <!-- Variant -->
     <g transform="translate(170.80125 250.723707) scale(0.1 -0.1)">
      <defs>
       <path id="DejaVuSans-56" d="M 1831 0 
L 50 4666 
L 709 4666 
L 2188 738 
L 3669 4666 
L 4325 4666 
L 2547 0 
L 1831 0 
z
" transform="scale(0.015625)"/>
       <path id="DejaVuSans-72" d="M 2631 2963 
Q 2534 3019 2420 3045 
Q 2306 3072 2169 3072 
Q 1681 3072 1420 2755 
Q 1159 2438 1159 1844 
L 1159 0 
L 581 0 
L 581 3500 
L 1159 3500 
L 1159 2956 
Q 1341 3275 1631 3429 
Q 1922 3584 2338 3584 
Q 2397 3584 2469 3576 
Q 2541 3569 2628 3553 
L 2631 2963 
z
" transform="scale(0.015625)"/>
      </defs>
      <use xlink:href="#DejaVuSans-56"/>
      <use xlink:href="#DejaVuSans-61" transform="translate(60.658203 0)"/>
      <use xlink:href="#DejaVuSans-72" transform="translate(121.9375 0)"/>
      <use xlink:href="#DejaVuSans-69" transform="translate(163.050781 0)"/>
      <use xlink:href="#DejaVuSans-61" transform="translate(190.833984 0)"/>
      <use xlink:href="#DejaVuSans-6e" transform="translate(252.113281 0)"/>
      <use xlink:href="#DejaVuSans-74" transform="translate(315.492188 0)"/>
     </g>
    </g>
   </g>
   <g id="matplotlib.axis_2">
    <g id="ytick_1">
     <g id="line2d_3">
      <path d="M 34.240625 194.910039 
L 342.830625 194.910039 
" clip-path="url(#pfbdf91de13)" style="fill: none; stroke: #b0b0b0; stroke-opacity: 0.3; stroke-width: 0.8; stroke-linecap: square"/>
     </g>
     <g id="line2d_4">
      <defs>
       <path id="m8f4b0a796f" d="M 0 0 
L -3.5 0 
" style="stroke: #000000; stroke-width: 0.8"/>
      </defs>
      <g>
       <use xlink:href="#m8f4b0a796f" x="34.240625" y="194.910039" style="stroke: #000000; stroke-width: 0.8"/>
      </g>
     </g>
     <g id="text_4">
      <!-- 1 -->
      <g transform="translate(20.878125 198.709258) scale(0.1 -0.1)">
       <defs>
        <path id="DejaVuSans-31" d="M 794 531 
L 1825 531 
L 1825 4091 
L 703 3866 
L 703 4441 
L 1819 4666 
L 2450 4666 
L 2450 531 
L 3481 531 
L 3481 0 
L 794 0 
L 794 531 
z
" transform="scale(0.015625)"/>
       </defs>
       <use xlink:href="#DejaVuSans-31"/>
      </g>
     </g>
    </g>
    <g id="ytick_2">
     <g id="line2d_5">
      <path d="M 34.240625 162.617173 
L 342.830625 162.617173 
" clip-path="url(#pfbdf91de13)" style="fill: none; stroke: #b0b0b0; stroke-opacity: 0.3; stroke-width: 0.8; stroke-linecap: square"/>
     </g>
     <g id="line2d_6">
      <g>
       <use xlink:href="#m8f4b0a796f" x="34.240625" y="162.617173" style="stroke: #000000; stroke-width: 0.8"/>
      </g>
     </g>
     <g id="text_5">
      <!-- 2 -->
      <g transform="translate(20.878125 166.416392) scale(0.1 -0.1)">
       <defs>
        <path id="DejaVuSans-32" d="M 1228 531 
L 3431 531 
L 3431 0 
L 469 0 
L 469 531 
Q 828 903 1448 1529 
Q 2069 2156 2228 2338 
Q 2531 2678 2651 2914 
Q 2772 3150 2772 3378 
Q 2772 3750 2511 3984 
Q 2250 4219 1831 4219 
Q 1534 4219 1204 4116 
Q 875 4013 500 3803 
L 500 4441 
Q 881 4594 1212 4672 
Q 1544 4750 1819 4750 
Q 2544 4750 2975 4387 
Q 3406 4025 3406 3419 
Q 3406 3131 3298 2873 
Q 3191 2616 2906 2266 
Q 2828 2175 2409 1742 
Q 1991 1309 1228 531 
z
" transform="scale(0.015625)"/>
       </defs>
       <use xlink:href="#DejaVuSans-32"/>
      </g>
     </g>
    </g>
    <g id="ytick_3">
     <g id="line2d_7">
      <path d="M 34.240625 130.324306 
L 342.830625 130.324306 
" clip-path="url(#pfbdf91de13)" style="fill: none; stroke: #b0b0b0; stroke-opacity: 0.3; stroke-width: 0.8; stroke-linecap: square"/>
     </g>
     <g id="line2d_8">
      <g>
       <use xlink:href="#m8f4b0a796f" x="34.240625" y="130.324306" style="stroke: #000000; stroke-width: 0.8"/>
      </g>
     </g>
     <g id="text_6">
      <!-- 3 -->
      <g transform="translate(20.878125 134.123525) scale(0.1 -0.1)">
       <defs>
        <path id="DejaVuSans-33" d="M 2597 2516 
Q 3050 2419 3304 2112 
Q 3559 1806 3559 1356 
Q 3559 666 3084 287 
Q 2609 -91 1734 -91 
Q 1441 -91 1130 -33 
Q 819 25 488 141 
L 488 750 
Q 750 597 1062 519 
Q 1375 441 1716 441 
Q 2309 441 2620 675 
Q 2931 909 2931 1356 
Q 2931 1769 2642 2001 
Q 2353 2234 1838 2234 
L 1294 2234 
L 1294 2753 
L 1863 2753 
Q 2328 2753 2575 2939 
Q 2822 3125 2822 3475 
Q 2822 3834 2567 4026 
Q 2313 4219 1838 4219 
Q 1578 4219 1281 4162 
Q 984 4106 628 3988 
L 628 4550 
Q 988 4650 1302 4700 
Q 1616 4750 1894 4750 
Q 2613 4750 3031 4423 
Q 3450 4097 3450 3541 
Q 3450 3153 3228 2886 
Q 3006 2619 2597 2516 
z
" transform="scale(0.015625)"/>
       </defs>
       <use xlink:href="#DejaVuSans-33"/>
      </g>
     </g>
    </g>
    <g id="ytick_4">
     <g id="line2d_9">
      <path d="M 34.240625 98.03144 
L 342.830625 98.03144 
" clip-path="url(#pfbdf91de13)" style="fill: none; stroke: #b0b0b0; stroke-opacity: 0.3; stroke-width: 0.8; stroke-linecap: square"/>
     </g>
     <g id="line2d_10">
      <g>
       <use xlink:href="#m8f4b0a796f" x="34.240625" y="98.03144" style="stroke: #000000; stroke-width: 0.8"/>
      </g>
     </g>
     <g id="text_7">
      <!-- 4 -->
      <g transform="translate(20.878125 101.830659) scale(0.1 -0.1)">
       <defs>
        <path id="DejaVuSans-34" d="M 2419 4116 
L 825 1625 
L 2419 1625 
L 2419 4116 
z
M 2253 4666 
L 3047 4666 
L 3047 1625 
L 3713 1625 
L 3713 1100 
L 3047 1100 
L 3047 0 
L 2419 0 
L 2419 1100 
L 313 1100 
L 313 1709 
L 2253 4666 
z
" transform="scale(0.015625)"/>
       </defs>
       <use xlink:href="#DejaVuSans-34"/>
      </g>
     </g>
    </g>
    <g id="ytick_5">
     <g id="line2d_11">
      <path d="M 34.240625 65.738573 
L 342.830625 65.738573 
" clip-path="url(#pfbdf91de13)" style="fill: none; stroke: #b0b0b0; stroke-opacity: 0.3; stroke-width: 0.8; stroke-linecap: square"/>
     </g>
     <g id="line2d_12">
      <g>
       <use xlink:href="#m8f4b0a796f" x="34.240625" y="65.738573" style="stroke: #000000; stroke-width: 0.8"/>
      </g>
     </g>
     <g id="text_8">
      <!-- 5 -->
      <g transform="translate(20.878125 69.537792) scale(0.1 -0.1)">
       <defs>
        <path id="DejaVuSans-35" d="M 691 4666 
L 3169 4666 
L 3169 4134 
L 1269 4134 
L 1269 2991 
Q 1406 3038 1543 3061 
Q 1681 3084 1819 3084 
Q 2600 3084 3056 2656 
Q 3513 2228 3513 1497 
Q 3513 744 3044 326 
Q 2575 -91 1722 -91 
Q 1428 -91 1123 -41 
Q 819 9 494 109 
L 494 744 
Q 775 591 1075 516 
Q 1375 441 1709 441 
Q 2250 441 2565 725 
Q 2881 1009 2881 1497 
Q 2881 1984 2565 2268 
Q 2250 2553 1709 2553 
Q 1456 2553 1204 2497 
Q 953 2441 691 2322 
L 691 4666 
z
" transform="scale(0.015625)"/>
       </defs>
       <use xlink:href="#DejaVuSans-35"/>
      </g>
     </g>
    </g>
    <g id="text_9">
     <!-- Score -->
     <g transform="translate(14.798438 144.32665) rotate(-90) scale(0.1 -0.1)">
      <defs>
       <path id="DejaVuSans-53" d="M 3425 4513 
L 3425 3897 
Q 3066 4069 2747 4153 
Q 2428 4238 2131 4238 
Q 1616 4238 1336 4038 
Q 1056 3838 1056 3469 
Q 1056 3159 1242 3001 
Q 1428 2844 1947 2747 
L 2328 2669 
Q 3034 2534 3370 2195 
Q 3706 1856 3706 1288 
Q 3706 609 3251 259 
Q 2797 -91 1919 -91 
Q 1588 -91 1214 -16 
Q 841 59 441 206 
L 441 856 
Q 825 641 1194 531 
Q 1563 422 1919 422 
Q 2459 422 2753 634 
Q 3047 847 3047 1241 
Q 3047 1584 2836 1778 
Q 2625 1972 2144 2069 
L 1759 2144 
Q 1053 2284 737 2584 
Q 422 2884 422 3419 
Q 422 4038 858 4394 
Q 1294 4750 2059 4750 
Q 2388 4750 2728 4690 
Q 3069 4631 3425 4513 
z
" transform="scale(0.015625)"/>
       <path id="DejaVuSans-63" d="M 3122 3366 
L 3122 2828 
Q 2878 2963 2633 3030 
Q 2388 3097 2138 3097 
Q 1578 3097 1268 2742 
Q 959 2388 959 1747 
Q 959 1106 1268 751 
Q 1578 397 2138 397 
Q 2388 397 2633 464 
Q 2878 531 3122 666 
L 3122 134 
Q 2881 22 2623 -34 
Q 2366 -91 2075 -91 
Q 1284 -91 818 406 
Q 353 903 353 1747 
Q 353 2603 823 3093 
Q 1294 3584 2113 3584 
Q 2378 3584 2631 3529 
Q 2884 3475 3122 3366 
z
" transform="scale(0.015625)"/>
      </defs>
      <use xlink:href="#DejaVuSans-53"/>
      <use xlink:href="#DejaVuSans-63" transform="translate(63.476562 0)"/>
      <use xlink:href="#DejaVuSans-6f" transform="translate(118.457031 0)"/>
      <use xlink:href="#DejaVuSans-72" transform="translate(179.638672 0)"/>
      <use xlink:href="#DejaVuSans-65" transform="translate(218.501953 0)"/>
     </g>
    </g>
   </g>
   <g id="patch_3">
    <path d="M 99.816 190.642768 
L 122.96025 190.642768 
L 122.96025 118.214481 
L 99.816 118.214481 
L 99.816 190.642768 
z
" clip-path="url(#pfbdf91de13)" style="fill: #1f77b4; stroke: #000000; stroke-linejoin: miter"/>
   </g>
   <g id="line2d_13">
    <path d="M 111.388125 190.642768 
L 111.388125 194.910039 
" clip-path="url(#pfbdf91de13)" style="fill: none; stroke: #000000; stroke-linecap: square"/>
   </g>
   <g id="line2d_14">
    <path d="M 111.388125 118.214481 
L 111.388125 65.738573 
" clip-path="url(#pfbdf91de13)" style="fill: none; stroke: #000000; stroke-linecap: square"/>
   </g>
   <g id="line2d_15">
    <path d="M 105.602063 194.910039 
L 117.174188 194.910039 
" clip-path="url(#pfbdf91de13)" style="fill: none; stroke: #000000; stroke-linecap: square"/>
   </g>
   <g id="line2d_16">
    <path d="M 105.602063 65.738573 
L 117.174188 65.738573 
" clip-path="url(#pfbdf91de13)" style="fill: none; stroke: #000000; stroke-linecap: square"/>
   </g>
   <g id="line2d_17"/>
   <g id="patch_4">
    <path d="M 254.111 188.451466 
L 277.25525 188.451466 
L 277.25525 148.008495 
L 254.111 148.008495 
L 254.111 188.451466 
z
" clip-path="url(#pfbdf91de13)" style="fill: #1f77b4; stroke: #000000; stroke-linejoin: miter"/>
   </g>
   <g id="line2d_18">
    <path d="M 265.683125 188.451466 
L 265.683125 194.910039 
" clip-path="url(#pfbdf91de13)" style="fill: none; stroke: #000000; stroke-linecap: square"/>
   </g>
   <g id="line2d_19">
    <path d="M 265.683125 148.008495 
L 265.683125 89.958223 
" clip-path="url(#pfbdf91de13)" style="fill: none; stroke: #000000; stroke-linecap: square"/>
   </g>
   <g id="line2d_20">
    <path d="M 259.897063 194.910039 
L 271.469188 194.910039 
" clip-path="url(#pfbdf91de13)" style="fill: none; stroke: #000000; stroke-linecap: square"/>
   </g>
   <g id="line2d_21">
    <path d="M 259.897063 89.958223 
L 271.469188 89.958223 
" clip-path="url(#pfbdf91de13)" style="fill: none; stroke: #000000; stroke-linecap: square"/>
   </g>
   <g id="line2d_22">
    <defs>
     <path id="mb232342fdc" d="M 0 3 
C 0.795609 3 1.55874 2.683901 2.12132 2.12132 
C 2.683901 1.55874 3 0.795609 3 0 
C 3 -0.795609 2.683901 -1.55874 2.12132 -2.12132 
C 1.55874 -2.683901 0.795609 -3 0 -3 
C -0.795609 -3 -1.55874 -2.683901 -2.12132 -2.12132 
C -2.683901 -1.55874 -3 -0.795609 -3 0 
C -3 0.795609 -2.683901 1.55874 -2.12132 2.12132 
C -1.55874 2.683901 -0.795609 3 0 3 
z
" style="stroke: #000000"/>
    </defs>
    <g clip-path="url(#pfbdf91de13)">
     <use xlink:href="#mb232342fdc" x="265.683125" y="65.738573" style="fill-opacity: 0; stroke: #000000"/>
     <use xlink:href="#mb232342fdc" x="265.683125" y="73.81179" style="fill-opacity: 0; stroke: #000000"/>
     <use xlink:href="#mb232342fdc" x="265.683125" y="65.738573" style="fill-opacity: 0; stroke: #000000"/>
     <use xlink:href="#mb232342fdc" x="265.683125" y="65.738573" style="fill-opacity: 0; stroke: #000000"/>
    </g>
   </g>
   <g id="line2d_23">
    <path d="M 99.816 180.378249 
L 122.96025 180.378249 
" clip-path="url(#pfbdf91de13)" style="fill: none; stroke: #ff7f0e"/>
   </g>
   <g id="line2d_24">
    <path d="M 254.111 181.454678 
L 277.25525 181.454678 
" clip-path="url(#pfbdf91de13)" style="fill: none; stroke: #ff7f0e"/>
   </g>
   <g id="patch_5">
    <path d="M 34.240625 201.368613 
L 34.240625 59.28 
" style="fill: none; stroke: #000000; stroke-width: 0.8; stroke-linejoin: miter; stroke-linecap: square"/>
   </g>
   <g id="patch_6">
    <path d="M 342.830625 201.368613 
L 342.830625 59.28 
" style="fill: none; stroke: #000000; stroke-width: 0.8; stroke-linejoin: miter; stroke-linecap: square"/>
   </g>
   <g id="patch_7">
    <path d="M 34.240625 201.368613 
L 342.830625 201.368613 
" style="fill: none; stroke: #000000; stroke-width: 0.8; stroke-linejoin: miter; stroke-linecap: square"/>
   </g>
   <g id="patch_8">
    <path d="M 34.240625 59.28 
L 342.830625 59.28 
" style="fill: none; stroke: #000000; stroke-width: 0.8; stroke-linejoin: miter; stroke-linecap: square"/>
   </g>
   <g id="text_10">
    <!-- gpt4.1 -->
    <g transform="translate(169.023438 53.28) scale(0.12 -0.12)">
     <defs>
      <path id="DejaVuSans-70" d="M 1159 525 
L 1159 -1331 
L 581 -1331 
L 581 3500 
L 1159 3500 
L 1159 2969 
Q 1341 3281 1617 3432 
Q 1894 3584 2278 3584 
Q 2916 3584 3314 3078 
Q 3713 2572 3713 1747 
Q 3713 922 3314 415 
Q 2916 -91 2278 -91 
Q 1894 -91 1617 61 
Q 1341 213 1159 525 
z
M 3116 1747 
Q 3116 2381 2855 2742 
Q 2594 3103 2138 3103 
Q 1681 3103 1420 2742 
Q 1159 2381 1159 1747 
Q 1159 1113 1420 752 
Q 1681 391 2138 391 
Q 2594 391 2855 752 
Q 3116 1113 3116 1747 
z
" transform="scale(0.015625)"/>
      <path id="DejaVuSans-2e" d="M 684 794 
L 1344 794 
L 1344 0 
L 684 0 
L 684 794 
z
" transform="scale(0.015625)"/>
     </defs>
     <use xlink:href="#DejaVuSans-67"/>
     <use xlink:href="#DejaVuSans-70" transform="translate(63.476562 0)"/>
     <use xlink:href="#DejaVuSans-74" transform="translate(126.953125 0)"/>
     <use xlink:href="#DejaVuSans-34" transform="translate(166.162109 0)"/>
     <use xlink:href="#DejaVuSans-2e" transform="translate(229.785156 0)"/>
     <use xlink:href="#DejaVuSans-31" transform="translate(261.572266 0)"/>
    </g>
   </g>
  </g>
  <g id="axes_2">
   <g id="patch_9">
    <path d="M 390.640625 201.368613 
L 699.230625 201.368613 
L 699.230625 59.28 
L 390.640625 59.28 
z
" style="fill: #ffffff"/>
   </g>
   <g id="matplotlib.axis_3">
    <g id="xtick_3">
     <g id="line2d_25">
      <g>
       <use xlink:href="#ma9f535122c" x="467.788125" y="201.368613" style="stroke: #000000; stroke-width: 0.8"/>
      </g>
     </g>
     <g id="text_11">
      <!-- no_images -->
      <g transform="translate(443.399986 233.914302) rotate(-20) scale(0.1 -0.1)">
       <use xlink:href="#DejaVuSans-6e"/>
       <use xlink:href="#DejaVuSans-6f" transform="translate(63.378906 0)"/>
       <use xlink:href="#DejaVuSans-5f" transform="translate(124.560547 0)"/>
       <use xlink:href="#DejaVuSans-69" transform="translate(174.560547 0)"/>
       <use xlink:href="#DejaVuSans-6d" transform="translate(202.34375 0)"/>
       <use xlink:href="#DejaVuSans-61" transform="translate(299.755859 0)"/>
       <use xlink:href="#DejaVuSans-67" transform="translate(361.035156 0)"/>
       <use xlink:href="#DejaVuSans-65" transform="translate(424.511719 0)"/>
       <use xlink:href="#DejaVuSans-73" transform="translate(486.035156 0)"/>
      </g>
     </g>
    </g>
    <g id="xtick_4">
     <g id="line2d_26">
      <g>
       <use xlink:href="#ma9f535122c" x="622.083125" y="201.368613" style="stroke: #000000; stroke-width: 0.8"/>
      </g>
     </g>
     <g id="text_12">
      <!-- with_images -->
      <g transform="translate(593.58016 236.90965) rotate(-20) scale(0.1 -0.1)">
       <use xlink:href="#DejaVuSans-77"/>
       <use xlink:href="#DejaVuSans-69" transform="translate(81.787109 0)"/>
       <use xlink:href="#DejaVuSans-74" transform="translate(109.570312 0)"/>
       <use xlink:href="#DejaVuSans-68" transform="translate(148.779297 0)"/>
       <use xlink:href="#DejaVuSans-5f" transform="translate(212.158203 0)"/>
       <use xlink:href="#DejaVuSans-69" transform="translate(262.158203 0)"/>
       <use xlink:href="#DejaVuSans-6d" transform="translate(289.941406 0)"/>
       <use xlink:href="#DejaVuSans-61" transform="translate(387.353516 0)"/>
       <use xlink:href="#DejaVuSans-67" transform="translate(448.632812 0)"/>
       <use xlink:href="#DejaVuSans-65" transform="translate(512.109375 0)"/>
       <use xlink:href="#DejaVuSans-73" transform="translate(573.632812 0)"/>
      </g>
     </g>
    </g>
    <g id="text_13">
     <!-- Variant -->
     <g transform="translate(527.20125 250.723707) scale(0.1 -0.1)">
      <use xlink:href="#DejaVuSans-56"/>
      <use xlink:href="#DejaVuSans-61" transform="translate(60.658203 0)"/>
      <use xlink:href="#DejaVuSans-72" transform="translate(121.9375 0)"/>
      <use xlink:href="#DejaVuSans-69" transform="translate(163.050781 0)"/>
      <use xlink:href="#DejaVuSans-61" transform="translate(190.833984 0)"/>
      <use xlink:href="#DejaVuSans-6e" transform="translate(252.113281 0)"/>
      <use xlink:href="#DejaVuSans-74" transform="translate(315.492188 0)"/>
     </g>
    </g>
   </g>
   <g id="matplotlib.axis_4">
    <g id="ytick_6">
     <g id="line2d_27">
      <path d="M 390.640625 194.910039 
L 699.230625 194.910039 
" clip-path="url(#pf4042e1c17)" style="fill: none; stroke: #b0b0b0; stroke-opacity: 0.3; stroke-width: 0.8; stroke-linecap: square"/>
     </g>
     <g id="line2d_28">
      <g>
       <use xlink:href="#m8f4b0a796f" x="390.640625" y="194.910039" style="stroke: #000000; stroke-width: 0.8"/>
      </g>
     </g>
     <g id="text_14">
      <!-- 1 -->
      <g transform="translate(377.278125 198.709258) scale(0.1 -0.1)">
       <use xlink:href="#DejaVuSans-31"/>
      </g>
     </g>
    </g>
    <g id="ytick_7">
     <g id="line2d_29">
      <path d="M 390.640625 162.617173 
L 699.230625 162.617173 
" clip-path="url(#pf4042e1c17)" style="fill: none; stroke: #b0b0b0; stroke-opacity: 0.3; stroke-width: 0.8; stroke-linecap: square"/>
     </g>
     <g id="line2d_30">
      <g>
       <use xlink:href="#m8f4b0a796f" x="390.640625" y="162.617173" style="stroke: #000000; stroke-width: 0.8"/>
      </g>
     </g>
     <g id="text_15">
      <!-- 2 -->
      <g transform="translate(377.278125 166.416392) scale(0.1 -0.1)">
       <use xlink:href="#DejaVuSans-32"/>
      </g>
     </g>
    </g>
    <g id="ytick_8">
     <g id="line2d_31">
      <path d="M 390.640625 130.324306 
L 699.230625 130.324306 
" clip-path="url(#pf4042e1c17)" style="fill: none; stroke: #b0b0b0; stroke-opacity: 0.3; stroke-width: 0.8; stroke-linecap: square"/>
     </g>
     <g id="line2d_32">
      <g>
       <use xlink:href="#m8f4b0a796f" x="390.640625" y="130.324306" style="stroke: #000000; stroke-width: 0.8"/>
      </g>
     </g>
     <g id="text_16">
      <!-- 3 -->
      <g transform="translate(377.278125 134.123525) scale(0.1 -0.1)">
       <use xlink:href="#DejaVuSans-33"/>
      </g>
     </g>
    </g>
    <g id="ytick_9">
     <g id="line2d_33">
      <path d="M 390.640625 98.03144 
L 699.230625 98.03144 
" clip-path="url(#pf4042e1c17)" style="fill: none; stroke: #b0b0b0; stroke-opacity: 0.3; stroke-width: 0.8; stroke-linecap: square"/>
     </g>
     <g id="line2d_34">
      <g>
       <use xlink:href="#m8f4b0a796f" x="390.640625" y="98.03144" style="stroke: #000000; stroke-width: 0.8"/>
      </g>
     </g>
     <g id="text_17">
      <!-- 4 -->
      <g transform="translate(377.278125 101.830659) scale(0.1 -0.1)">
       <use xlink:href="#DejaVuSans-34"/>
      </g>
     </g>
    </g>
    <g id="ytick_10">
     <g id="line2d_35">
      <path d="M 390.640625 65.738573 
L 699.230625 65.738573 
" clip-path="url(#pf4042e1c17)" style="fill: none; stroke: #b0b0b0; stroke-opacity: 0.3; stroke-width: 0.8; stroke-linecap: square"/>
     </g>
     <g id="line2d_36">
      <g>
       <use xlink:href="#m8f4b0a796f" x="390.640625" y="65.738573" style="stroke: #000000; stroke-width: 0.8"/>
      </g>
     </g>
     <g id="text_18">
      <!-- 5 -->
      <g transform="translate(377.278125 69.537792) scale(0.1 -0.1)">
       <use xlink:href="#DejaVuSans-35"/>
      </g>
     </g>
    </g>
    <g id="text_19">
     <!-- Score -->
     <g transform="translate(371.198438 144.32665) rotate(-90) scale(0.1 -0.1)">
      <use xlink:href="#DejaVuSans-53"/>
      <use xlink:href="#DejaVuSans-63" transform="translate(63.476562 0)"/>
      <use xlink:href="#DejaVuSans-6f" transform="translate(118.457031 0)"/>
      <use xlink:href="#DejaVuSans-72" transform="translate(179.638672 0)"/>
      <use xlink:href="#DejaVuSans-65" transform="translate(218.501953 0)"/>
     </g>
    </g>
   </g>
   <g id="patch_10">
    <path d="M 456.216 170.69039 
L 479.36025 170.69039 
L 479.36025 78.65572 
L 456.216 78.65572 
L 456.216 170.69039 
z
" clip-path="url(#pf4042e1c17)" style="fill: #1f77b4; stroke: #000000; stroke-linejoin: miter"/>
   </g>
   <g id="line2d_37">
    <path d="M 467.788125 170.69039 
L 467.788125 194.910039 
" clip-path="url(#pf4042e1c17)" style="fill: none; stroke: #000000; stroke-linecap: square"/>
   </g>
   <g id="line2d_38">
    <path d="M 467.788125 78.65572 
L 467.788125 65.738573 
" clip-path="url(#pf4042e1c17)" style="fill: none; stroke: #000000; stroke-linecap: square"/>
   </g>
   <g id="line2d_39">
    <path d="M 462.002063 194.910039 
L 473.574188 194.910039 
" clip-path="url(#pf4042e1c17)" style="fill: none; stroke: #000000; stroke-linecap: square"/>
   </g>
   <g id="line2d_40">
    <path d="M 462.002063 65.738573 
L 473.574188 65.738573 
" clip-path="url(#pf4042e1c17)" style="fill: none; stroke: #000000; stroke-linecap: square"/>
   </g>
   <g id="line2d_41"/>
   <g id="patch_11">
    <path d="M 610.511 184.145751 
L 633.65525 184.145751 
L 633.65525 92.380188 
L 610.511 92.380188 
L 610.511 184.145751 
z
" clip-path="url(#pf4042e1c17)" style="fill: #1f77b4; stroke: #000000; stroke-linejoin: miter"/>
   </g>
   <g id="line2d_42">
    <path d="M 622.083125 184.145751 
L 622.083125 194.910039 
" clip-path="url(#pf4042e1c17)" style="fill: none; stroke: #000000; stroke-linecap: square"/>
   </g>
   <g id="line2d_43">
    <path d="M 622.083125 92.380188 
L 622.083125 65.738573 
" clip-path="url(#pf4042e1c17)" style="fill: none; stroke: #000000; stroke-linecap: square"/>
   </g>
   <g id="line2d_44">
    <path d="M 616.297063 194.910039 
L 627.869188 194.910039 
" clip-path="url(#pf4042e1c17)" style="fill: none; stroke: #000000; stroke-linecap: square"/>
   </g>
   <g id="line2d_45">
    <path d="M 616.297063 65.738573 
L 627.869188 65.738573 
" clip-path="url(#pf4042e1c17)" style="fill: none; stroke: #000000; stroke-linecap: square"/>
   </g>
   <g id="line2d_46"/>
   <g id="line2d_47">
    <path d="M 456.216 119.560018 
L 479.36025 119.560018 
" clip-path="url(#pf4042e1c17)" style="fill: none; stroke: #ff7f0e"/>
   </g>
   <g id="line2d_48">
    <path d="M 610.511 146.47074 
L 633.65525 146.47074 
" clip-path="url(#pf4042e1c17)" style="fill: none; stroke: #ff7f0e"/>
   </g>
   <g id="patch_12">
    <path d="M 390.640625 201.368613 
L 390.640625 59.28 
" style="fill: none; stroke: #000000; stroke-width: 0.8; stroke-linejoin: miter; stroke-linecap: square"/>
   </g>
   <g id="patch_13">
    <path d="M 699.230625 201.368613 
L 699.230625 59.28 
" style="fill: none; stroke: #000000; stroke-width: 0.8; stroke-linejoin: miter; stroke-linecap: square"/>
   </g>
   <g id="patch_14">
    <path d="M 390.640625 201.368613 
L 699.230625 201.368613 
" style="fill: none; stroke: #000000; stroke-width: 0.8; stroke-linejoin: miter; stroke-linecap: square"/>
   </g>
   <g id="patch_15">
    <path d="M 390.640625 59.28 
L 699.230625 59.28 
" style="fill: none; stroke: #000000; stroke-width: 0.8; stroke-linejoin: miter; stroke-linecap: square"/>
   </g>
   <g id="text_20">
    <!-- o3 -->
    <g transform="translate(537.446875 53.28) scale(0.12 -0.12)">
     <use xlink:href="#DejaVuSans-6f"/>
     <use xlink:href="#DejaVuSans-33" transform="translate(61.181641 0)"/>
    </g>
   </g>
  </g>
  <g id="axes_3">
   <g id="patch_16">
    <path d="M 747.040625 201.368613 
L 1055.630625 201.368613 
L 1055.630625 59.28 
L 747.040625 59.28 
z
" style="fill: #ffffff"/>
   </g>
   <g id="matplotlib.axis_5">
    <g id="xtick_5">
     <g id="line2d_49">
      <g>
       <use xlink:href="#ma9f535122c" x="824.188125" y="201.368613" style="stroke: #000000; stroke-width: 0.8"/>
      </g>
     </g>
     <g id="text_21">
      <!-- no_images -->
      <g transform="translate(799.799986 233.914302) rotate(-20) scale(0.1 -0.1)">
       <use xlink:href="#DejaVuSans-6e"/>
       <use xlink:href="#DejaVuSans-6f" transform="translate(63.378906 0)"/>
       <use xlink:href="#DejaVuSans-5f" transform="translate(124.560547 0)"/>
       <use xlink:href="#DejaVuSans-69" transform="translate(174.560547 0)"/>
       <use xlink:href="#DejaVuSans-6d" transform="translate(202.34375 0)"/>
       <use xlink:href="#DejaVuSans-61" transform="translate(299.755859 0)"/>
       <use xlink:href="#DejaVuSans-67" transform="translate(361.035156 0)"/>
       <use xlink:href="#DejaVuSans-65" transform="translate(424.511719 0)"/>
       <use xlink:href="#DejaVuSans-73" transform="translate(486.035156 0)"/>
      </g>
     </g>
    </g>
    <g id="xtick_6">
     <g id="line2d_50">
      <g>
       <use xlink:href="#ma9f535122c" x="978.483125" y="201.368613" style="stroke: #000000; stroke-width: 0.8"/>
      </g>
     </g>
     <g id="text_22">
      <!-- with_images -->
      <g transform="translate(949.98016 236.90965) rotate(-20) scale(0.1 -0.1)">
       <use xlink:href="#DejaVuSans-77"/>
       <use xlink:href="#DejaVuSans-69" transform="translate(81.787109 0)"/>
       <use xlink:href="#DejaVuSans-74" transform="translate(109.570312 0)"/>
       <use xlink:href="#DejaVuSans-68" transform="translate(148.779297 0)"/>
       <use xlink:href="#DejaVuSans-5f" transform="translate(212.158203 0)"/>
       <use xlink:href="#DejaVuSans-69" transform="translate(262.158203 0)"/>
       <use xlink:href="#DejaVuSans-6d" transform="translate(289.941406 0)"/>
       <use xlink:href="#DejaVuSans-61" transform="translate(387.353516 0)"/>
       <use xlink:href="#DejaVuSans-67" transform="translate(448.632812 0)"/>
       <use xlink:href="#DejaVuSans-65" transform="translate(512.109375 0)"/>
       <use xlink:href="#DejaVuSans-73" transform="translate(573.632812 0)"/>
      </g>
     </g>
    </g>
    <g id="text_23">
     <!-- Variant -->
     <g transform="translate(883.60125 250.723707) scale(0.1 -0.1)">
      <use xlink:href="#DejaVuSans-56"/>
      <use xlink:href="#DejaVuSans-61" transform="translate(60.658203 0)"/>
      <use xlink:href="#DejaVuSans-72" transform="translate(121.9375 0)"/>
      <use xlink:href="#DejaVuSans-69" transform="translate(163.050781 0)"/>
      <use xlink:href="#DejaVuSans-61" transform="translate(190.833984 0)"/>
      <use xlink:href="#DejaVuSans-6e" transform="translate(252.113281 0)"/>
      <use xlink:href="#DejaVuSans-74" transform="translate(315.492188 0)"/>
     </g>
    </g>
   </g>
   <g id="matplotlib.axis_6">
    <g id="ytick_11">
     <g id="line2d_51">
      <path d="M 747.040625 194.910039 
L 1055.630625 194.910039 
" clip-path="url(#p1517768deb)" style="fill: none; stroke: #b0b0b0; stroke-opacity: 0.3; stroke-width: 0.8; stroke-linecap: square"/>
     </g>
     <g id="line2d_52">
      <g>
       <use xlink:href="#m8f4b0a796f" x="747.040625" y="194.910039" style="stroke: #000000; stroke-width: 0.8"/>
      </g>
     </g>
     <g id="text_24">
      <!-- 1 -->
      <g transform="translate(733.678125 198.709258) scale(0.1 -0.1)">
       <use xlink:href="#DejaVuSans-31"/>
      </g>
     </g>
    </g>
    <g id="ytick_12">
     <g id="line2d_53">
      <path d="M 747.040625 161.930091 
L 1055.630625 161.930091 
" clip-path="url(#p1517768deb)" style="fill: none; stroke: #b0b0b0; stroke-opacity: 0.3; stroke-width: 0.8; stroke-linecap: square"/>
     </g>
     <g id="line2d_54">
      <g>
       <use xlink:href="#m8f4b0a796f" x="747.040625" y="161.930091" style="stroke: #000000; stroke-width: 0.8"/>
      </g>
     </g>
     <g id="text_25">
      <!-- 2 -->
      <g transform="translate(733.678125 165.729309) scale(0.1 -0.1)">
       <use xlink:href="#DejaVuSans-32"/>
      </g>
     </g>
    </g>
    <g id="ytick_13">
     <g id="line2d_55">
      <path d="M 747.040625 128.950142 
L 1055.630625 128.950142 
" clip-path="url(#p1517768deb)" style="fill: none; stroke: #b0b0b0; stroke-opacity: 0.3; stroke-width: 0.8; stroke-linecap: square"/>
     </g>
     <g id="line2d_56">
      <g>
       <use xlink:href="#m8f4b0a796f" x="747.040625" y="128.950142" style="stroke: #000000; stroke-width: 0.8"/>
      </g>
     </g>
     <g id="text_26">
      <!-- 3 -->
      <g transform="translate(733.678125 132.749361) scale(0.1 -0.1)">
       <use xlink:href="#DejaVuSans-33"/>
      </g>
     </g>
    </g>
    <g id="ytick_14">
     <g id="line2d_57">
      <path d="M 747.040625 95.970193 
L 1055.630625 95.970193 
" clip-path="url(#p1517768deb)" style="fill: none; stroke: #b0b0b0; stroke-opacity: 0.3; stroke-width: 0.8; stroke-linecap: square"/>
     </g>
     <g id="line2d_58">
      <g>
       <use xlink:href="#m8f4b0a796f" x="747.040625" y="95.970193" style="stroke: #000000; stroke-width: 0.8"/>
      </g>
     </g>
     <g id="text_27">
      <!-- 4 -->
      <g transform="translate(733.678125 99.769412) scale(0.1 -0.1)">
       <use xlink:href="#DejaVuSans-34"/>
      </g>
     </g>
    </g>
    <g id="ytick_15">
     <g id="line2d_59">
      <path d="M 747.040625 62.990244 
L 1055.630625 62.990244 
" clip-path="url(#p1517768deb)" style="fill: none; stroke: #b0b0b0; stroke-opacity: 0.3; stroke-width: 0.8; stroke-linecap: square"/>
     </g>
     <g id="line2d_60">
      <g>
       <use xlink:href="#m8f4b0a796f" x="747.040625" y="62.990244" style="stroke: #000000; stroke-width: 0.8"/>
      </g>
     </g>
     <g id="text_28">
      <!-- 5 -->
      <g transform="translate(733.678125 66.789463) scale(0.1 -0.1)">
       <use xlink:href="#DejaVuSans-35"/>
      </g>
     </g>
    </g>
    <g id="text_29">
     <!-- Score -->
     <g transform="translate(727.598438 144.32665) rotate(-90) scale(0.1 -0.1)">
      <use xlink:href="#DejaVuSans-53"/>
      <use xlink:href="#DejaVuSans-63" transform="translate(63.476562 0)"/>
      <use xlink:href="#DejaVuSans-6f" transform="translate(118.457031 0)"/>
      <use xlink:href="#DejaVuSans-72" transform="translate(179.638672 0)"/>
      <use xlink:href="#DejaVuSans-65" transform="translate(218.501953 0)"/>
     </g>
    </g>
   </g>
   <g id="patch_17">
    <path d="M 812.616 192.16171 
L 835.76025 192.16171 
L 835.76025 155.059268 
L 812.616 155.059268 
L 812.616 192.16171 
z
" clip-path="url(#p1517768deb)" style="fill: #1f77b4; stroke: #000000; stroke-linejoin: miter"/>
   </g>
   <g id="line2d_61">
    <path d="M 824.188125 192.16171 
L 824.188125 194.910039 
" clip-path="url(#p1517768deb)" style="fill: none; stroke: #000000; stroke-linecap: square"/>
   </g>
   <g id="line2d_62">
    <path d="M 824.188125 155.059268 
L 824.188125 115.208496 
" clip-path="url(#p1517768deb)" style="fill: none; stroke: #000000; stroke-linecap: square"/>
   </g>
   <g id="line2d_63">
    <path d="M 818.402062 194.910039 
L 829.974187 194.910039 
" clip-path="url(#p1517768deb)" style="fill: none; stroke: #000000; stroke-linecap: square"/>
   </g>
   <g id="line2d_64">
    <path d="M 818.402062 115.208496 
L 829.974187 115.208496 
" clip-path="url(#p1517768deb)" style="fill: none; stroke: #000000; stroke-linecap: square"/>
   </g>
   <g id="line2d_65">
    <g clip-path="url(#p1517768deb)">
     <use xlink:href="#mb232342fdc" x="824.188125" y="75.357725" style="fill-opacity: 0; stroke: #000000"/>
     <use xlink:href="#mb232342fdc" x="824.188125" y="90.473535" style="fill-opacity: 0; stroke: #000000"/>
     <use xlink:href="#mb232342fdc" x="824.188125" y="90.473535" style="fill-opacity: 0; stroke: #000000"/>
     <use xlink:href="#mb232342fdc" x="824.188125" y="93.221864" style="fill-opacity: 0; stroke: #000000"/>
     <use xlink:href="#mb232342fdc" x="824.188125" y="87.725206" style="fill-opacity: 0; stroke: #000000"/>
     <use xlink:href="#mb232342fdc" x="824.188125" y="87.725206" style="fill-opacity: 0; stroke: #000000"/>
     <use xlink:href="#mb232342fdc" x="824.188125" y="95.970193" style="fill-opacity: 0; stroke: #000000"/>
     <use xlink:href="#mb232342fdc" x="824.188125" y="79.480219" style="fill-opacity: 0; stroke: #000000"/>
     <use xlink:href="#mb232342fdc" x="824.188125" y="76.73189" style="fill-opacity: 0; stroke: #000000"/>
     <use xlink:href="#mb232342fdc" x="824.188125" y="93.221864" style="fill-opacity: 0; stroke: #000000"/>
     <use xlink:href="#mb232342fdc" x="824.188125" y="87.725206" style="fill-opacity: 0; stroke: #000000"/>
     <use xlink:href="#mb232342fdc" x="824.188125" y="66.288239" style="fill-opacity: 0; stroke: #000000"/>
     <use xlink:href="#mb232342fdc" x="824.188125" y="65.738573" style="fill-opacity: 0; stroke: #000000"/>
     <use xlink:href="#mb232342fdc" x="824.188125" y="87.725206" style="fill-opacity: 0; stroke: #000000"/>
     <use xlink:href="#mb232342fdc" x="824.188125" y="95.970193" style="fill-opacity: 0; stroke: #000000"/>
     <use xlink:href="#mb232342fdc" x="824.188125" y="73.983561" style="fill-opacity: 0; stroke: #000000"/>
     <use xlink:href="#mb232342fdc" x="824.188125" y="65.738573" style="fill-opacity: 0; stroke: #000000"/>
    </g>
   </g>
   <g id="patch_18">
    <path d="M 966.911 192.456174 
L 990.05525 192.456174 
L 990.05525 133.072635 
L 966.911 133.072635 
L 966.911 192.456174 
z
" clip-path="url(#p1517768deb)" style="fill: #1f77b4; stroke: #000000; stroke-linejoin: miter"/>
   </g>
   <g id="line2d_66">
    <path d="M 978.483125 192.456174 
L 978.483125 194.910039 
" clip-path="url(#p1517768deb)" style="fill: none; stroke: #000000; stroke-linecap: square"/>
   </g>
   <g id="line2d_67">
    <path d="M 978.483125 133.072635 
L 978.483125 71.235231 
" clip-path="url(#p1517768deb)" style="fill: none; stroke: #000000; stroke-linecap: square"/>
   </g>
   <g id="line2d_68">
    <path d="M 972.697062 194.910039 
L 984.269188 194.910039 
" clip-path="url(#p1517768deb)" style="fill: none; stroke: #000000; stroke-linecap: square"/>
   </g>
   <g id="line2d_69">
    <path d="M 972.697062 71.235231 
L 984.269188 71.235231 
" clip-path="url(#p1517768deb)" style="fill: none; stroke: #000000; stroke-linecap: square"/>
   </g>
   <g id="line2d_70"/>
   <g id="line2d_71">
    <path d="M 812.616 183.367057 
L 835.76025 183.367057 
" clip-path="url(#p1517768deb)" style="fill: none; stroke: #ff7f0e"/>
   </g>
   <g id="line2d_72">
    <path d="M 966.911 175.868045 
L 990.05525 175.868045 
" clip-path="url(#p1517768deb)" style="fill: none; stroke: #ff7f0e"/>
   </g>
   <g id="patch_19">
    <path d="M 747.040625 201.368613 
L 747.040625 59.28 
" style="fill: none; stroke: #000000; stroke-width: 0.8; stroke-linejoin: miter; stroke-linecap: square"/>
   </g>
   <g id="patch_20">
    <path d="M 1055.630625 201.368613 
L 1055.630625 59.28 
" style="fill: none; stroke: #000000; stroke-width: 0.8; stroke-linejoin: miter; stroke-linecap: square"/>
   </g>
   <g id="patch_21">
    <path d="M 747.040625 201.368613 
L 1055.630625 201.368613 
" style="fill: none; stroke: #000000; stroke-width: 0.8; stroke-linejoin: miter; stroke-linecap: square"/>
   </g>
   <g id="patch_22">
    <path d="M 747.040625 59.28 
L 1055.630625 59.28 
" style="fill: none; stroke: #000000; stroke-width: 0.8; stroke-linejoin: miter; stroke-linecap: square"/>
   </g>
   <g id="text_30">
    <!-- gemini_2.0_flash -->
    <g transform="translate(850.928125 53.28) scale(0.12 -0.12)">
     <defs>
      <path id="DejaVuSans-30" d="M 2034 4250 
Q 1547 4250 1301 3770 
Q 1056 3291 1056 2328 
Q 1056 1369 1301 889 
Q 1547 409 2034 409 
Q 2525 409 2770 889 
Q 3016 1369 3016 2328 
Q 3016 3291 2770 3770 
Q 2525 4250 2034 4250 
z
M 2034 4750 
Q 2819 4750 3233 4129 
Q 3647 3509 3647 2328 
Q 3647 1150 3233 529 
Q 2819 -91 2034 -91 
Q 1250 -91 836 529 
Q 422 1150 422 2328 
Q 422 3509 836 4129 
Q 1250 4750 2034 4750 
z
" transform="scale(0.015625)"/>
      <path id="DejaVuSans-66" d="M 2375 4863 
L 2375 4384 
L 1825 4384 
Q 1516 4384 1395 4259 
Q 1275 4134 1275 3809 
L 1275 3500 
L 2222 3500 
L 2222 3053 
L 1275 3053 
L 1275 0 
L 697 0 
L 697 3053 
L 147 3053 
L 147 3500 
L 697 3500 
L 697 3744 
Q 697 4328 969 4595 
Q 1241 4863 1831 4863 
L 2375 4863 
z
" transform="scale(0.015625)"/>
      <path id="DejaVuSans-6c" d="M 603 4863 
L 1178 4863 
L 1178 0 
L 603 0 
L 603 4863 
z
" transform="scale(0.015625)"/>
     </defs>
     <use xlink:href="#DejaVuSans-67"/>
     <use xlink:href="#DejaVuSans-65" transform="translate(63.476562 0)"/>
     <use xlink:href="#DejaVuSans-6d" transform="translate(125 0)"/>
     <use xlink:href="#DejaVuSans-69" transform="translate(222.412109 0)"/>
     <use xlink:href="#DejaVuSans-6e" transform="translate(250.195312 0)"/>
     <use xlink:href="#DejaVuSans-69" transform="translate(313.574219 0)"/>
     <use xlink:href="#DejaVuSans-5f" transform="translate(341.357422 0)"/>
     <use xlink:href="#DejaVuSans-32" transform="translate(391.357422 0)"/>
     <use xlink:href="#DejaVuSans-2e" transform="translate(454.980469 0)"/>
     <use xlink:href="#DejaVuSans-30" transform="translate(486.767578 0)"/>
     <use xlink:href="#DejaVuSans-5f" transform="translate(550.390625 0)"/>
     <use xlink:href="#DejaVuSans-66" transform="translate(600.390625 0)"/>
     <use xlink:href="#DejaVuSans-6c" transform="translate(635.595703 0)"/>
     <use xlink:href="#DejaVuSans-61" transform="translate(663.378906 0)"/>
     <use xlink:href="#DejaVuSans-73" transform="translate(724.658203 0)"/>
     <use xlink:href="#DejaVuSans-68" transform="translate(776.757812 0)"/>
    </g>
   </g>
  </g>
  <g id="text_31">
   <!-- Model Scores: With Images vs Without Images -->
   <g transform="translate(387.447187 16.318125) scale(0.12 -0.12)">
    <defs>
     <path id="DejaVuSans-4d" d="M 628 4666 
L 1569 4666 
L 2759 1491 
L 3956 4666 
L 4897 4666 
L 4897 0 
L 4281 0 
L 4281 4097 
L 3078 897 
L 2444 897 
L 1241 4097 
L 1241 0 
L 628 0 
L 628 4666 
z
" transform="scale(0.015625)"/>
     <path id="DejaVuSans-64" d="M 2906 2969 
L 2906 4863 
L 3481 4863 
L 3481 0 
L 2906 0 
L 2906 525 
Q 2725 213 2448 61 
Q 2172 -91 1784 -91 
Q 1150 -91 751 415 
Q 353 922 353 1747 
Q 353 2572 751 3078 
Q 1150 3584 1784 3584 
Q 2172 3584 2448 3432 
Q 2725 3281 2906 2969 
z
M 947 1747 
Q 947 1113 1208 752 
Q 1469 391 1925 391 
Q 2381 391 2643 752 
Q 2906 1113 2906 1747 
Q 2906 2381 2643 2742 
Q 2381 3103 1925 3103 
Q 1469 3103 1208 2742 
Q 947 2381 947 1747 
z
" transform="scale(0.015625)"/>
     <path id="DejaVuSans-20" transform="scale(0.015625)"/>
     <path id="DejaVuSans-3a" d="M 750 794 
L 1409 794 
L 1409 0 
L 750 0 
L 750 794 
z
M 750 3309 
L 1409 3309 
L 1409 2516 
L 750 2516 
L 750 3309 
z
" transform="scale(0.015625)"/>
     <path id="DejaVuSans-57" d="M 213 4666 
L 850 4666 
L 1831 722 
L 2809 4666 
L 3519 4666 
L 4500 722 
L 5478 4666 
L 6119 4666 
L 4947 0 
L 4153 0 
L 3169 4050 
L 2175 0 
L 1381 0 
L 213 4666 
z
" transform="scale(0.015625)"/>
     <path id="DejaVuSans-49" d="M 628 4666 
L 1259 4666 
L 1259 0 
L 628 0 
L 628 4666 
z
" transform="scale(0.015625)"/>
     <path id="DejaVuSans-76" d="M 191 3500 
L 800 3500 
L 1894 563 
L 2988 3500 
L 3597 3500 
L 2284 0 
L 1503 0 
L 191 3500 
z
" transform="scale(0.015625)"/>
     <path id="DejaVuSans-75" d="M 544 1381 
L 544 3500 
L 1119 3500 
L 1119 1403 
Q 1119 906 1312 657 
Q 1506 409 1894 409 
Q 2359 409 2629 706 
Q 2900 1003 2900 1516 
L 2900 3500 
L 3475 3500 
L 3475 0 
L 2900 0 
L 2900 538 
Q 2691 219 2414 64 
Q 2138 -91 1772 -91 
Q 1169 -91 856 284 
Q 544 659 544 1381 
z
M 1991 3584 
L 1991 3584 
z
" transform="scale(0.015625)"/>
    </defs>
    <use xlink:href="#DejaVuSans-4d"/>
    <use xlink:href="#DejaVuSans-6f" transform="translate(86.279297 0)"/>
    <use xlink:href="#DejaVuSans-64" transform="translate(147.460938 0)"/>
    <use xlink:href="#DejaVuSans-65" transform="translate(210.9375 0)"/>
    <use xlink:href="#DejaVuSans-6c" transform="translate(272.460938 0)"/>
    <use xlink:href="#DejaVuSans-20" transform="translate(300.244141 0)"/>
    <use xlink:href="#DejaVuSans-53" transform="translate(332.03125 0)"/>
    <use xlink:href="#DejaVuSans-63" transform="translate(395.507812 0)"/>
    <use xlink:href="#DejaVuSans-6f" transform="translate(450.488281 0)"/>
    <use xlink:href="#DejaVuSans-72" transform="translate(511.669922 0)"/>
    <use xlink:href="#DejaVuSans-65" transform="translate(550.533203 0)"/>
    <use xlink:href="#DejaVuSans-73" transform="translate(612.056641 0)"/>
    <use xlink:href="#DejaVuSans-3a" transform="translate(664.15625 0)"/>
    <use xlink:href="#DejaVuSans-20" transform="translate(697.847656 0)"/>
    <use xlink:href="#DejaVuSans-57" transform="translate(729.634766 0)"/>
    <use xlink:href="#DejaVuSans-69" transform="translate(826.261719 0)"/>
    <use xlink:href="#DejaVuSans-74" transform="translate(854.044922 0)"/>
    <use xlink:href="#DejaVuSans-68" transform="translate(893.253906 0)"/>
    <use xlink:href="#DejaVuSans-20" transform="translate(956.632812 0)"/>
    <use xlink:href="#DejaVuSans-49" transform="translate(988.419922 0)"/>
    <use xlink:href="#DejaVuSans-6d" transform="translate(1017.912109 0)"/>
    <use xlink:href="#DejaVuSans-61" transform="translate(1115.324219 0)"/>
    <use xlink:href="#DejaVuSans-67" transform="translate(1176.603516 0)"/>
    <use xlink:href="#DejaVuSans-65" transform="translate(1240.080078 0)"/>
    <use xlink:href="#DejaVuSans-73" transform="translate(1301.603516 0)"/>
    <use xlink:href="#DejaVuSans-20" transform="translate(1353.703125 0)"/>
    <use xlink:href="#DejaVuSans-76" transform="translate(1385.490234 0)"/>
    <use xlink:href="#DejaVuSans-73" transform="translate(1444.669922 0)"/>
    <use xlink:href="#DejaVuSans-20" transform="translate(1496.769531 0)"/>
    <use xlink:href="#DejaVuSans-57" transform="translate(1528.556641 0)"/>
    <use xlink:href="#DejaVuSans-69" transform="translate(1625.183594 0)"/>
    <use xlink:href="#DejaVuSans-74" transform="translate(1652.966797 0)"/>
    <use xlink:href="#DejaVuSans-68" transform="translate(1692.175781 0)"/>
    <use xlink:href="#DejaVuSans-6f" transform="translate(1755.554688 0)"/>
    <use xlink:href="#DejaVuSans-75" transform="translate(1816.736328 0)"/>
    <use xlink:href="#DejaVuSans-74" transform="translate(1880.115234 0)"/>
    <use xlink:href="#DejaVuSans-20" transform="translate(1919.324219 0)"/>
    <use xlink:href="#DejaVuSans-49" transform="translate(1951.111328 0)"/>
    <use xlink:href="#DejaVuSans-6d" transform="translate(1980.603516 0)"/>
    <use xlink:href="#DejaVuSans-61" transform="translate(2078.015625 0)"/>
    <use xlink:href="#DejaVuSans-67" transform="translate(2139.294922 0)"/>
    <use xlink:href="#DejaVuSans-65" transform="translate(2202.771484 0)"/>
    <use xlink:href="#DejaVuSans-73" transform="translate(2264.294922 0)"/>
   </g>
  </g>
 </g>
 <defs>
  <clipPath id="pfbdf91de13">
   <rect x="34.240625" y="59.28" width="308.59" height="142.088613"/>
  </clipPath>
  <clipPath id="pf4042e1c17">
   <rect x="390.640625" y="59.28" width="308.59" height="142.088613"/>
  </clipPath>
  <clipPath id="p1517768deb">
   <rect x="747.040625" y="59.28" width="308.59" height="142.088613"/>
  </clipPath>
 </defs>
</svg>
