<?xml version="1.0" encoding="utf-8" standalone="no"?>
<!DOCTYPE svg PUBLIC "-//W3C//DTD SVG 1.1//EN"
  "http://www.w3.org/Graphics/SVG/1.1/DTD/svg11.dtd">
<svg xmlns:xlink="http://www.w3.org/1999/xlink" width="616.084375pt" height="385.5875pt" viewBox="0 0 616.084375 385.5875" xmlns="http://www.w3.org/2000/svg" version="1.1">
 <metadata>
  <rdf:RDF xmlns:dc="http://purl.org/dc/elements/1.1/" xmlns:cc="http://creativecommons.org/ns#" xmlns:rdf="http://www.w3.org/1999/02/22-rdf-syntax-ns#">
   <cc:Work>
    <dc:type rdf:resource="http://purl.org/dc/dcmitype/StillImage"/>
    <dc:date>2026-05-13T16:31:15.368220</dc:date>
    <dc:format>image/svg+xml</dc:format>
    <dc:creator>
     <cc:Agent>
      <dc:title>Matplotlib v3.10.9, https://matplotlib.org/</dc:title>
     </cc:Agent>
    </dc:creator>
   </cc:Work>
  </rdf:RDF>
 </metadata>
 <defs>
  <style type="text/css">*{stroke-linejoin: round; stroke-linecap: butt}</style>
 </defs>
 <g id="figure_1">
  <g id="patch_1">
   <path d="M 0 385.5875 
L 616.084375 385.5875 
L 616.084375 0 
L 0 0 
z
" style="fill: #ffffff"/>
  </g>
  <g id="axes_1">
   <g id="patch_2">
    <path d="M 167.3425 344.16 
L 599.3425 344.16 
L 599.3425 7.2 
L 167.3425 7.2 
z
" style="fill: #ffffff"/>
   </g>
   <g id="FillBetweenPolyCollection_1">
    <defs>
     <path id="m69470d8d21" d="M 257.3425 -298.188425 
L 257.3425 -290.51994 
L 260.797045 -290.51994 
L 264.251591 -290.51994 
L 267.706136 -290.51994 
L 271.160682 -290.51994 
L 274.615227 -290.51994 
L 278.069773 -290.51994 
L 281.524318 -290.51994 
L 284.978864 -290.51994 
L 288.433409 -290.51994 
L 291.887955 -290.51994 
L 295.3425 -290.51994 
L 298.797045 -290.51994 
L 302.251591 -290.51994 
L 305.706136 -290.51994 
L 309.160682 -290.51994 
L 312.615227 -290.51994 
L 316.069773 -290.51994 
L 319.524318 -290.51994 
L 322.978864 -290.51994 
L 326.433409 -290.51994 
L 329.887955 -290.51994 
L 333.3425 -290.51994 
L 336.797045 -290.51994 
L 340.251591 -290.51994 
L 343.706136 -290.51994 
L 347.160682 -290.51994 
L 350.615227 -290.51994 
L 354.069773 -290.51994 
L 357.524318 -290.51994 
L 360.978864 -290.51994 
L 364.433409 -290.51994 
L 367.887955 -290.51994 
L 371.3425 -290.51994 
L 374.797045 -290.51994 
L 378.251591 -290.51994 
L 381.706136 -290.51994 
L 385.160682 -290.51994 
L 388.615227 -290.51994 
L 392.069773 -290.51994 
L 395.524318 -290.51994 
L 398.978864 -290.51994 
L 402.433409 -290.51994 
L 405.887955 -290.51994 
L 409.3425 -290.51994 
L 412.797045 -290.51994 
L 416.251591 -290.51994 
L 419.706136 -290.51994 
L 423.160682 -290.51994 
L 426.615227 -290.51994 
L 430.069773 -290.51994 
L 433.524318 -290.51994 
L 436.978864 -290.51994 
L 440.433409 -290.51994 
L 443.887955 -290.51994 
L 447.3425 -290.51994 
L 450.797045 -290.51994 
L 454.251591 -290.51994 
L 457.706136 -290.51994 
L 461.160682 -290.51994 
L 464.615227 -290.51994 
L 468.069773 -290.51994 
L 471.524318 -290.51994 
L 474.978864 -290.51994 
L 478.433409 -290.51994 
L 481.887955 -290.51994 
L 485.3425 -290.51994 
L 488.797045 -290.51994 
L 492.251591 -290.51994 
L 495.706136 -290.51994 
L 499.160682 -290.51994 
L 502.615227 -290.51994 
L 506.069773 -290.51994 
L 509.524318 -290.51994 
L 512.978864 -290.51994 
L 516.433409 -290.51994 
L 519.887955 -290.51994 
L 523.3425 -290.51994 
L 526.797045 -290.51994 
L 530.251591 -290.51994 
L 533.706136 -290.51994 
L 537.160682 -290.51994 
L 540.615227 -290.51994 
L 544.069773 -290.51994 
L 547.524318 -290.51994 
L 550.978864 -290.51994 
L 554.433409 -290.51994 
L 557.887955 -290.51994 
L 561.3425 -290.51994 
L 564.797045 -290.51994 
L 568.251591 -290.51994 
L 571.706136 -290.51994 
L 575.160682 -290.51994 
L 578.615227 -290.51994 
L 582.069773 -290.51994 
L 585.524318 -290.51994 
L 588.978864 -290.51994 
L 592.433409 -290.51994 
L 595.887955 -290.51994 
L 599.3425 -290.51994 
L 599.3425 -359.099081 
L 599.3425 -359.099081 
L 595.887955 -360.247833 
L 592.433409 -361.209798 
L 588.978864 -361.977731 
L 585.524318 -362.546106 
L 582.069773 -362.911198 
L 578.615227 -363.071136 
L 575.160682 -363.025928 
L 571.706136 -362.777452 
L 568.251591 -362.32943 
L 564.797045 -361.687364 
L 561.3425 -360.858448 
L 557.887955 -359.851459 
L 554.433409 -358.676622 
L 550.978864 -357.345458 
L 547.524318 -355.870608 
L 544.069773 -354.265657 
L 540.615227 -352.544932 
L 537.160682 -350.723309 
L 533.706136 -348.816007 
L 530.251591 -346.838387 
L 526.797045 -344.805757 
L 523.3425 -342.733182 
L 519.887955 -340.635309 
L 516.433409 -338.526202 
L 512.978864 -336.419197 
L 509.524318 -334.32677 
L 506.069773 -332.260431 
L 502.615227 -330.230635 
L 499.160682 -328.246715 
L 495.706136 -326.316835 
L 492.251591 -324.447968 
L 488.797045 -322.645893 
L 485.3425 -320.915205 
L 481.887955 -319.259357 
L 478.433409 -317.680702 
L 474.978864 -316.180564 
L 471.524318 -314.759308 
L 468.069773 -313.416435 
L 464.615227 -312.150667 
L 461.160682 -310.960057 
L 457.706136 -309.842085 
L 454.251591 -308.793765 
L 450.797045 -307.811749 
L 447.3425 -306.89243 
L 443.887955 -306.032031 
L 440.433409 -305.226705 
L 436.978864 -304.472608 
L 433.524318 -303.765981 
L 430.069773 -303.103211 
L 426.615227 -302.480888 
L 423.160682 -301.89585 
L 419.706136 -301.34522 
L 416.251591 -300.826429 
L 412.797045 -300.337235 
L 409.3425 -299.875726 
L 405.887955 -299.440322 
L 402.433409 -299.029763 
L 398.978864 -298.643092 
L 395.524318 -298.279635 
L 392.069773 -297.938971 
L 388.615227 -297.620901 
L 385.160682 -297.325412 
L 381.706136 -297.05264 
L 378.251591 -296.802834 
L 374.797045 -296.576313 
L 371.3425 -296.373429 
L 367.887955 -296.19453 
L 364.433409 -296.039924 
L 360.978864 -295.909844 
L 357.524318 -295.804419 
L 354.069773 -295.723647 
L 350.615227 -295.667367 
L 347.160682 -295.635248 
L 343.706136 -295.626765 
L 340.251591 -295.64119 
L 336.797045 -295.677589 
L 333.3425 -295.734815 
L 329.887955 -295.811511 
L 326.433409 -295.906117 
L 322.978864 -296.016882 
L 319.524318 -296.141872 
L 316.069773 -296.278995 
L 312.615227 -296.426017 
L 309.160682 -296.580588 
L 305.706136 -296.740266 
L 302.251591 -296.902552 
L 298.797045 -297.06491 
L 295.3425 -297.224809 
L 291.887955 -297.379745 
L 288.433409 -297.527281 
L 284.978864 -297.665073 
L 281.524318 -297.7909 
L 278.069773 -297.902698 
L 274.615227 -297.998577 
L 271.160682 -298.076855 
L 267.706136 -298.13607 
L 264.251591 -298.175004 
L 260.797045 -298.192689 
L 257.3425 -298.188425 
z
" style="stroke: #8da0cb; stroke-opacity: 0.42"/>
    </defs>
    <g clip-path="url(#p4ff3c777ab)">
     <use xlink:href="#m69470d8d21" x="0" y="385.5875" style="fill: #8da0cb; fill-opacity: 0.42; stroke: #8da0cb; stroke-opacity: 0.42"/>
    </g>
   </g>
   <g id="FillBetweenPolyCollection_2">
    <defs>
     <path id="m67a8c5d531" d="M 215.9425 -217.59364 
L 215.9425 -209.9075 
L 219.815227 -209.9075 
L 223.687955 -209.9075 
L 227.560682 -209.9075 
L 231.433409 -209.9075 
L 235.306136 -209.9075 
L 239.178864 -209.9075 
L 243.051591 -209.9075 
L 246.924318 -209.9075 
L 250.797045 -209.9075 
L 254.669773 -209.9075 
L 258.5425 -209.9075 
L 262.415227 -209.9075 
L 266.287955 -209.9075 
L 270.160682 -209.9075 
L 274.033409 -209.9075 
L 277.906136 -209.9075 
L 281.778864 -209.9075 
L 285.651591 -209.9075 
L 289.524318 -209.9075 
L 293.397045 -209.9075 
L 297.269773 -209.9075 
L 301.1425 -209.9075 
L 305.015227 -209.9075 
L 308.887955 -209.9075 
L 312.760682 -209.9075 
L 316.633409 -209.9075 
L 320.506136 -209.9075 
L 324.378864 -209.9075 
L 328.251591 -209.9075 
L 332.124318 -209.9075 
L 335.997045 -209.9075 
L 339.869773 -209.9075 
L 343.7425 -209.9075 
L 347.615227 -209.9075 
L 351.487955 -209.9075 
L 355.360682 -209.9075 
L 359.233409 -209.9075 
L 363.106136 -209.9075 
L 366.978864 -209.9075 
L 370.851591 -209.9075 
L 374.724318 -209.9075 
L 378.597045 -209.9075 
L 382.469773 -209.9075 
L 386.3425 -209.9075 
L 390.215227 -209.9075 
L 394.087955 -209.9075 
L 397.960682 -209.9075 
L 401.833409 -209.9075 
L 405.706136 -209.9075 
L 409.578864 -209.9075 
L 413.451591 -209.9075 
L 417.324318 -209.9075 
L 421.197045 -209.9075 
L 425.069773 -209.9075 
L 428.9425 -209.9075 
L 432.815227 -209.9075 
L 436.687955 -209.9075 
L 440.560682 -209.9075 
L 444.433409 -209.9075 
L 448.306136 -209.9075 
L 452.178864 -209.9075 
L 456.051591 -209.9075 
L 459.924318 -209.9075 
L 463.797045 -209.9075 
L 467.669773 -209.9075 
L 471.5425 -209.9075 
L 475.415227 -209.9075 
L 479.287955 -209.9075 
L 483.160682 -209.9075 
L 487.033409 -209.9075 
L 490.906136 -209.9075 
L 494.778864 -209.9075 
L 498.651591 -209.9075 
L 502.524318 -209.9075 
L 506.397045 -209.9075 
L 510.269773 -209.9075 
L 514.1425 -209.9075 
L 518.015227 -209.9075 
L 521.887955 -209.9075 
L 525.760682 -209.9075 
L 529.633409 -209.9075 
L 533.506136 -209.9075 
L 537.378864 -209.9075 
L 541.251591 -209.9075 
L 545.124318 -209.9075 
L 548.997045 -209.9075 
L 552.869773 -209.9075 
L 556.7425 -209.9075 
L 560.615227 -209.9075 
L 564.487955 -209.9075 
L 568.360682 -209.9075 
L 572.233409 -209.9075 
L 576.106136 -209.9075 
L 579.978864 -209.9075 
L 583.851591 -209.9075 
L 587.724318 -209.9075 
L 591.597045 -209.9075 
L 595.469773 -209.9075 
L 599.3425 -209.9075 
L 599.3425 -277.751837 
L 599.3425 -277.751837 
L 595.469773 -278.993079 
L 591.597045 -280.054519 
L 587.724318 -280.928576 
L 583.851591 -281.609323 
L 579.978864 -282.092567 
L 576.106136 -282.375893 
L 572.233409 -282.458696 
L 568.360682 -282.342172 
L 564.487955 -282.029287 
L 560.615227 -281.524725 
L 556.7425 -280.834796 
L 552.869773 -279.967335 
L 548.997045 -278.931574 
L 545.124318 -277.737991 
L 541.251591 -276.398153 
L 537.378864 -274.924538 
L 533.506136 -273.330355 
L 529.633409 -271.629351 
L 525.760682 -269.835627 
L 521.887955 -267.963449 
L 518.015227 -266.02706 
L 514.1425 -264.040516 
L 510.269773 -262.017513 
L 506.397045 -259.971246 
L 502.524318 -257.914272 
L 498.651591 -255.858394 
L 494.778864 -253.814568 
L 490.906136 -251.792822 
L 487.033409 -249.8022 
L 483.160682 -247.850728 
L 479.287955 -245.945387 
L 475.415227 -244.092124 
L 471.5425 -242.295861 
L 467.669773 -240.560531 
L 463.797045 -238.889127 
L 459.924318 -237.283757 
L 456.051591 -235.745714 
L 452.178864 -234.275553 
L 448.306136 -232.873171 
L 444.433409 -231.537896 
L 440.560682 -230.26857 
L 436.687955 -229.063638 
L 432.815227 -227.921229 
L 428.9425 -226.839241 
L 425.069773 -225.815412 
L 421.197045 -224.847392 
L 417.324318 -223.932803 
L 413.451591 -223.069296 
L 409.578864 -222.254594 
L 405.706136 -221.486534 
L 401.833409 -220.763095 
L 397.960682 -220.08242 
L 394.087955 -219.44283 
L 390.215227 -218.842834 
L 386.3425 -218.281125 
L 382.469773 -217.756581 
L 378.597045 -217.268249 
L 374.724318 -216.815334 
L 370.851591 -216.397182 
L 366.978864 -216.013254 
L 363.106136 -215.663109 
L 359.233409 -215.346377 
L 355.360682 -215.062732 
L 351.487955 -214.811872 
L 347.615227 -214.593487 
L 343.7425 -214.407241 
L 339.869773 -214.252746 
L 335.997045 -214.12954 
L 332.124318 -214.037069 
L 328.251591 -213.974666 
L 324.378864 -213.941541 
L 320.506136 -213.936762 
L 316.633409 -213.959249 
L 312.760682 -214.007763 
L 308.887955 -214.080903 
L 305.015227 -214.177105 
L 301.1425 -214.294639 
L 297.269773 -214.431617 
L 293.397045 -214.585998 
L 289.524318 -214.7556 
L 285.651591 -214.93811 
L 281.778864 -215.131103 
L 277.906136 -215.332059 
L 274.033409 -215.538383 
L 270.160682 -215.747431 
L 266.287955 -215.956536 
L 262.415227 -216.163032 
L 258.5425 -216.364281 
L 254.669773 -216.557709 
L 250.797045 -216.740829 
L 246.924318 -216.911271 
L 243.051591 -217.066811 
L 239.178864 -217.205401 
L 235.306136 -217.325186 
L 231.433409 -217.424535 
L 227.560682 -217.502056 
L 223.687955 -217.556612 
L 219.815227 -217.587337 
L 215.9425 -217.59364 
z
" style="stroke: #8da0cb; stroke-opacity: 0.42"/>
    </defs>
    <g clip-path="url(#p4ff3c777ab)">
     <use xlink:href="#m67a8c5d531" x="0" y="385.5875" style="fill: #8da0cb; fill-opacity: 0.42; stroke: #8da0cb; stroke-opacity: 0.42"/>
    </g>
   </g>
   <g id="FillBetweenPolyCollection_3">
    <defs>
     <path id="m446266260d" d="M 194.3425 -150.520238 
L 194.3425 -129.29506 
L 198.433409 -129.29506 
L 202.524318 -129.29506 
L 206.615227 -129.29506 
L 210.706136 -129.29506 
L 214.797045 -129.29506 
L 218.887955 -129.29506 
L 222.978864 -129.29506 
L 227.069773 -129.29506 
L 231.160682 -129.29506 
L 235.251591 -129.29506 
L 239.3425 -129.29506 
L 243.433409 -129.29506 
L 247.524318 -129.29506 
L 251.615227 -129.29506 
L 255.706136 -129.29506 
L 259.797045 -129.29506 
L 263.887955 -129.29506 
L 267.978864 -129.29506 
L 272.069773 -129.29506 
L 276.160682 -129.29506 
L 280.251591 -129.29506 
L 284.3425 -129.29506 
L 288.433409 -129.29506 
L 292.524318 -129.29506 
L 296.615227 -129.29506 
L 300.706136 -129.29506 
L 304.797045 -129.29506 
L 308.887955 -129.29506 
L 312.978864 -129.29506 
L 317.069773 -129.29506 
L 321.160682 -129.29506 
L 325.251591 -129.29506 
L 329.3425 -129.29506 
L 333.433409 -129.29506 
L 337.524318 -129.29506 
L 341.615227 -129.29506 
L 345.706136 -129.29506 
L 349.797045 -129.29506 
L 353.887955 -129.29506 
L 357.978864 -129.29506 
L 362.069773 -129.29506 
L 366.160682 -129.29506 
L 370.251591 -129.29506 
L 374.3425 -129.29506 
L 378.433409 -129.29506 
L 382.524318 -129.29506 
L 386.615227 -129.29506 
L 390.706136 -129.29506 
L 394.797045 -129.29506 
L 398.887955 -129.29506 
L 402.978864 -129.29506 
L 407.069773 -129.29506 
L 411.160682 -129.29506 
L 415.251591 -129.29506 
L 419.3425 -129.29506 
L 423.433409 -129.29506 
L 427.524318 -129.29506 
L 431.615227 -129.29506 
L 435.706136 -129.29506 
L 439.797045 -129.29506 
L 443.887955 -129.29506 
L 447.978864 -129.29506 
L 452.069773 -129.29506 
L 456.160682 -129.29506 
L 460.251591 -129.29506 
L 464.3425 -129.29506 
L 468.433409 -129.29506 
L 472.524318 -129.29506 
L 476.615227 -129.29506 
L 480.706136 -129.29506 
L 484.797045 -129.29506 
L 488.887955 -129.29506 
L 492.978864 -129.29506 
L 497.069773 -129.29506 
L 501.160682 -129.29506 
L 505.251591 -129.29506 
L 509.3425 -129.29506 
L 513.433409 -129.29506 
L 517.524318 -129.29506 
L 521.615227 -129.29506 
L 525.706136 -129.29506 
L 529.797045 -129.29506 
L 533.887955 -129.29506 
L 537.978864 -129.29506 
L 542.069773 -129.29506 
L 546.160682 -129.29506 
L 550.251591 -129.29506 
L 554.3425 -129.29506 
L 558.433409 -129.29506 
L 562.524318 -129.29506 
L 566.615227 -129.29506 
L 570.706136 -129.29506 
L 574.797045 -129.29506 
L 578.887955 -129.29506 
L 582.978864 -129.29506 
L 587.069773 -129.29506 
L 591.160682 -129.29506 
L 595.251591 -129.29506 
L 599.3425 -129.29506 
L 599.3425 -196.63471 
L 599.3425 -196.63471 
L 595.251591 -197.682749 
L 591.160682 -198.62208 
L 587.069773 -199.448126 
L 582.978864 -200.156892 
L 578.887955 -200.744998 
L 574.797045 -201.209708 
L 570.706136 -201.548956 
L 566.615227 -201.761365 
L 562.524318 -201.846256 
L 558.433409 -201.80366 
L 554.3425 -201.634314 
L 550.251591 -201.339656 
L 546.160682 -200.921817 
L 542.069773 -200.383598 
L 537.978864 -199.728452 
L 533.887955 -198.960453 
L 529.797045 -198.084264 
L 525.706136 -197.105098 
L 521.615227 -196.028681 
L 517.524318 -194.861198 
L 513.433409 -193.609253 
L 509.3425 -192.279816 
L 505.251591 -190.880166 
L 501.160682 -189.417845 
L 497.069773 -187.900593 
L 492.978864 -186.336302 
L 488.887955 -184.732955 
L 484.797045 -183.098571 
L 480.706136 -181.441156 
L 476.615227 -179.768649 
L 472.524318 -178.088871 
L 468.433409 -176.409479 
L 464.3425 -174.737918 
L 460.251591 -173.081387 
L 456.160682 -171.446789 
L 452.069773 -169.840704 
L 447.978864 -168.269356 
L 443.887955 -166.73858 
L 439.797045 -165.253801 
L 435.706136 -163.820012 
L 431.615227 -162.441755 
L 427.524318 -161.12311 
L 423.433409 -159.867681 
L 419.3425 -158.678591 
L 415.251591 -157.558477 
L 411.160682 -156.50949 
L 407.069773 -155.533298 
L 402.978864 -154.631088 
L 398.887955 -153.803577 
L 394.797045 -153.051021 
L 390.706136 -152.373229 
L 386.615227 -151.769573 
L 382.524318 -151.239013 
L 378.433409 -150.780107 
L 374.3425 -150.391035 
L 370.251591 -150.069624 
L 366.160682 -149.813364 
L 362.069773 -149.619438 
L 357.978864 -149.484746 
L 353.887955 -149.405928 
L 349.797045 -149.379396 
L 345.706136 -149.401358 
L 341.615227 -149.467846 
L 337.524318 -149.574748 
L 333.433409 -149.717833 
L 329.3425 -149.892779 
L 325.251591 -150.095207 
L 321.160682 -150.320701 
L 317.069773 -150.564845 
L 312.978864 -150.823244 
L 308.887955 -151.091553 
L 304.797045 -151.365502 
L 300.706136 -151.640925 
L 296.615227 -151.913777 
L 292.524318 -152.180163 
L 288.433409 -152.436356 
L 284.3425 -152.678818 
L 280.251591 -152.904219 
L 276.160682 -153.109449 
L 272.069773 -153.291639 
L 267.978864 -153.448171 
L 263.887955 -153.576687 
L 259.797045 -153.675098 
L 255.706136 -153.741595 
L 251.615227 -153.774647 
L 247.524318 -153.773008 
L 243.433409 -153.735715 
L 239.3425 -153.662087 
L 235.251591 -153.551721 
L 231.160682 -153.404484 
L 227.069773 -153.22051 
L 222.978864 -153.000186 
L 218.887955 -152.744142 
L 214.797045 -152.453239 
L 210.706136 -152.128555 
L 206.615227 -151.771368 
L 202.524318 -151.38314 
L 198.433409 -150.965504 
L 194.3425 -150.520238 
z
" style="stroke: #8da0cb; stroke-opacity: 0.42"/>
    </defs>
    <g clip-path="url(#p4ff3c777ab)">
     <use xlink:href="#m446266260d" x="0" y="385.5875" style="fill: #8da0cb; fill-opacity: 0.42; stroke: #8da0cb; stroke-opacity: 0.42"/>
    </g>
   </g>
   <g id="matplotlib.axis_1">
    <g id="xtick_1">
     <g id="line2d_1">
      <path d="M 167.3425 344.16 
L 167.3425 7.2 
" clip-path="url(#p4ff3c777ab)" style="fill: none; stroke: #b0b0b0; stroke-opacity: 0.3; stroke-width: 0.8; stroke-linecap: square"/>
     </g>
     <g id="line2d_2">
      <defs>
       <path id="mcd3b028a1a" d="M 0 0 
L 0 3.5 
" style="stroke: #000000; stroke-width: 0.8"/>
      </defs>
      <g>
       <use xlink:href="#mcd3b028a1a" x="167.3425" y="344.16" style="stroke: #000000; stroke-width: 0.8"/>
      </g>
     </g>
     <g id="text_1">
      <!-- 1.0 -->
      <g transform="translate(157.800625 360.278125) scale(0.12 -0.12)">
       <defs>
        <path id="DejaVuSans-31" d="M 794 531 
L 1825 531 
L 1825 4091 
L 703 3866 
L 703 4441 
L 1819 4666 
L 2450 4666 
L 2450 531 
L 3481 531 
L 3481 0 
L 794 0 
L 794 531 
z
" transform="scale(0.015625)"/>
        <path id="DejaVuSans-2e" d="M 684 794 
L 1344 794 
L 1344 0 
L 684 0 
L 684 794 
z
" transform="scale(0.015625)"/>
        <path id="DejaVuSans-30" d="M 2034 4250 
Q 1547 4250 1301 3770 
Q 1056 3291 1056 2328 
Q 1056 1369 1301 889 
Q 1547 409 2034 409 
Q 2525 409 2770 889 
Q 3016 1369 3016 2328 
Q 3016 3291 2770 3770 
Q 2525 4250 2034 4250 
z
M 2034 4750 
Q 2819 4750 3233 4129 
Q 3647 3509 3647 2328 
Q 3647 1150 3233 529 
Q 2819 -91 2034 -91 
Q 1250 -91 836 529 
Q 422 1150 422 2328 
Q 422 3509 836 4129 
Q 1250 4750 2034 4750 
z
" transform="scale(0.015625)"/>
       </defs>
       <use xlink:href="#DejaVuSans-31"/>
       <use xlink:href="#DejaVuSans-2e" transform="translate(63.623047 0)"/>
       <use xlink:href="#DejaVuSans-30" transform="translate(95.410156 0)"/>
      </g>
     </g>
    </g>
    <g id="xtick_2">
     <g id="line2d_3">
      <path d="M 221.3425 344.16 
L 221.3425 7.2 
" clip-path="url(#p4ff3c777ab)" style="fill: none; stroke: #b0b0b0; stroke-opacity: 0.3; stroke-width: 0.8; stroke-linecap: square"/>
     </g>
     <g id="line2d_4">
      <g>
       <use xlink:href="#mcd3b028a1a" x="221.3425" y="344.16" style="stroke: #000000; stroke-width: 0.8"/>
      </g>
     </g>
     <g id="text_2">
      <!-- 1.5 -->
      <g transform="translate(211.800625 360.278125) scale(0.12 -0.12)">
       <defs>
        <path id="DejaVuSans-35" d="M 691 4666 
L 3169 4666 
L 3169 4134 
L 1269 4134 
L 1269 2991 
Q 1406 3038 1543 3061 
Q 1681 3084 1819 3084 
Q 2600 3084 3056 2656 
Q 3513 2228 3513 1497 
Q 3513 744 3044 326 
Q 2575 -91 1722 -91 
Q 1428 -91 1123 -41 
Q 819 9 494 109 
L 494 744 
Q 775 591 1075 516 
Q 1375 441 1709 441 
Q 2250 441 2565 725 
Q 2881 1009 2881 1497 
Q 2881 1984 2565 2268 
Q 2250 2553 1709 2553 
Q 1456 2553 1204 2497 
Q 953 2441 691 2322 
L 691 4666 
z
" transform="scale(0.015625)"/>
       </defs>
       <use xlink:href="#DejaVuSans-31"/>
       <use xlink:href="#DejaVuSans-2e" transform="translate(63.623047 0)"/>
       <use xlink:href="#DejaVuSans-35" transform="translate(95.410156 0)"/>
      </g>
     </g>
    </g>
    <g id="xtick_3">
     <g id="line2d_5">
      <path d="M 275.3425 344.16 
L 275.3425 7.2 
" clip-path="url(#p4ff3c777ab)" style="fill: none; stroke: #b0b0b0; stroke-opacity: 0.3; stroke-width: 0.8; stroke-linecap: square"/>
     </g>
     <g id="line2d_6">
      <g>
       <use xlink:href="#mcd3b028a1a" x="275.3425" y="344.16" style="stroke: #000000; stroke-width: 0.8"/>
      </g>
     </g>
     <g id="text_3">
      <!-- 2.0 -->
      <g transform="translate(265.800625 360.278125) scale(0.12 -0.12)">
       <defs>
        <path id="DejaVuSans-32" d="M 1228 531 
L 3431 531 
L 3431 0 
L 469 0 
L 469 531 
Q 828 903 1448 1529 
Q 2069 2156 2228 2338 
Q 2531 2678 2651 2914 
Q 2772 3150 2772 3378 
Q 2772 3750 2511 3984 
Q 2250 4219 1831 4219 
Q 1534 4219 1204 4116 
Q 875 4013 500 3803 
L 500 4441 
Q 881 4594 1212 4672 
Q 1544 4750 1819 4750 
Q 2544 4750 2975 4387 
Q 3406 4025 3406 3419 
Q 3406 3131 3298 2873 
Q 3191 2616 2906 2266 
Q 2828 2175 2409 1742 
Q 1991 1309 1228 531 
z
" transform="scale(0.015625)"/>
       </defs>
       <use xlink:href="#DejaVuSans-32"/>
       <use xlink:href="#DejaVuSans-2e" transform="translate(63.623047 0)"/>
       <use xlink:href="#DejaVuSans-30" transform="translate(95.410156 0)"/>
      </g>
     </g>
    </g>
    <g id="xtick_4">
     <g id="line2d_7">
      <path d="M 329.3425 344.16 
L 329.3425 7.2 
" clip-path="url(#p4ff3c777ab)" style="fill: none; stroke: #b0b0b0; stroke-opacity: 0.3; stroke-width: 0.8; stroke-linecap: square"/>
     </g>
     <g id="line2d_8">
      <g>
       <use xlink:href="#mcd3b028a1a" x="329.3425" y="344.16" style="stroke: #000000; stroke-width: 0.8"/>
      </g>
     </g>
     <g id="text_4">
      <!-- 2.5 -->
      <g transform="translate(319.800625 360.278125) scale(0.12 -0.12)">
       <use xlink:href="#DejaVuSans-32"/>
       <use xlink:href="#DejaVuSans-2e" transform="translate(63.623047 0)"/>
       <use xlink:href="#DejaVuSans-35" transform="translate(95.410156 0)"/>
      </g>
     </g>
    </g>
    <g id="xtick_5">
     <g id="line2d_9">
      <path d="M 383.3425 344.16 
L 383.3425 7.2 
" clip-path="url(#p4ff3c777ab)" style="fill: none; stroke: #b0b0b0; stroke-opacity: 0.3; stroke-width: 0.8; stroke-linecap: square"/>
     </g>
     <g id="line2d_10">
      <g>
       <use xlink:href="#mcd3b028a1a" x="383.3425" y="344.16" style="stroke: #000000; stroke-width: 0.8"/>
      </g>
     </g>
     <g id="text_5">
      <!-- 3.0 -->
      <g transform="translate(373.800625 360.278125) scale(0.12 -0.12)">
       <defs>
        <path id="DejaVuSans-33" d="M 2597 2516 
Q 3050 2419 3304 2112 
Q 3559 1806 3559 1356 
Q 3559 666 3084 287 
Q 2609 -91 1734 -91 
Q 1441 -91 1130 -33 
Q 819 25 488 141 
L 488 750 
Q 750 597 1062 519 
Q 1375 441 1716 441 
Q 2309 441 2620 675 
Q 2931 909 2931 1356 
Q 2931 1769 2642 2001 
Q 2353 2234 1838 2234 
L 1294 2234 
L 1294 2753 
L 1863 2753 
Q 2328 2753 2575 2939 
Q 2822 3125 2822 3475 
Q 2822 3834 2567 4026 
Q 2313 4219 1838 4219 
Q 1578 4219 1281 4162 
Q 984 4106 628 3988 
L 628 4550 
Q 988 4650 1302 4700 
Q 1616 4750 1894 4750 
Q 2613 4750 3031 4423 
Q 3450 4097 3450 3541 
Q 3450 3153 3228 2886 
Q 3006 2619 2597 2516 
z
" transform="scale(0.015625)"/>
       </defs>
       <use xlink:href="#DejaVuSans-33"/>
       <use xlink:href="#DejaVuSans-2e" transform="translate(63.623047 0)"/>
       <use xlink:href="#DejaVuSans-30" transform="translate(95.410156 0)"/>
      </g>
     </g>
    </g>
    <g id="xtick_6">
     <g id="line2d_11">
      <path d="M 437.3425 344.16 
L 437.3425 7.2 
" clip-path="url(#p4ff3c777ab)" style="fill: none; stroke: #b0b0b0; stroke-opacity: 0.3; stroke-width: 0.8; stroke-linecap: square"/>
     </g>
     <g id="line2d_12">
      <g>
       <use xlink:href="#mcd3b028a1a" x="437.3425" y="344.16" style="stroke: #000000; stroke-width: 0.8"/>
      </g>
     </g>
     <g id="text_6">
      <!-- 3.5 -->
      <g transform="translate(427.800625 360.278125) scale(0.12 -0.12)">
       <use xlink:href="#DejaVuSans-33"/>
       <use xlink:href="#DejaVuSans-2e" transform="translate(63.623047 0)"/>
       <use xlink:href="#DejaVuSans-35" transform="translate(95.410156 0)"/>
      </g>
     </g>
    </g>
    <g id="xtick_7">
     <g id="line2d_13">
      <path d="M 491.3425 344.16 
L 491.3425 7.2 
" clip-path="url(#p4ff3c777ab)" style="fill: none; stroke: #b0b0b0; stroke-opacity: 0.3; stroke-width: 0.8; stroke-linecap: square"/>
     </g>
     <g id="line2d_14">
      <g>
       <use xlink:href="#mcd3b028a1a" x="491.3425" y="344.16" style="stroke: #000000; stroke-width: 0.8"/>
      </g>
     </g>
     <g id="text_7">
      <!-- 4.0 -->
      <g transform="translate(481.800625 360.278125) scale(0.12 -0.12)">
       <defs>
        <path id="DejaVuSans-34" d="M 2419 4116 
L 825 1625 
L 2419 1625 
L 2419 4116 
z
M 2253 4666 
L 3047 4666 
L 3047 1625 
L 3713 1625 
L 3713 1100 
L 3047 1100 
L 3047 0 
L 2419 0 
L 2419 1100 
L 313 1100 
L 313 1709 
L 2253 4666 
z
" transform="scale(0.015625)"/>
       </defs>
       <use xlink:href="#DejaVuSans-34"/>
       <use xlink:href="#DejaVuSans-2e" transform="translate(63.623047 0)"/>
       <use xlink:href="#DejaVuSans-30" transform="translate(95.410156 0)"/>
      </g>
     </g>
    </g>
    <g id="xtick_8">
     <g id="line2d_15">
      <path d="M 545.3425 344.16 
L 545.3425 7.2 
" clip-path="url(#p4ff3c777ab)" style="fill: none; stroke: #b0b0b0; stroke-opacity: 0.3; stroke-width: 0.8; stroke-linecap: square"/>
     </g>
     <g id="line2d_16">
      <g>
       <use xlink:href="#mcd3b028a1a" x="545.3425" y="344.16" style="stroke: #000000; stroke-width: 0.8"/>
      </g>
     </g>
     <g id="text_8">
      <!-- 4.5 -->
      <g transform="translate(535.800625 360.278125) scale(0.12 -0.12)">
       <use xlink:href="#DejaVuSans-34"/>
       <use xlink:href="#DejaVuSans-2e" transform="translate(63.623047 0)"/>
       <use xlink:href="#DejaVuSans-35" transform="translate(95.410156 0)"/>
      </g>
     </g>
    </g>
    <g id="xtick_9">
     <g id="line2d_17">
      <path d="M 599.3425 344.16 
L 599.3425 7.2 
" clip-path="url(#p4ff3c777ab)" style="fill: none; stroke: #b0b0b0; stroke-opacity: 0.3; stroke-width: 0.8; stroke-linecap: square"/>
     </g>
     <g id="line2d_18">
      <g>
       <use xlink:href="#mcd3b028a1a" x="599.3425" y="344.16" style="stroke: #000000; stroke-width: 0.8"/>
      </g>
     </g>
     <g id="text_9">
      <!-- 5.0 -->
      <g transform="translate(589.800625 360.278125) scale(0.12 -0.12)">
       <use xlink:href="#DejaVuSans-35"/>
       <use xlink:href="#DejaVuSans-2e" transform="translate(63.623047 0)"/>
       <use xlink:href="#DejaVuSans-30" transform="translate(95.410156 0)"/>
      </g>
     </g>
    </g>
    <g id="text_10">
     <!-- Score -->
     <g transform="translate(366.539687 375.891875) scale(0.12 -0.12)">
      <defs>
       <path id="DejaVuSans-53" d="M 3425 4513 
L 3425 3897 
Q 3066 4069 2747 4153 
Q 2428 4238 2131 4238 
Q 1616 4238 1336 4038 
Q 1056 3838 1056 3469 
Q 1056 3159 1242 3001 
Q 1428 2844 1947 2747 
L 2328 2669 
Q 3034 2534 3370 2195 
Q 3706 1856 3706 1288 
Q 3706 609 3251 259 
Q 2797 -91 1919 -91 
Q 1588 -91 1214 -16 
Q 841 59 441 206 
L 441 856 
Q 825 641 1194 531 
Q 1563 422 1919 422 
Q 2459 422 2753 634 
Q 3047 847 3047 1241 
Q 3047 1584 2836 1778 
Q 2625 1972 2144 2069 
L 1759 2144 
Q 1053 2284 737 2584 
Q 422 2884 422 3419 
Q 422 4038 858 4394 
Q 1294 4750 2059 4750 
Q 2388 4750 2728 4690 
Q 3069 4631 3425 4513 
z
" transform="scale(0.015625)"/>
       <path id="DejaVuSans-63" d="M 3122 3366 
L 3122 2828 
Q 2878 2963 2633 3030 
Q 2388 3097 2138 3097 
Q 1578 3097 1268 2742 
Q 959 2388 959 1747 
Q 959 1106 1268 751 
Q 1578 397 2138 397 
Q 2388 397 2633 464 
Q 2878 531 3122 666 
L 3122 134 
Q 2881 22 2623 -34 
Q 2366 -91 2075 -91 
Q 1284 -91 818 406 
Q 353 903 353 1747 
Q 353 2603 823 3093 
Q 1294 3584 2113 3584 
Q 2378 3584 2631 3529 
Q 2884 3475 3122 3366 
z
" transform="scale(0.015625)"/>
       <path id="DejaVuSans-6f" d="M 1959 3097 
Q 1497 3097 1228 2736 
Q 959 2375 959 1747 
Q 959 1119 1226 758 
Q 1494 397 1959 397 
Q 2419 397 2687 759 
Q 2956 1122 2956 1747 
Q 2956 2369 2687 2733 
Q 2419 3097 1959 3097 
z
M 1959 3584 
Q 2709 3584 3137 3096 
Q 3566 2609 3566 1747 
Q 3566 888 3137 398 
Q 2709 -91 1959 -91 
Q 1206 -91 779 398 
Q 353 888 353 1747 
Q 353 2609 779 3096 
Q 1206 3584 1959 3584 
z
" transform="scale(0.015625)"/>
       <path id="DejaVuSans-72" d="M 2631 2963 
Q 2534 3019 2420 3045 
Q 2306 3072 2169 3072 
Q 1681 3072 1420 2755 
Q 1159 2438 1159 1844 
L 1159 0 
L 581 0 
L 581 3500 
L 1159 3500 
L 1159 2956 
Q 1341 3275 1631 3429 
Q 1922 3584 2338 3584 
Q 2397 3584 2469 3576 
Q 2541 3569 2628 3553 
L 2631 2963 
z
" transform="scale(0.015625)"/>
       <path id="DejaVuSans-65" d="M 3597 1894 
L 3597 1613 
L 953 1613 
Q 991 1019 1311 708 
Q 1631 397 2203 397 
Q 2534 397 2845 478 
Q 3156 559 3463 722 
L 3463 178 
Q 3153 47 2828 -22 
Q 2503 -91 2169 -91 
Q 1331 -91 842 396 
Q 353 884 353 1716 
Q 353 2575 817 3079 
Q 1281 3584 2069 3584 
Q 2775 3584 3186 3129 
Q 3597 2675 3597 1894 
z
M 3022 2063 
Q 3016 2534 2758 2815 
Q 2500 3097 2075 3097 
Q 1594 3097 1305 2825 
Q 1016 2553 972 2059 
L 3022 2063 
z
" transform="scale(0.015625)"/>
      </defs>
      <use xlink:href="#DejaVuSans-53"/>
      <use xlink:href="#DejaVuSans-63" transform="translate(63.476562 0)"/>
      <use xlink:href="#DejaVuSans-6f" transform="translate(118.457031 0)"/>
      <use xlink:href="#DejaVuSans-72" transform="translate(179.638672 0)"/>
      <use xlink:href="#DejaVuSans-65" transform="translate(218.501953 0)"/>
     </g>
    </g>
   </g>
   <g id="matplotlib.axis_2">
    <g id="ytick_1">
     <g id="line2d_19">
      <defs>
       <path id="m233907390e" d="M 0 0 
L -3.5 0 
" style="stroke: #000000; stroke-width: 0.8"/>
      </defs>
      <g>
       <use xlink:href="#m233907390e" x="167.3425" y="95.06756" style="stroke: #000000; stroke-width: 0.8"/>
      </g>
     </g>
     <g id="text_11">
      <!-- Gemini-3 Pro (Temp 1.0) -->
      <g transform="translate(14.835 99.626622) scale(0.12 -0.12)">
       <defs>
        <path id="DejaVuSans-47" d="M 3809 666 
L 3809 1919 
L 2778 1919 
L 2778 2438 
L 4434 2438 
L 4434 434 
Q 4069 175 3628 42 
Q 3188 -91 2688 -91 
Q 1594 -91 976 548 
Q 359 1188 359 2328 
Q 359 3472 976 4111 
Q 1594 4750 2688 4750 
Q 3144 4750 3555 4637 
Q 3966 4525 4313 4306 
L 4313 3634 
Q 3963 3931 3569 4081 
Q 3175 4231 2741 4231 
Q 1884 4231 1454 3753 
Q 1025 3275 1025 2328 
Q 1025 1384 1454 906 
Q 1884 428 2741 428 
Q 3075 428 3337 486 
Q 3600 544 3809 666 
z
" transform="scale(0.015625)"/>
        <path id="DejaVuSans-6d" d="M 3328 2828 
Q 3544 3216 3844 3400 
Q 4144 3584 4550 3584 
Q 5097 3584 5394 3201 
Q 5691 2819 5691 2113 
L 5691 0 
L 5113 0 
L 5113 2094 
Q 5113 2597 4934 2840 
Q 4756 3084 4391 3084 
Q 3944 3084 3684 2787 
Q 3425 2491 3425 1978 
L 3425 0 
L 2847 0 
L 2847 2094 
Q 2847 2600 2669 2842 
Q 2491 3084 2119 3084 
Q 1678 3084 1418 2786 
Q 1159 2488 1159 1978 
L 1159 0 
L 581 0 
L 581 3500 
L 1159 3500 
L 1159 2956 
Q 1356 3278 1631 3431 
Q 1906 3584 2284 3584 
Q 2666 3584 2933 3390 
Q 3200 3197 3328 2828 
z
" transform="scale(0.015625)"/>
        <path id="DejaVuSans-69" d="M 603 3500 
L 1178 3500 
L 1178 0 
L 603 0 
L 603 3500 
z
M 603 4863 
L 1178 4863 
L 1178 4134 
L 603 4134 
L 603 4863 
z
" transform="scale(0.015625)"/>
        <path id="DejaVuSans-6e" d="M 3513 2113 
L 3513 0 
L 2938 0 
L 2938 2094 
Q 2938 2591 2744 2837 
Q 2550 3084 2163 3084 
Q 1697 3084 1428 2787 
Q 1159 2491 1159 1978 
L 1159 0 
L 581 0 
L 581 3500 
L 1159 3500 
L 1159 2956 
Q 1366 3272 1645 3428 
Q 1925 3584 2291 3584 
Q 2894 3584 3203 3211 
Q 3513 2838 3513 2113 
z
" transform="scale(0.015625)"/>
        <path id="DejaVuSans-2d" d="M 313 2009 
L 1997 2009 
L 1997 1497 
L 313 1497 
L 313 2009 
z
" transform="scale(0.015625)"/>
        <path id="DejaVuSans-20" transform="scale(0.015625)"/>
        <path id="DejaVuSans-50" d="M 1259 4147 
L 1259 2394 
L 2053 2394 
Q 2494 2394 2734 2622 
Q 2975 2850 2975 3272 
Q 2975 3691 2734 3919 
Q 2494 4147 2053 4147 
L 1259 4147 
z
M 628 4666 
L 2053 4666 
Q 2838 4666 3239 4311 
Q 3641 3956 3641 3272 
Q 3641 2581 3239 2228 
Q 2838 1875 2053 1875 
L 1259 1875 
L 1259 0 
L 628 0 
L 628 4666 
z
" transform="scale(0.015625)"/>
        <path id="DejaVuSans-28" d="M 1984 4856 
Q 1566 4138 1362 3434 
Q 1159 2731 1159 2009 
Q 1159 1288 1364 580 
Q 1569 -128 1984 -844 
L 1484 -844 
Q 1016 -109 783 600 
Q 550 1309 550 2009 
Q 550 2706 781 3412 
Q 1013 4119 1484 4856 
L 1984 4856 
z
" transform="scale(0.015625)"/>
        <path id="DejaVuSans-54" d="M -19 4666 
L 3928 4666 
L 3928 4134 
L 2272 4134 
L 2272 0 
L 1638 0 
L 1638 4134 
L -19 4134 
L -19 4666 
z
" transform="scale(0.015625)"/>
        <path id="DejaVuSans-70" d="M 1159 525 
L 1159 -1331 
L 581 -1331 
L 581 3500 
L 1159 3500 
L 1159 2969 
Q 1341 3281 1617 3432 
Q 1894 3584 2278 3584 
Q 2916 3584 3314 3078 
Q 3713 2572 3713 1747 
Q 3713 922 3314 415 
Q 2916 -91 2278 -91 
Q 1894 -91 1617 61 
Q 1341 213 1159 525 
z
M 3116 1747 
Q 3116 2381 2855 2742 
Q 2594 3103 2138 3103 
Q 1681 3103 1420 2742 
Q 1159 2381 1159 1747 
Q 1159 1113 1420 752 
Q 1681 391 2138 391 
Q 2594 391 2855 752 
Q 3116 1113 3116 1747 
z
" transform="scale(0.015625)"/>
        <path id="DejaVuSans-29" d="M 513 4856 
L 1013 4856 
Q 1481 4119 1714 3412 
Q 1947 2706 1947 2009 
Q 1947 1309 1714 600 
Q 1481 -109 1013 -844 
L 513 -844 
Q 928 -128 1133 580 
Q 1338 1288 1338 2009 
Q 1338 2731 1133 3434 
Q 928 4138 513 4856 
z
" transform="scale(0.015625)"/>
       </defs>
       <use xlink:href="#DejaVuSans-47"/>
       <use xlink:href="#DejaVuSans-65" transform="translate(77.490234 0)"/>
       <use xlink:href="#DejaVuSans-6d" transform="translate(139.013672 0)"/>
       <use xlink:href="#DejaVuSans-69" transform="translate(236.425781 0)"/>
       <use xlink:href="#DejaVuSans-6e" transform="translate(264.208984 0)"/>
       <use xlink:href="#DejaVuSans-69" transform="translate(327.587891 0)"/>
       <use xlink:href="#DejaVuSans-2d" transform="translate(355.371094 0)"/>
       <use xlink:href="#DejaVuSans-33" transform="translate(391.455078 0)"/>
       <use xlink:href="#DejaVuSans-20" transform="translate(455.078125 0)"/>
       <use xlink:href="#DejaVuSans-50" transform="translate(486.865234 0)"/>
       <use xlink:href="#DejaVuSans-72" transform="translate(545.417969 0)"/>
       <use xlink:href="#DejaVuSans-6f" transform="translate(584.28125 0)"/>
       <use xlink:href="#DejaVuSans-20" transform="translate(645.462891 0)"/>
       <use xlink:href="#DejaVuSans-28" transform="translate(677.25 0)"/>
       <use xlink:href="#DejaVuSans-54" transform="translate(716.263672 0)"/>
       <use xlink:href="#DejaVuSans-65" transform="translate(760.347656 0)"/>
       <use xlink:href="#DejaVuSans-6d" transform="translate(821.871094 0)"/>
       <use xlink:href="#DejaVuSans-70" transform="translate(919.283203 0)"/>
       <use xlink:href="#DejaVuSans-20" transform="translate(982.759766 0)"/>
       <use xlink:href="#DejaVuSans-31" transform="translate(1014.546875 0)"/>
       <use xlink:href="#DejaVuSans-2e" transform="translate(1078.169922 0)"/>
       <use xlink:href="#DejaVuSans-30" transform="translate(1109.957031 0)"/>
       <use xlink:href="#DejaVuSans-29" transform="translate(1173.580078 0)"/>
      </g>
     </g>
    </g>
    <g id="ytick_2">
     <g id="line2d_20">
      <g>
       <use xlink:href="#m233907390e" x="167.3425" y="175.68" style="stroke: #000000; stroke-width: 0.8"/>
      </g>
     </g>
     <g id="text_12">
      <!-- Gemini-3 Pro (Temp 0.1) -->
      <g transform="translate(14.835 180.239063) scale(0.12 -0.12)">
       <use xlink:href="#DejaVuSans-47"/>
       <use xlink:href="#DejaVuSans-65" transform="translate(77.490234 0)"/>
       <use xlink:href="#DejaVuSans-6d" transform="translate(139.013672 0)"/>
       <use xlink:href="#DejaVuSans-69" transform="translate(236.425781 0)"/>
       <use xlink:href="#DejaVuSans-6e" transform="translate(264.208984 0)"/>
       <use xlink:href="#DejaVuSans-69" transform="translate(327.587891 0)"/>
       <use xlink:href="#DejaVuSans-2d" transform="translate(355.371094 0)"/>
       <use xlink:href="#DejaVuSans-33" transform="translate(391.455078 0)"/>
       <use xlink:href="#DejaVuSans-20" transform="translate(455.078125 0)"/>
       <use xlink:href="#DejaVuSans-50" transform="translate(486.865234 0)"/>
       <use xlink:href="#DejaVuSans-72" transform="translate(545.417969 0)"/>
       <use xlink:href="#DejaVuSans-6f" transform="translate(584.28125 0)"/>
       <use xlink:href="#DejaVuSans-20" transform="translate(645.462891 0)"/>
       <use xlink:href="#DejaVuSans-28" transform="translate(677.25 0)"/>
       <use xlink:href="#DejaVuSans-54" transform="translate(716.263672 0)"/>
       <use xlink:href="#DejaVuSans-65" transform="translate(760.347656 0)"/>
       <use xlink:href="#DejaVuSans-6d" transform="translate(821.871094 0)"/>
       <use xlink:href="#DejaVuSans-70" transform="translate(919.283203 0)"/>
       <use xlink:href="#DejaVuSans-20" transform="translate(982.759766 0)"/>
       <use xlink:href="#DejaVuSans-30" transform="translate(1014.546875 0)"/>
       <use xlink:href="#DejaVuSans-2e" transform="translate(1078.169922 0)"/>
       <use xlink:href="#DejaVuSans-31" transform="translate(1109.957031 0)"/>
       <use xlink:href="#DejaVuSans-29" transform="translate(1173.580078 0)"/>
      </g>
     </g>
    </g>
    <g id="ytick_3">
     <g id="line2d_21">
      <g>
       <use xlink:href="#m233907390e" x="167.3425" y="256.29244" style="stroke: #000000; stroke-width: 0.8"/>
      </g>
     </g>
     <g id="text_13">
      <!-- Gemini-3 Pro (Temp 0.55) -->
      <g transform="translate(7.2 260.851503) scale(0.12 -0.12)">
       <use xlink:href="#DejaVuSans-47"/>
       <use xlink:href="#DejaVuSans-65" transform="translate(77.490234 0)"/>
       <use xlink:href="#DejaVuSans-6d" transform="translate(139.013672 0)"/>
       <use xlink:href="#DejaVuSans-69" transform="translate(236.425781 0)"/>
       <use xlink:href="#DejaVuSans-6e" transform="translate(264.208984 0)"/>
       <use xlink:href="#DejaVuSans-69" transform="translate(327.587891 0)"/>
       <use xlink:href="#DejaVuSans-2d" transform="translate(355.371094 0)"/>
       <use xlink:href="#DejaVuSans-33" transform="translate(391.455078 0)"/>
       <use xlink:href="#DejaVuSans-20" transform="translate(455.078125 0)"/>
       <use xlink:href="#DejaVuSans-50" transform="translate(486.865234 0)"/>
       <use xlink:href="#DejaVuSans-72" transform="translate(545.417969 0)"/>
       <use xlink:href="#DejaVuSans-6f" transform="translate(584.28125 0)"/>
       <use xlink:href="#DejaVuSans-20" transform="translate(645.462891 0)"/>
       <use xlink:href="#DejaVuSans-28" transform="translate(677.25 0)"/>
       <use xlink:href="#DejaVuSans-54" transform="translate(716.263672 0)"/>
       <use xlink:href="#DejaVuSans-65" transform="translate(760.347656 0)"/>
       <use xlink:href="#DejaVuSans-6d" transform="translate(821.871094 0)"/>
       <use xlink:href="#DejaVuSans-70" transform="translate(919.283203 0)"/>
       <use xlink:href="#DejaVuSans-20" transform="translate(982.759766 0)"/>
       <use xlink:href="#DejaVuSans-30" transform="translate(1014.546875 0)"/>
       <use xlink:href="#DejaVuSans-2e" transform="translate(1078.169922 0)"/>
       <use xlink:href="#DejaVuSans-35" transform="translate(1109.957031 0)"/>
       <use xlink:href="#DejaVuSans-35" transform="translate(1173.580078 0)"/>
       <use xlink:href="#DejaVuSans-29" transform="translate(1237.203125 0)"/>
      </g>
     </g>
    </g>
   </g>
   <g id="line2d_22">
    <path d="M 551.1925 95.06756 
L 590.3425 95.06756 
" clip-path="url(#p4ff3c777ab)" style="fill: none; stroke: #3556a0; stroke-width: 1.2; stroke-linecap: square"/>
    <defs>
     <path id="m3546102d72" d="M 0 4.5 
L 0 -4.5 
" style="stroke: #3556a0; stroke-width: 1.2"/>
    </defs>
    <g clip-path="url(#p4ff3c777ab)">
     <use xlink:href="#m3546102d72" x="551.1925" y="95.06756" style="fill: #3556a0; stroke: #3556a0; stroke-width: 1.2"/>
     <use xlink:href="#m3546102d72" x="590.3425" y="95.06756" style="fill: #3556a0; stroke: #3556a0; stroke-width: 1.2"/>
    </g>
   </g>
   <g id="line2d_23">
    <path d="M 534.0925 175.68 
L 590.3425 175.68 
" clip-path="url(#p4ff3c777ab)" style="fill: none; stroke: #3556a0; stroke-width: 1.2; stroke-linecap: square"/>
    <g clip-path="url(#p4ff3c777ab)">
     <use xlink:href="#m3546102d72" x="534.0925" y="175.68" style="fill: #3556a0; stroke: #3556a0; stroke-width: 1.2"/>
     <use xlink:href="#m3546102d72" x="590.3425" y="175.68" style="fill: #3556a0; stroke: #3556a0; stroke-width: 1.2"/>
    </g>
   </g>
   <g id="line2d_24">
    <path d="M 437.3425 256.29244 
L 590.3425 256.29244 
" clip-path="url(#p4ff3c777ab)" style="fill: none; stroke: #3556a0; stroke-width: 1.2; stroke-linecap: square"/>
    <g clip-path="url(#p4ff3c777ab)">
     <use xlink:href="#m3546102d72" x="437.3425" y="256.29244" style="fill: #3556a0; stroke: #3556a0; stroke-width: 1.2"/>
     <use xlink:href="#m3546102d72" x="590.3425" y="256.29244" style="fill: #3556a0; stroke: #3556a0; stroke-width: 1.2"/>
    </g>
   </g>
   <g id="patch_3">
    <path d="M 167.3425 344.16 
L 167.3425 7.2 
" style="fill: none; stroke: #000000; stroke-width: 0.8; stroke-linejoin: miter; stroke-linecap: square"/>
   </g>
   <g id="patch_4">
    <path d="M 599.3425 344.16 
L 599.3425 7.2 
" style="fill: none; stroke: #000000; stroke-width: 0.8; stroke-linejoin: miter; stroke-linecap: square"/>
   </g>
   <g id="patch_5">
    <path d="M 167.3425 344.16 
L 599.3425 344.16 
" style="fill: none; stroke: #000000; stroke-width: 0.8; stroke-linejoin: miter; stroke-linecap: square"/>
   </g>
   <g id="patch_6">
    <path d="M 167.3425 7.2 
L 599.3425 7.2 
" style="fill: none; stroke: #000000; stroke-width: 0.8; stroke-linejoin: miter; stroke-linecap: square"/>
   </g>
   <g id="PathCollection_1">
    <defs>
     <path id="m0fbfe6cc09" d="M 0 2.645751 
C 0.701661 2.645751 1.374679 2.366978 1.870829 1.870829 
C 2.366978 1.374679 2.645751 0.701661 2.645751 0 
C 2.645751 -0.701661 2.366978 -1.374679 1.870829 -1.870829 
C 1.374679 -2.366978 0.701661 -2.645751 0 -2.645751 
C -0.701661 -2.645751 -1.374679 -2.366978 -1.870829 -1.870829 
C -2.366978 -1.374679 -2.645751 -0.701661 -2.645751 0 
C -2.645751 0.701661 -2.366978 1.374679 -1.870829 1.870829 
C -1.374679 2.366978 -0.701661 2.645751 0 2.645751 
z
" style="stroke: #000000; stroke-width: 0.4"/>
    </defs>
    <g clip-path="url(#p4ff3c777ab)">
     <use xlink:href="#m0fbfe6cc09" x="576.8425" y="95.06756" style="fill: #3556a0; stroke: #000000; stroke-width: 0.4"/>
    </g>
   </g>
   <g id="PathCollection_2">
    <g clip-path="url(#p4ff3c777ab)">
     <use xlink:href="#m0fbfe6cc09" x="572.3425" y="175.68" style="fill: #3556a0; stroke: #000000; stroke-width: 0.4"/>
    </g>
   </g>
   <g id="PathCollection_3">
    <g clip-path="url(#p4ff3c777ab)">
     <use xlink:href="#m0fbfe6cc09" x="546.2425" y="256.29244" style="fill: #3556a0; stroke: #000000; stroke-width: 0.4"/>
    </g>
   </g>
   <g id="legend_1">
    <g id="patch_7">
     <path d="M 509.899375 338.16 
L 590.9425 338.16 
Q 593.3425 338.16 593.3425 335.76 
L 593.3425 319.34625 
Q 593.3425 316.94625 590.9425 316.94625 
L 509.899375 316.94625 
Q 507.499375 316.94625 507.499375 319.34625 
L 507.499375 335.76 
Q 507.499375 338.16 509.899375 338.16 
z
" style="fill: #ffffff; opacity: 0.8; stroke: #cccccc; stroke-linejoin: miter"/>
    </g>
    <g id="line2d_25">
     <path d="M 512.299375 326.664375 
L 524.299375 326.664375 
L 536.299375 326.664375 
" style="fill: none; stroke: #000000; stroke-opacity: 0; stroke-width: 1.5; stroke-linecap: square"/>
     <defs>
      <path id="m78bf69a173" d="M 0 3.5 
C 0.928211 3.5 1.81853 3.131218 2.474874 2.474874 
C 3.131218 1.81853 3.5 0.928211 3.5 0 
C 3.5 -0.928211 3.131218 -1.81853 2.474874 -2.474874 
C 1.81853 -3.131218 0.928211 -3.5 0 -3.5 
C -0.928211 -3.5 -1.81853 -3.131218 -2.474874 -2.474874 
C -3.131218 -1.81853 -3.5 -0.928211 -3.5 0 
C -3.5 0.928211 -3.131218 1.81853 -2.474874 2.474874 
C -1.81853 3.131218 -0.928211 3.5 0 3.5 
z
" style="stroke: #8da0cb"/>
     </defs>
     <g>
      <use xlink:href="#m78bf69a173" x="524.299375" y="326.664375" style="fill: #8da0cb; stroke: #8da0cb"/>
     </g>
    </g>
    <g id="text_14">
     <!-- Gemini -->
     <g transform="translate(545.899375 330.864375) scale(0.12 -0.12)">
      <use xlink:href="#DejaVuSans-47"/>
      <use xlink:href="#DejaVuSans-65" transform="translate(77.490234 0)"/>
      <use xlink:href="#DejaVuSans-6d" transform="translate(139.013672 0)"/>
      <use xlink:href="#DejaVuSans-69" transform="translate(236.425781 0)"/>
      <use xlink:href="#DejaVuSans-6e" transform="translate(264.208984 0)"/>
      <use xlink:href="#DejaVuSans-69" transform="translate(327.587891 0)"/>
     </g>
    </g>
   </g>
  </g>
 </g>
 <defs>
  <clipPath id="p4ff3c777ab">
   <rect x="167.3425" y="7.2" width="432" height="336.96"/>
  </clipPath>
 </defs>
</svg>
