<?xml version="1.0" encoding="utf-8" standalone="no"?>
<!DOCTYPE svg PUBLIC "-//W3C//DTD SVG 1.1//EN"
  "http://www.w3.org/Graphics/SVG/1.1/DTD/svg11.dtd">
<svg xmlns:xlink="http://www.w3.org/1999/xlink" width="712.923437pt" height="423.034375pt" viewBox="0 0 712.923437 423.034375" xmlns="http://www.w3.org/2000/svg" version="1.1">
 <metadata>
  <rdf:RDF xmlns:dc="http://purl.org/dc/elements/1.1/" xmlns:cc="http://creativecommons.org/ns#" xmlns:rdf="http://www.w3.org/1999/02/22-rdf-syntax-ns#">
   <cc:Work>
    <dc:type rdf:resource="http://purl.org/dc/dcmitype/StillImage"/>
    <dc:date>2026-05-13T15:59:42.409630</dc:date>
    <dc:format>image/svg+xml</dc:format>
    <dc:creator>
     <cc:Agent>
      <dc:title>Matplotlib v3.10.9, https://matplotlib.org/</dc:title>
     </cc:Agent>
    </dc:creator>
   </cc:Work>
  </rdf:RDF>
 </metadata>
 <defs>
  <style type="text/css">*{stroke-linejoin: round; stroke-linecap: butt}</style>
 </defs>
 <g id="figure_1">
  <g id="patch_1">
   <path d="M 0 423.034375 
L 712.923437 423.034375 
L 712.923437 0 
L 0 0 
z
" style="fill: #ffffff"/>
  </g>
  <g id="axes_1">
   <g id="patch_2">
    <path d="M 155.496875 385.478125 
L 697.771875 385.478125 
L 697.771875 31.318125 
L 155.496875 31.318125 
z
" style="fill: #ffffff"/>
   </g>
   <g id="FillBetweenPolyCollection_1">
    <defs>
     <path id="m4f7985fe84" d="M 155.496875 -321.972207 
L 155.496875 -299.363523 
L 160.9744 -299.363523 
L 166.451926 -299.363523 
L 171.929451 -299.363523 
L 177.406976 -299.363523 
L 182.884501 -299.363523 
L 188.362027 -299.363523 
L 193.839552 -299.363523 
L 199.317077 -299.363523 
L 204.794602 -299.363523 
L 210.272128 -299.363523 
L 215.749653 -299.363523 
L 221.227178 -299.363523 
L 226.704703 -299.363523 
L 232.182229 -299.363523 
L 237.659754 -299.363523 
L 243.137279 -299.363523 
L 248.614804 -299.363523 
L 254.09233 -299.363523 
L 259.569855 -299.363523 
L 265.04738 -299.363523 
L 270.524905 -299.363523 
L 276.002431 -299.363523 
L 281.479956 -299.363523 
L 286.957481 -299.363523 
L 292.435006 -299.363523 
L 297.912532 -299.363523 
L 303.390057 -299.363523 
L 308.867582 -299.363523 
L 314.345107 -299.363523 
L 319.822633 -299.363523 
L 325.300158 -299.363523 
L 330.777683 -299.363523 
L 336.255208 -299.363523 
L 341.732734 -299.363523 
L 347.210259 -299.363523 
L 352.687784 -299.363523 
L 358.165309 -299.363523 
L 363.642835 -299.363523 
L 369.12036 -299.363523 
L 374.597885 -299.363523 
L 380.07541 -299.363523 
L 385.552936 -299.363523 
L 391.030461 -299.363523 
L 396.507986 -299.363523 
L 401.985511 -299.363523 
L 407.463037 -299.363523 
L 412.940562 -299.363523 
L 418.418087 -299.363523 
L 423.895612 -299.363523 
L 429.373138 -299.363523 
L 434.850663 -299.363523 
L 440.328188 -299.363523 
L 445.805713 -299.363523 
L 451.283239 -299.363523 
L 456.760764 -299.363523 
L 462.238289 -299.363523 
L 467.715814 -299.363523 
L 473.19334 -299.363523 
L 478.670865 -299.363523 
L 484.14839 -299.363523 
L 489.625915 -299.363523 
L 495.103441 -299.363523 
L 500.580966 -299.363523 
L 506.058491 -299.363523 
L 511.536016 -299.363523 
L 517.013542 -299.363523 
L 522.491067 -299.363523 
L 527.968592 -299.363523 
L 533.446117 -299.363523 
L 538.923643 -299.363523 
L 544.401168 -299.363523 
L 549.878693 -299.363523 
L 555.356218 -299.363523 
L 560.833744 -299.363523 
L 566.311269 -299.363523 
L 571.788794 -299.363523 
L 577.266319 -299.363523 
L 582.743845 -299.363523 
L 588.22137 -299.363523 
L 593.698895 -299.363523 
L 599.17642 -299.363523 
L 604.653946 -299.363523 
L 610.131471 -299.363523 
L 615.608996 -299.363523 
L 621.086521 -299.363523 
L 626.564047 -299.363523 
L 632.041572 -299.363523 
L 637.519097 -299.363523 
L 642.996622 -299.363523 
L 648.474148 -299.363523 
L 653.951673 -299.363523 
L 659.429198 -299.363523 
L 664.906723 -299.363523 
L 670.384249 -299.363523 
L 675.861774 -299.363523 
L 681.339299 -299.363523 
L 686.816824 -299.363523 
L 692.29435 -299.363523 
L 697.771875 -299.363523 
L 697.771875 -363.196124 
L 697.771875 -363.196124 
L 692.29435 -365.190393 
L 686.816824 -367.03437 
L 681.339299 -368.716758 
L 675.861774 -370.227971 
L 670.384249 -371.560236 
L 664.906723 -372.707658 
L 659.429198 -373.666254 
L 653.951673 -374.433945 
L 648.474148 -375.010524 
L 642.996622 -375.397592 
L 637.519097 -375.598467 
L 632.041572 -375.618068 
L 626.564047 -375.462791 
L 621.086521 -375.140355 
L 615.608996 -374.659653 
L 610.131471 -374.030589 
L 604.653946 -373.263912 
L 599.17642 -372.37105 
L 593.698895 -371.363951 
L 588.22137 -370.254927 
L 582.743845 -369.0565 
L 577.266319 -367.781261 
L 571.788794 -366.441736 
L 566.311269 -365.050263 
L 560.833744 -363.618877 
L 555.356218 -362.159201 
L 549.878693 -360.68236 
L 544.401168 -359.198888 
L 538.923643 -357.718662 
L 533.446117 -356.250836 
L 527.968592 -354.803794 
L 522.491067 -353.385106 
L 517.013542 -352.001504 
L 511.536016 -350.658867 
L 506.058491 -349.362217 
L 500.580966 -348.115732 
L 495.103441 -346.922764 
L 489.625915 -345.785874 
L 484.14839 -344.706878 
L 478.670865 -343.686901 
L 473.19334 -342.726436 
L 467.715814 -341.825419 
L 462.238289 -340.983302 
L 456.760764 -340.199125 
L 451.283239 -339.471604 
L 445.805713 -338.7992 
L 440.328188 -338.180195 
L 434.850663 -337.612759 
L 429.373138 -337.095013 
L 423.895612 -336.625073 
L 418.418087 -336.2011 
L 412.940562 -335.82132 
L 407.463037 -335.48405 
L 401.985511 -335.187698 
L 396.507986 -334.93076 
L 391.030461 -334.711803 
L 385.552936 -334.529441 
L 380.07541 -334.382298 
L 374.597885 -334.268974 
L 369.12036 -334.187991 
L 363.642835 -334.137755 
L 358.165309 -334.116505 
L 352.687784 -334.122265 
L 347.210259 -334.152809 
L 341.732734 -334.205617 
L 336.255208 -334.277853 
L 330.777683 -334.366342 
L 325.300158 -334.467563 
L 319.822633 -334.577643 
L 314.345107 -334.692379 
L 308.867582 -334.807253 
L 303.390057 -334.917471 
L 297.912532 -335.018009 
L 292.435006 -335.103663 
L 286.957481 -335.169118 
L 281.479956 -335.209018 
L 276.002431 -335.218042 
L 270.524905 -335.190985 
L 265.04738 -335.122841 
L 259.569855 -335.00889 
L 254.09233 -334.844776 
L 248.614804 -334.626586 
L 243.137279 -334.350927 
L 237.659754 -334.014989 
L 232.182229 -333.6166 
L 226.704703 -333.154279 
L 221.227178 -332.627269 
L 215.749653 -332.035562 
L 210.272128 -331.379907 
L 204.794602 -330.661813 
L 199.317077 -329.883529 
L 193.839552 -329.048019 
L 188.362027 -328.158921 
L 182.884501 -327.220491 
L 177.406976 -326.237546 
L 171.929451 -325.215386 
L 166.451926 -324.15972 
L 160.9744 -323.076574 
L 155.496875 -321.972207 
z
" style="stroke: #8da0cb; stroke-opacity: 0.42"/>
    </defs>
    <g clip-path="url(#pa900d38153)">
     <use xlink:href="#m4f7985fe84" x="0" y="423.034375" style="fill: #8da0cb; fill-opacity: 0.42; stroke: #8da0cb; stroke-opacity: 0.42"/>
    </g>
   </g>
   <g id="FillBetweenPolyCollection_2">
    <defs>
     <path id="m8b22f5af3d" d="M 155.496875 -237.654613 
L 155.496875 -214.63625 
L 160.9744 -214.63625 
L 166.451926 -214.63625 
L 171.929451 -214.63625 
L 177.406976 -214.63625 
L 182.884501 -214.63625 
L 188.362027 -214.63625 
L 193.839552 -214.63625 
L 199.317077 -214.63625 
L 204.794602 -214.63625 
L 210.272128 -214.63625 
L 215.749653 -214.63625 
L 221.227178 -214.63625 
L 226.704703 -214.63625 
L 232.182229 -214.63625 
L 237.659754 -214.63625 
L 243.137279 -214.63625 
L 248.614804 -214.63625 
L 254.09233 -214.63625 
L 259.569855 -214.63625 
L 265.04738 -214.63625 
L 270.524905 -214.63625 
L 276.002431 -214.63625 
L 281.479956 -214.63625 
L 286.957481 -214.63625 
L 292.435006 -214.63625 
L 297.912532 -214.63625 
L 303.390057 -214.63625 
L 308.867582 -214.63625 
L 314.345107 -214.63625 
L 319.822633 -214.63625 
L 325.300158 -214.63625 
L 330.777683 -214.63625 
L 336.255208 -214.63625 
L 341.732734 -214.63625 
L 347.210259 -214.63625 
L 352.687784 -214.63625 
L 358.165309 -214.63625 
L 363.642835 -214.63625 
L 369.12036 -214.63625 
L 374.597885 -214.63625 
L 380.07541 -214.63625 
L 385.552936 -214.63625 
L 391.030461 -214.63625 
L 396.507986 -214.63625 
L 401.985511 -214.63625 
L 407.463037 -214.63625 
L 412.940562 -214.63625 
L 418.418087 -214.63625 
L 423.895612 -214.63625 
L 429.373138 -214.63625 
L 434.850663 -214.63625 
L 440.328188 -214.63625 
L 445.805713 -214.63625 
L 451.283239 -214.63625 
L 456.760764 -214.63625 
L 462.238289 -214.63625 
L 467.715814 -214.63625 
L 473.19334 -214.63625 
L 478.670865 -214.63625 
L 484.14839 -214.63625 
L 489.625915 -214.63625 
L 495.103441 -214.63625 
L 500.580966 -214.63625 
L 506.058491 -214.63625 
L 511.536016 -214.63625 
L 517.013542 -214.63625 
L 522.491067 -214.63625 
L 527.968592 -214.63625 
L 533.446117 -214.63625 
L 538.923643 -214.63625 
L 544.401168 -214.63625 
L 549.878693 -214.63625 
L 555.356218 -214.63625 
L 560.833744 -214.63625 
L 566.311269 -214.63625 
L 571.788794 -214.63625 
L 577.266319 -214.63625 
L 582.743845 -214.63625 
L 588.22137 -214.63625 
L 593.698895 -214.63625 
L 599.17642 -214.63625 
L 604.653946 -214.63625 
L 610.131471 -214.63625 
L 615.608996 -214.63625 
L 621.086521 -214.63625 
L 626.564047 -214.63625 
L 632.041572 -214.63625 
L 637.519097 -214.63625 
L 642.996622 -214.63625 
L 648.474148 -214.63625 
L 653.951673 -214.63625 
L 659.429198 -214.63625 
L 664.906723 -214.63625 
L 670.384249 -214.63625 
L 675.861774 -214.63625 
L 681.339299 -214.63625 
L 686.816824 -214.63625 
L 692.29435 -214.63625 
L 697.771875 -214.63625 
L 697.771875 -272.599342 
L 697.771875 -272.599342 
L 692.29435 -274.911984 
L 686.816824 -277.114024 
L 681.339299 -279.190568 
L 675.861774 -281.127848 
L 670.384249 -282.913393 
L 664.906723 -284.536179 
L 659.429198 -285.986757 
L 653.951673 -287.257353 
L 648.474148 -288.341943 
L 642.996622 -289.236305 
L 637.519097 -289.938044 
L 632.041572 -290.44659 
L 626.564047 -290.763176 
L 621.086521 -290.890795 
L 615.608996 -290.834136 
L 610.131471 -290.599495 
L 604.653946 -290.194679 
L 599.17642 -289.628882 
L 593.698895 -288.912556 
L 588.22137 -288.057265 
L 582.743845 -287.075521 
L 577.266319 -285.98062 
L 571.788794 -284.786459 
L 566.311269 -283.507356 
L 560.833744 -282.157856 
L 555.356218 -280.752545 
L 549.878693 -279.305853 
L 544.401168 -277.831873 
L 538.923643 -276.344182 
L 533.446117 -274.855666 
L 527.968592 -273.378377 
L 522.491067 -271.923386 
L 517.013542 -270.500672 
L 511.536016 -269.119028 
L 506.058491 -267.785992 
L 500.580966 -266.507808 
L 495.103441 -265.289411 
L 489.625915 -264.134441 
L 484.14839 -263.045284 
L 478.670865 -262.023142 
L 473.19334 -261.06812 
L 467.715814 -260.179335 
L 462.238289 -259.355047 
L 456.760764 -258.592796 
L 451.283239 -257.889548 
L 445.805713 -257.241849 
L 440.328188 -256.645972 
L 434.850663 -256.098066 
L 429.373138 -255.594283 
L 423.895612 -255.130905 
L 418.418087 -254.704449 
L 412.940562 -254.311744 
L 407.463037 -253.950005 
L 401.985511 -253.616863 
L 396.507986 -253.310393 
L 391.030461 -253.029101 
L 385.552936 -252.771906 
L 380.07541 -252.538086 
L 374.597885 -252.327224 
L 369.12036 -252.139124 
L 363.642835 -251.973726 
L 358.165309 -251.831009 
L 352.687784 -251.710892 
L 347.210259 -251.613136 
L 341.732734 -251.537245 
L 336.255208 -251.482379 
L 330.777683 -251.447277 
L 325.300158 -251.43019 
L 319.822633 -251.428834 
L 314.345107 -251.440363 
L 308.867582 -251.461348 
L 303.390057 -251.487797 
L 297.912532 -251.515177 
L 292.435006 -251.538462 
L 286.957481 -251.552205 
L 281.479956 -251.550618 
L 276.002431 -251.527673 
L 270.524905 -251.477212 
L 265.04738 -251.393067 
L 259.569855 -251.269187 
L 254.09233 -251.099767 
L 248.614804 -250.879373 
L 243.137279 -250.603067 
L 237.659754 -250.266522 
L 232.182229 -249.866123 
L 226.704703 -249.39906 
L 221.227178 -248.863398 
L 215.749653 -248.258133 
L 210.272128 -247.583229 
L 204.794602 -246.839628 
L 199.317077 -246.029248 
L 193.839552 -245.15495 
L 188.362027 -244.220496 
L 182.884501 -243.230481 
L 177.406976 -242.19025 
L 171.929451 -241.1058 
L 166.451926 -239.983678 
L 160.9744 -238.830856 
L 155.496875 -237.654613 
z
" style="stroke: #8da0cb; stroke-opacity: 0.42"/>
    </defs>
    <g clip-path="url(#pa900d38153)">
     <use xlink:href="#m8b22f5af3d" x="0" y="423.034375" style="fill: #8da0cb; fill-opacity: 0.42; stroke: #8da0cb; stroke-opacity: 0.42"/>
    </g>
   </g>
   <g id="FillBetweenPolyCollection_3">
    <defs>
     <path id="me8b5c6866e" d="M 155.496875 -159.312188 
L 155.496875 -129.908977 
L 160.9744 -129.908977 
L 166.451926 -129.908977 
L 171.929451 -129.908977 
L 177.406976 -129.908977 
L 182.884501 -129.908977 
L 188.362027 -129.908977 
L 193.839552 -129.908977 
L 199.317077 -129.908977 
L 204.794602 -129.908977 
L 210.272128 -129.908977 
L 215.749653 -129.908977 
L 221.227178 -129.908977 
L 226.704703 -129.908977 
L 232.182229 -129.908977 
L 237.659754 -129.908977 
L 243.137279 -129.908977 
L 248.614804 -129.908977 
L 254.09233 -129.908977 
L 259.569855 -129.908977 
L 265.04738 -129.908977 
L 270.524905 -129.908977 
L 276.002431 -129.908977 
L 281.479956 -129.908977 
L 286.957481 -129.908977 
L 292.435006 -129.908977 
L 297.912532 -129.908977 
L 303.390057 -129.908977 
L 308.867582 -129.908977 
L 314.345107 -129.908977 
L 319.822633 -129.908977 
L 325.300158 -129.908977 
L 330.777683 -129.908977 
L 336.255208 -129.908977 
L 341.732734 -129.908977 
L 347.210259 -129.908977 
L 352.687784 -129.908977 
L 358.165309 -129.908977 
L 363.642835 -129.908977 
L 369.12036 -129.908977 
L 374.597885 -129.908977 
L 380.07541 -129.908977 
L 385.552936 -129.908977 
L 391.030461 -129.908977 
L 396.507986 -129.908977 
L 401.985511 -129.908977 
L 407.463037 -129.908977 
L 412.940562 -129.908977 
L 418.418087 -129.908977 
L 423.895612 -129.908977 
L 429.373138 -129.908977 
L 434.850663 -129.908977 
L 440.328188 -129.908977 
L 445.805713 -129.908977 
L 451.283239 -129.908977 
L 456.760764 -129.908977 
L 462.238289 -129.908977 
L 467.715814 -129.908977 
L 473.19334 -129.908977 
L 478.670865 -129.908977 
L 484.14839 -129.908977 
L 489.625915 -129.908977 
L 495.103441 -129.908977 
L 500.580966 -129.908977 
L 506.058491 -129.908977 
L 511.536016 -129.908977 
L 517.013542 -129.908977 
L 522.491067 -129.908977 
L 527.968592 -129.908977 
L 533.446117 -129.908977 
L 538.923643 -129.908977 
L 544.401168 -129.908977 
L 549.878693 -129.908977 
L 555.356218 -129.908977 
L 560.833744 -129.908977 
L 566.311269 -129.908977 
L 571.788794 -129.908977 
L 577.266319 -129.908977 
L 582.743845 -129.908977 
L 588.22137 -129.908977 
L 593.698895 -129.908977 
L 599.17642 -129.908977 
L 604.653946 -129.908977 
L 610.131471 -129.908977 
L 615.608996 -129.908977 
L 621.086521 -129.908977 
L 626.564047 -129.908977 
L 632.041572 -129.908977 
L 637.519097 -129.908977 
L 642.996622 -129.908977 
L 648.474148 -129.908977 
L 653.951673 -129.908977 
L 659.429198 -129.908977 
L 664.906723 -129.908977 
L 670.384249 -129.908977 
L 675.861774 -129.908977 
L 681.339299 -129.908977 
L 686.816824 -129.908977 
L 692.29435 -129.908977 
L 697.771875 -129.908977 
L 697.771875 -195.24281 
L 697.771875 -195.24281 
L 692.29435 -197.041854 
L 686.816824 -198.696617 
L 681.339299 -200.198404 
L 675.861774 -201.540001 
L 670.384249 -202.715728 
L 664.906723 -203.721468 
L 659.429198 -204.554666 
L 653.951673 -205.214302 
L 648.474148 -205.700843 
L 642.996622 -206.016176 
L 637.519097 -206.163523 
L 632.041572 -206.147337 
L 626.564047 -205.973201 
L 621.086521 -205.647706 
L 615.608996 -205.178333 
L 610.131471 -204.573336 
L 604.653946 -203.841624 
L 599.17642 -202.992644 
L 593.698895 -202.036278 
L 588.22137 -200.982743 
L 582.743845 -199.842492 
L 577.266319 -198.626135 
L 571.788794 -197.344357 
L 566.311269 -196.007848 
L 560.833744 -194.627236 
L 555.356218 -193.21303 
L 549.878693 -191.775558 
L 544.401168 -190.32492 
L 538.923643 -188.870932 
L 533.446117 -187.423077 
L 527.968592 -185.990461 
L 522.491067 -184.581759 
L 517.013542 -183.205175 
L 511.536016 -181.868395 
L 506.058491 -180.578541 
L 500.580966 -179.342136 
L 495.103441 -178.165062 
L 489.625915 -177.05253 
L 484.14839 -176.009053 
L 478.670865 -175.03842 
L 473.19334 -174.143683 
L 467.715814 -173.327149 
L 462.238289 -172.59038 
L 456.760764 -171.934197 
L 451.283239 -171.358697 
L 445.805713 -170.863276 
L 440.328188 -170.446655 
L 434.850663 -170.106923 
L 429.373138 -169.841571 
L 423.895612 -169.647545 
L 418.418087 -169.521295 
L 412.940562 -169.458831 
L 407.463037 -169.455779 
L 401.985511 -169.507438 
L 396.507986 -169.60884 
L 391.030461 -169.754806 
L 385.552936 -169.940005 
L 380.07541 -170.159002 
L 374.597885 -170.406315 
L 369.12036 -170.676458 
L 363.642835 -170.963986 
L 358.165309 -171.263534 
L 352.687784 -171.56985 
L 347.210259 -171.877826 
L 341.732734 -172.182521 
L 336.255208 -172.47918 
L 330.777683 -172.763253 
L 325.300158 -173.0304 
L 319.822633 -173.276502 
L 314.345107 -173.497659 
L 308.867582 -173.690194 
L 303.390057 -173.850647 
L 297.912532 -173.97577 
L 292.435006 -174.062523 
L 286.957481 -174.108065 
L 281.479956 -174.109751 
L 276.002431 -174.065125 
L 270.524905 -173.971918 
L 265.04738 -173.828049 
L 259.569855 -173.631627 
L 254.09233 -173.38096 
L 248.614804 -173.074562 
L 243.137279 -172.71117 
L 237.659754 -172.289761 
L 232.182229 -171.809576 
L 226.704703 -171.270137 
L 221.227178 -170.67128 
L 215.749653 -170.013176 
L 210.272128 -169.296359 
L 204.794602 -168.521751 
L 199.317077 -167.690682 
L 193.839552 -166.804907 
L 188.362027 -165.866622 
L 182.884501 -164.878464 
L 177.406976 -163.843515 
L 171.929451 -162.765291 
L 166.451926 -161.647723 
L 160.9744 -160.49513 
L 155.496875 -159.312188 
z
" style="stroke: #8da0cb; stroke-opacity: 0.42"/>
    </defs>
    <g clip-path="url(#pa900d38153)">
     <use xlink:href="#me8b5c6866e" x="0" y="423.034375" style="fill: #8da0cb; fill-opacity: 0.42; stroke: #8da0cb; stroke-opacity: 0.42"/>
    </g>
   </g>
   <g id="matplotlib.axis_1">
    <g id="xtick_1">
     <g id="line2d_1">
      <path d="M 155.496875 385.478125 
L 155.496875 31.318125 
" clip-path="url(#pa900d38153)" style="fill: none; stroke: #b0b0b0; stroke-opacity: 0.3; stroke-width: 0.8; stroke-linecap: square"/>
     </g>
     <g id="line2d_2">
      <defs>
       <path id="m9275c81f60" d="M 0 0 
L 0 3.5 
" style="stroke: #000000; stroke-width: 0.8"/>
      </defs>
      <g>
       <use xlink:href="#m9275c81f60" x="155.496875" y="385.478125" style="stroke: #000000; stroke-width: 0.8"/>
      </g>
     </g>
     <g id="text_1">
      <!-- 1.0 -->
      <g transform="translate(147.545313 400.076562) scale(0.1 -0.1)">
       <defs>
        <path id="DejaVuSans-31" d="M 794 531 
L 1825 531 
L 1825 4091 
L 703 3866 
L 703 4441 
L 1819 4666 
L 2450 4666 
L 2450 531 
L 3481 531 
L 3481 0 
L 794 0 
L 794 531 
z
" transform="scale(0.015625)"/>
        <path id="DejaVuSans-2e" d="M 684 794 
L 1344 794 
L 1344 0 
L 684 0 
L 684 794 
z
" transform="scale(0.015625)"/>
        <path id="DejaVuSans-30" d="M 2034 4250 
Q 1547 4250 1301 3770 
Q 1056 3291 1056 2328 
Q 1056 1369 1301 889 
Q 1547 409 2034 409 
Q 2525 409 2770 889 
Q 3016 1369 3016 2328 
Q 3016 3291 2770 3770 
Q 2525 4250 2034 4250 
z
M 2034 4750 
Q 2819 4750 3233 4129 
Q 3647 3509 3647 2328 
Q 3647 1150 3233 529 
Q 2819 -91 2034 -91 
Q 1250 -91 836 529 
Q 422 1150 422 2328 
Q 422 3509 836 4129 
Q 1250 4750 2034 4750 
z
" transform="scale(0.015625)"/>
       </defs>
       <use xlink:href="#DejaVuSans-31"/>
       <use xlink:href="#DejaVuSans-2e" transform="translate(63.623047 0)"/>
       <use xlink:href="#DejaVuSans-30" transform="translate(95.410156 0)"/>
      </g>
     </g>
    </g>
    <g id="xtick_2">
     <g id="line2d_3">
      <path d="M 223.28125 385.478125 
L 223.28125 31.318125 
" clip-path="url(#pa900d38153)" style="fill: none; stroke: #b0b0b0; stroke-opacity: 0.3; stroke-width: 0.8; stroke-linecap: square"/>
     </g>
     <g id="line2d_4">
      <g>
       <use xlink:href="#m9275c81f60" x="223.28125" y="385.478125" style="stroke: #000000; stroke-width: 0.8"/>
      </g>
     </g>
     <g id="text_2">
      <!-- 1.5 -->
      <g transform="translate(215.329688 400.076562) scale(0.1 -0.1)">
       <defs>
        <path id="DejaVuSans-35" d="M 691 4666 
L 3169 4666 
L 3169 4134 
L 1269 4134 
L 1269 2991 
Q 1406 3038 1543 3061 
Q 1681 3084 1819 3084 
Q 2600 3084 3056 2656 
Q 3513 2228 3513 1497 
Q 3513 744 3044 326 
Q 2575 -91 1722 -91 
Q 1428 -91 1123 -41 
Q 819 9 494 109 
L 494 744 
Q 775 591 1075 516 
Q 1375 441 1709 441 
Q 2250 441 2565 725 
Q 2881 1009 2881 1497 
Q 2881 1984 2565 2268 
Q 2250 2553 1709 2553 
Q 1456 2553 1204 2497 
Q 953 2441 691 2322 
L 691 4666 
z
" transform="scale(0.015625)"/>
       </defs>
       <use xlink:href="#DejaVuSans-31"/>
       <use xlink:href="#DejaVuSans-2e" transform="translate(63.623047 0)"/>
       <use xlink:href="#DejaVuSans-35" transform="translate(95.410156 0)"/>
      </g>
     </g>
    </g>
    <g id="xtick_3">
     <g id="line2d_5">
      <path d="M 291.065625 385.478125 
L 291.065625 31.318125 
" clip-path="url(#pa900d38153)" style="fill: none; stroke: #b0b0b0; stroke-opacity: 0.3; stroke-width: 0.8; stroke-linecap: square"/>
     </g>
     <g id="line2d_6">
      <g>
       <use xlink:href="#m9275c81f60" x="291.065625" y="385.478125" style="stroke: #000000; stroke-width: 0.8"/>
      </g>
     </g>
     <g id="text_3">
      <!-- 2.0 -->
      <g transform="translate(283.114062 400.076562) scale(0.1 -0.1)">
       <defs>
        <path id="DejaVuSans-32" d="M 1228 531 
L 3431 531 
L 3431 0 
L 469 0 
L 469 531 
Q 828 903 1448 1529 
Q 2069 2156 2228 2338 
Q 2531 2678 2651 2914 
Q 2772 3150 2772 3378 
Q 2772 3750 2511 3984 
Q 2250 4219 1831 4219 
Q 1534 4219 1204 4116 
Q 875 4013 500 3803 
L 500 4441 
Q 881 4594 1212 4672 
Q 1544 4750 1819 4750 
Q 2544 4750 2975 4387 
Q 3406 4025 3406 3419 
Q 3406 3131 3298 2873 
Q 3191 2616 2906 2266 
Q 2828 2175 2409 1742 
Q 1991 1309 1228 531 
z
" transform="scale(0.015625)"/>
       </defs>
       <use xlink:href="#DejaVuSans-32"/>
       <use xlink:href="#DejaVuSans-2e" transform="translate(63.623047 0)"/>
       <use xlink:href="#DejaVuSans-30" transform="translate(95.410156 0)"/>
      </g>
     </g>
    </g>
    <g id="xtick_4">
     <g id="line2d_7">
      <path d="M 358.85 385.478125 
L 358.85 31.318125 
" clip-path="url(#pa900d38153)" style="fill: none; stroke: #b0b0b0; stroke-opacity: 0.3; stroke-width: 0.8; stroke-linecap: square"/>
     </g>
     <g id="line2d_8">
      <g>
       <use xlink:href="#m9275c81f60" x="358.85" y="385.478125" style="stroke: #000000; stroke-width: 0.8"/>
      </g>
     </g>
     <g id="text_4">
      <!-- 2.5 -->
      <g transform="translate(350.898437 400.076562) scale(0.1 -0.1)">
       <use xlink:href="#DejaVuSans-32"/>
       <use xlink:href="#DejaVuSans-2e" transform="translate(63.623047 0)"/>
       <use xlink:href="#DejaVuSans-35" transform="translate(95.410156 0)"/>
      </g>
     </g>
    </g>
    <g id="xtick_5">
     <g id="line2d_9">
      <path d="M 426.634375 385.478125 
L 426.634375 31.318125 
" clip-path="url(#pa900d38153)" style="fill: none; stroke: #b0b0b0; stroke-opacity: 0.3; stroke-width: 0.8; stroke-linecap: square"/>
     </g>
     <g id="line2d_10">
      <g>
       <use xlink:href="#m9275c81f60" x="426.634375" y="385.478125" style="stroke: #000000; stroke-width: 0.8"/>
      </g>
     </g>
     <g id="text_5">
      <!-- 3.0 -->
      <g transform="translate(418.682812 400.076562) scale(0.1 -0.1)">
       <defs>
        <path id="DejaVuSans-33" d="M 2597 2516 
Q 3050 2419 3304 2112 
Q 3559 1806 3559 1356 
Q 3559 666 3084 287 
Q 2609 -91 1734 -91 
Q 1441 -91 1130 -33 
Q 819 25 488 141 
L 488 750 
Q 750 597 1062 519 
Q 1375 441 1716 441 
Q 2309 441 2620 675 
Q 2931 909 2931 1356 
Q 2931 1769 2642 2001 
Q 2353 2234 1838 2234 
L 1294 2234 
L 1294 2753 
L 1863 2753 
Q 2328 2753 2575 2939 
Q 2822 3125 2822 3475 
Q 2822 3834 2567 4026 
Q 2313 4219 1838 4219 
Q 1578 4219 1281 4162 
Q 984 4106 628 3988 
L 628 4550 
Q 988 4650 1302 4700 
Q 1616 4750 1894 4750 
Q 2613 4750 3031 4423 
Q 3450 4097 3450 3541 
Q 3450 3153 3228 2886 
Q 3006 2619 2597 2516 
z
" transform="scale(0.015625)"/>
       </defs>
       <use xlink:href="#DejaVuSans-33"/>
       <use xlink:href="#DejaVuSans-2e" transform="translate(63.623047 0)"/>
       <use xlink:href="#DejaVuSans-30" transform="translate(95.410156 0)"/>
      </g>
     </g>
    </g>
    <g id="xtick_6">
     <g id="line2d_11">
      <path d="M 494.41875 385.478125 
L 494.41875 31.318125 
" clip-path="url(#pa900d38153)" style="fill: none; stroke: #b0b0b0; stroke-opacity: 0.3; stroke-width: 0.8; stroke-linecap: square"/>
     </g>
     <g id="line2d_12">
      <g>
       <use xlink:href="#m9275c81f60" x="494.41875" y="385.478125" style="stroke: #000000; stroke-width: 0.8"/>
      </g>
     </g>
     <g id="text_6">
      <!-- 3.5 -->
      <g transform="translate(486.467187 400.076562) scale(0.1 -0.1)">
       <use xlink:href="#DejaVuSans-33"/>
       <use xlink:href="#DejaVuSans-2e" transform="translate(63.623047 0)"/>
       <use xlink:href="#DejaVuSans-35" transform="translate(95.410156 0)"/>
      </g>
     </g>
    </g>
    <g id="xtick_7">
     <g id="line2d_13">
      <path d="M 562.203125 385.478125 
L 562.203125 31.318125 
" clip-path="url(#pa900d38153)" style="fill: none; stroke: #b0b0b0; stroke-opacity: 0.3; stroke-width: 0.8; stroke-linecap: square"/>
     </g>
     <g id="line2d_14">
      <g>
       <use xlink:href="#m9275c81f60" x="562.203125" y="385.478125" style="stroke: #000000; stroke-width: 0.8"/>
      </g>
     </g>
     <g id="text_7">
      <!-- 4.0 -->
      <g transform="translate(554.251562 400.076562) scale(0.1 -0.1)">
       <defs>
        <path id="DejaVuSans-34" d="M 2419 4116 
L 825 1625 
L 2419 1625 
L 2419 4116 
z
M 2253 4666 
L 3047 4666 
L 3047 1625 
L 3713 1625 
L 3713 1100 
L 3047 1100 
L 3047 0 
L 2419 0 
L 2419 1100 
L 313 1100 
L 313 1709 
L 2253 4666 
z
" transform="scale(0.015625)"/>
       </defs>
       <use xlink:href="#DejaVuSans-34"/>
       <use xlink:href="#DejaVuSans-2e" transform="translate(63.623047 0)"/>
       <use xlink:href="#DejaVuSans-30" transform="translate(95.410156 0)"/>
      </g>
     </g>
    </g>
    <g id="xtick_8">
     <g id="line2d_15">
      <path d="M 629.9875 385.478125 
L 629.9875 31.318125 
" clip-path="url(#pa900d38153)" style="fill: none; stroke: #b0b0b0; stroke-opacity: 0.3; stroke-width: 0.8; stroke-linecap: square"/>
     </g>
     <g id="line2d_16">
      <g>
       <use xlink:href="#m9275c81f60" x="629.9875" y="385.478125" style="stroke: #000000; stroke-width: 0.8"/>
      </g>
     </g>
     <g id="text_8">
      <!-- 4.5 -->
      <g transform="translate(622.035937 400.076562) scale(0.1 -0.1)">
       <use xlink:href="#DejaVuSans-34"/>
       <use xlink:href="#DejaVuSans-2e" transform="translate(63.623047 0)"/>
       <use xlink:href="#DejaVuSans-35" transform="translate(95.410156 0)"/>
      </g>
     </g>
    </g>
    <g id="xtick_9">
     <g id="line2d_17">
      <path d="M 697.771875 385.478125 
L 697.771875 31.318125 
" clip-path="url(#pa900d38153)" style="fill: none; stroke: #b0b0b0; stroke-opacity: 0.3; stroke-width: 0.8; stroke-linecap: square"/>
     </g>
     <g id="line2d_18">
      <g>
       <use xlink:href="#m9275c81f60" x="697.771875" y="385.478125" style="stroke: #000000; stroke-width: 0.8"/>
      </g>
     </g>
     <g id="text_9">
      <!-- 5.0 -->
      <g transform="translate(689.820312 400.076562) scale(0.1 -0.1)">
       <use xlink:href="#DejaVuSans-35"/>
       <use xlink:href="#DejaVuSans-2e" transform="translate(63.623047 0)"/>
       <use xlink:href="#DejaVuSans-30" transform="translate(95.410156 0)"/>
      </g>
     </g>
    </g>
    <g id="text_10">
     <!-- Score -->
     <g transform="translate(412.632031 413.754687) scale(0.1 -0.1)">
      <defs>
       <path id="DejaVuSans-53" d="M 3425 4513 
L 3425 3897 
Q 3066 4069 2747 4153 
Q 2428 4238 2131 4238 
Q 1616 4238 1336 4038 
Q 1056 3838 1056 3469 
Q 1056 3159 1242 3001 
Q 1428 2844 1947 2747 
L 2328 2669 
Q 3034 2534 3370 2195 
Q 3706 1856 3706 1288 
Q 3706 609 3251 259 
Q 2797 -91 1919 -91 
Q 1588 -91 1214 -16 
Q 841 59 441 206 
L 441 856 
Q 825 641 1194 531 
Q 1563 422 1919 422 
Q 2459 422 2753 634 
Q 3047 847 3047 1241 
Q 3047 1584 2836 1778 
Q 2625 1972 2144 2069 
L 1759 2144 
Q 1053 2284 737 2584 
Q 422 2884 422 3419 
Q 422 4038 858 4394 
Q 1294 4750 2059 4750 
Q 2388 4750 2728 4690 
Q 3069 4631 3425 4513 
z
" transform="scale(0.015625)"/>
       <path id="DejaVuSans-63" d="M 3122 3366 
L 3122 2828 
Q 2878 2963 2633 3030 
Q 2388 3097 2138 3097 
Q 1578 3097 1268 2742 
Q 959 2388 959 1747 
Q 959 1106 1268 751 
Q 1578 397 2138 397 
Q 2388 397 2633 464 
Q 2878 531 3122 666 
L 3122 134 
Q 2881 22 2623 -34 
Q 2366 -91 2075 -91 
Q 1284 -91 818 406 
Q 353 903 353 1747 
Q 353 2603 823 3093 
Q 1294 3584 2113 3584 
Q 2378 3584 2631 3529 
Q 2884 3475 3122 3366 
z
" transform="scale(0.015625)"/>
       <path id="DejaVuSans-6f" d="M 1959 3097 
Q 1497 3097 1228 2736 
Q 959 2375 959 1747 
Q 959 1119 1226 758 
Q 1494 397 1959 397 
Q 2419 397 2687 759 
Q 2956 1122 2956 1747 
Q 2956 2369 2687 2733 
Q 2419 3097 1959 3097 
z
M 1959 3584 
Q 2709 3584 3137 3096 
Q 3566 2609 3566 1747 
Q 3566 888 3137 398 
Q 2709 -91 1959 -91 
Q 1206 -91 779 398 
Q 353 888 353 1747 
Q 353 2609 779 3096 
Q 1206 3584 1959 3584 
z
" transform="scale(0.015625)"/>
       <path id="DejaVuSans-72" d="M 2631 2963 
Q 2534 3019 2420 3045 
Q 2306 3072 2169 3072 
Q 1681 3072 1420 2755 
Q 1159 2438 1159 1844 
L 1159 0 
L 581 0 
L 581 3500 
L 1159 3500 
L 1159 2956 
Q 1341 3275 1631 3429 
Q 1922 3584 2338 3584 
Q 2397 3584 2469 3576 
Q 2541 3569 2628 3553 
L 2631 2963 
z
" transform="scale(0.015625)"/>
       <path id="DejaVuSans-65" d="M 3597 1894 
L 3597 1613 
L 953 1613 
Q 991 1019 1311 708 
Q 1631 397 2203 397 
Q 2534 397 2845 478 
Q 3156 559 3463 722 
L 3463 178 
Q 3153 47 2828 -22 
Q 2503 -91 2169 -91 
Q 1331 -91 842 396 
Q 353 884 353 1716 
Q 353 2575 817 3079 
Q 1281 3584 2069 3584 
Q 2775 3584 3186 3129 
Q 3597 2675 3597 1894 
z
M 3022 2063 
Q 3016 2534 2758 2815 
Q 2500 3097 2075 3097 
Q 1594 3097 1305 2825 
Q 1016 2553 972 2059 
L 3022 2063 
z
" transform="scale(0.015625)"/>
      </defs>
      <use xlink:href="#DejaVuSans-53"/>
      <use xlink:href="#DejaVuSans-63" transform="translate(63.476562 0)"/>
      <use xlink:href="#DejaVuSans-6f" transform="translate(118.457031 0)"/>
      <use xlink:href="#DejaVuSans-72" transform="translate(179.638672 0)"/>
      <use xlink:href="#DejaVuSans-65" transform="translate(218.501953 0)"/>
     </g>
    </g>
   </g>
   <g id="matplotlib.axis_2">
    <g id="ytick_1">
     <g id="line2d_19">
      <defs>
       <path id="mf94c58032c" d="M 0 0 
L -3.5 0 
" style="stroke: #000000; stroke-width: 0.8"/>
      </defs>
      <g>
       <use xlink:href="#mf94c58032c" x="155.496875" y="123.670852" style="stroke: #000000; stroke-width: 0.8"/>
      </g>
     </g>
     <g id="text_11">
      <!-- Gemini-3 Pro (Temp 1.0) -->
      <g transform="translate(27.240625 127.470071) scale(0.1 -0.1)">
       <defs>
        <path id="DejaVuSans-47" d="M 3809 666 
L 3809 1919 
L 2778 1919 
L 2778 2438 
L 4434 2438 
L 4434 434 
Q 4069 175 3628 42 
Q 3188 -91 2688 -91 
Q 1594 -91 976 548 
Q 359 1188 359 2328 
Q 359 3472 976 4111 
Q 1594 4750 2688 4750 
Q 3144 4750 3555 4637 
Q 3966 4525 4313 4306 
L 4313 3634 
Q 3963 3931 3569 4081 
Q 3175 4231 2741 4231 
Q 1884 4231 1454 3753 
Q 1025 3275 1025 2328 
Q 1025 1384 1454 906 
Q 1884 428 2741 428 
Q 3075 428 3337 486 
Q 3600 544 3809 666 
z
" transform="scale(0.015625)"/>
        <path id="DejaVuSans-6d" d="M 3328 2828 
Q 3544 3216 3844 3400 
Q 4144 3584 4550 3584 
Q 5097 3584 5394 3201 
Q 5691 2819 5691 2113 
L 5691 0 
L 5113 0 
L 5113 2094 
Q 5113 2597 4934 2840 
Q 4756 3084 4391 3084 
Q 3944 3084 3684 2787 
Q 3425 2491 3425 1978 
L 3425 0 
L 2847 0 
L 2847 2094 
Q 2847 2600 2669 2842 
Q 2491 3084 2119 3084 
Q 1678 3084 1418 2786 
Q 1159 2488 1159 1978 
L 1159 0 
L 581 0 
L 581 3500 
L 1159 3500 
L 1159 2956 
Q 1356 3278 1631 3431 
Q 1906 3584 2284 3584 
Q 2666 3584 2933 3390 
Q 3200 3197 3328 2828 
z
" transform="scale(0.015625)"/>
        <path id="DejaVuSans-69" d="M 603 3500 
L 1178 3500 
L 1178 0 
L 603 0 
L 603 3500 
z
M 603 4863 
L 1178 4863 
L 1178 4134 
L 603 4134 
L 603 4863 
z
" transform="scale(0.015625)"/>
        <path id="DejaVuSans-6e" d="M 3513 2113 
L 3513 0 
L 2938 0 
L 2938 2094 
Q 2938 2591 2744 2837 
Q 2550 3084 2163 3084 
Q 1697 3084 1428 2787 
Q 1159 2491 1159 1978 
L 1159 0 
L 581 0 
L 581 3500 
L 1159 3500 
L 1159 2956 
Q 1366 3272 1645 3428 
Q 1925 3584 2291 3584 
Q 2894 3584 3203 3211 
Q 3513 2838 3513 2113 
z
" transform="scale(0.015625)"/>
        <path id="DejaVuSans-2d" d="M 313 2009 
L 1997 2009 
L 1997 1497 
L 313 1497 
L 313 2009 
z
" transform="scale(0.015625)"/>
        <path id="DejaVuSans-20" transform="scale(0.015625)"/>
        <path id="DejaVuSans-50" d="M 1259 4147 
L 1259 2394 
L 2053 2394 
Q 2494 2394 2734 2622 
Q 2975 2850 2975 3272 
Q 2975 3691 2734 3919 
Q 2494 4147 2053 4147 
L 1259 4147 
z
M 628 4666 
L 2053 4666 
Q 2838 4666 3239 4311 
Q 3641 3956 3641 3272 
Q 3641 2581 3239 2228 
Q 2838 1875 2053 1875 
L 1259 1875 
L 1259 0 
L 628 0 
L 628 4666 
z
" transform="scale(0.015625)"/>
        <path id="DejaVuSans-28" d="M 1984 4856 
Q 1566 4138 1362 3434 
Q 1159 2731 1159 2009 
Q 1159 1288 1364 580 
Q 1569 -128 1984 -844 
L 1484 -844 
Q 1016 -109 783 600 
Q 550 1309 550 2009 
Q 550 2706 781 3412 
Q 1013 4119 1484 4856 
L 1984 4856 
z
" transform="scale(0.015625)"/>
        <path id="DejaVuSans-54" d="M -19 4666 
L 3928 4666 
L 3928 4134 
L 2272 4134 
L 2272 0 
L 1638 0 
L 1638 4134 
L -19 4134 
L -19 4666 
z
" transform="scale(0.015625)"/>
        <path id="DejaVuSans-70" d="M 1159 525 
L 1159 -1331 
L 581 -1331 
L 581 3500 
L 1159 3500 
L 1159 2969 
Q 1341 3281 1617 3432 
Q 1894 3584 2278 3584 
Q 2916 3584 3314 3078 
Q 3713 2572 3713 1747 
Q 3713 922 3314 415 
Q 2916 -91 2278 -91 
Q 1894 -91 1617 61 
Q 1341 213 1159 525 
z
M 3116 1747 
Q 3116 2381 2855 2742 
Q 2594 3103 2138 3103 
Q 1681 3103 1420 2742 
Q 1159 2381 1159 1747 
Q 1159 1113 1420 752 
Q 1681 391 2138 391 
Q 2594 391 2855 752 
Q 3116 1113 3116 1747 
z
" transform="scale(0.015625)"/>
        <path id="DejaVuSans-29" d="M 513 4856 
L 1013 4856 
Q 1481 4119 1714 3412 
Q 1947 2706 1947 2009 
Q 1947 1309 1714 600 
Q 1481 -109 1013 -844 
L 513 -844 
Q 928 -128 1133 580 
Q 1338 1288 1338 2009 
Q 1338 2731 1133 3434 
Q 928 4138 513 4856 
z
" transform="scale(0.015625)"/>
       </defs>
       <use xlink:href="#DejaVuSans-47"/>
       <use xlink:href="#DejaVuSans-65" transform="translate(77.490234 0)"/>
       <use xlink:href="#DejaVuSans-6d" transform="translate(139.013672 0)"/>
       <use xlink:href="#DejaVuSans-69" transform="translate(236.425781 0)"/>
       <use xlink:href="#DejaVuSans-6e" transform="translate(264.208984 0)"/>
       <use xlink:href="#DejaVuSans-69" transform="translate(327.587891 0)"/>
       <use xlink:href="#DejaVuSans-2d" transform="translate(355.371094 0)"/>
       <use xlink:href="#DejaVuSans-33" transform="translate(391.455078 0)"/>
       <use xlink:href="#DejaVuSans-20" transform="translate(455.078125 0)"/>
       <use xlink:href="#DejaVuSans-50" transform="translate(486.865234 0)"/>
       <use xlink:href="#DejaVuSans-72" transform="translate(545.417969 0)"/>
       <use xlink:href="#DejaVuSans-6f" transform="translate(584.28125 0)"/>
       <use xlink:href="#DejaVuSans-20" transform="translate(645.462891 0)"/>
       <use xlink:href="#DejaVuSans-28" transform="translate(677.25 0)"/>
       <use xlink:href="#DejaVuSans-54" transform="translate(716.263672 0)"/>
       <use xlink:href="#DejaVuSans-65" transform="translate(760.347656 0)"/>
       <use xlink:href="#DejaVuSans-6d" transform="translate(821.871094 0)"/>
       <use xlink:href="#DejaVuSans-70" transform="translate(919.283203 0)"/>
       <use xlink:href="#DejaVuSans-20" transform="translate(982.759766 0)"/>
       <use xlink:href="#DejaVuSans-31" transform="translate(1014.546875 0)"/>
       <use xlink:href="#DejaVuSans-2e" transform="translate(1078.169922 0)"/>
       <use xlink:href="#DejaVuSans-30" transform="translate(1109.957031 0)"/>
       <use xlink:href="#DejaVuSans-29" transform="translate(1173.580078 0)"/>
      </g>
     </g>
    </g>
    <g id="ytick_2">
     <g id="line2d_20">
      <g>
       <use xlink:href="#mf94c58032c" x="155.496875" y="208.398125" style="stroke: #000000; stroke-width: 0.8"/>
      </g>
     </g>
     <g id="text_12">
      <!-- Gemini-3 Pro (Temp 0.1) -->
      <g transform="translate(27.240625 212.197344) scale(0.1 -0.1)">
       <use xlink:href="#DejaVuSans-47"/>
       <use xlink:href="#DejaVuSans-65" transform="translate(77.490234 0)"/>
       <use xlink:href="#DejaVuSans-6d" transform="translate(139.013672 0)"/>
       <use xlink:href="#DejaVuSans-69" transform="translate(236.425781 0)"/>
       <use xlink:href="#DejaVuSans-6e" transform="translate(264.208984 0)"/>
       <use xlink:href="#DejaVuSans-69" transform="translate(327.587891 0)"/>
       <use xlink:href="#DejaVuSans-2d" transform="translate(355.371094 0)"/>
       <use xlink:href="#DejaVuSans-33" transform="translate(391.455078 0)"/>
       <use xlink:href="#DejaVuSans-20" transform="translate(455.078125 0)"/>
       <use xlink:href="#DejaVuSans-50" transform="translate(486.865234 0)"/>
       <use xlink:href="#DejaVuSans-72" transform="translate(545.417969 0)"/>
       <use xlink:href="#DejaVuSans-6f" transform="translate(584.28125 0)"/>
       <use xlink:href="#DejaVuSans-20" transform="translate(645.462891 0)"/>
       <use xlink:href="#DejaVuSans-28" transform="translate(677.25 0)"/>
       <use xlink:href="#DejaVuSans-54" transform="translate(716.263672 0)"/>
       <use xlink:href="#DejaVuSans-65" transform="translate(760.347656 0)"/>
       <use xlink:href="#DejaVuSans-6d" transform="translate(821.871094 0)"/>
       <use xlink:href="#DejaVuSans-70" transform="translate(919.283203 0)"/>
       <use xlink:href="#DejaVuSans-20" transform="translate(982.759766 0)"/>
       <use xlink:href="#DejaVuSans-30" transform="translate(1014.546875 0)"/>
       <use xlink:href="#DejaVuSans-2e" transform="translate(1078.169922 0)"/>
       <use xlink:href="#DejaVuSans-31" transform="translate(1109.957031 0)"/>
       <use xlink:href="#DejaVuSans-29" transform="translate(1173.580078 0)"/>
      </g>
     </g>
    </g>
    <g id="ytick_3">
     <g id="line2d_21">
      <g>
       <use xlink:href="#mf94c58032c" x="155.496875" y="293.125398" style="stroke: #000000; stroke-width: 0.8"/>
      </g>
     </g>
     <g id="text_13">
      <!-- Gemini-3 Pro (Temp 0.55) -->
      <g transform="translate(20.878125 296.924616) scale(0.1 -0.1)">
       <use xlink:href="#DejaVuSans-47"/>
       <use xlink:href="#DejaVuSans-65" transform="translate(77.490234 0)"/>
       <use xlink:href="#DejaVuSans-6d" transform="translate(139.013672 0)"/>
       <use xlink:href="#DejaVuSans-69" transform="translate(236.425781 0)"/>
       <use xlink:href="#DejaVuSans-6e" transform="translate(264.208984 0)"/>
       <use xlink:href="#DejaVuSans-69" transform="translate(327.587891 0)"/>
       <use xlink:href="#DejaVuSans-2d" transform="translate(355.371094 0)"/>
       <use xlink:href="#DejaVuSans-33" transform="translate(391.455078 0)"/>
       <use xlink:href="#DejaVuSans-20" transform="translate(455.078125 0)"/>
       <use xlink:href="#DejaVuSans-50" transform="translate(486.865234 0)"/>
       <use xlink:href="#DejaVuSans-72" transform="translate(545.417969 0)"/>
       <use xlink:href="#DejaVuSans-6f" transform="translate(584.28125 0)"/>
       <use xlink:href="#DejaVuSans-20" transform="translate(645.462891 0)"/>
       <use xlink:href="#DejaVuSans-28" transform="translate(677.25 0)"/>
       <use xlink:href="#DejaVuSans-54" transform="translate(716.263672 0)"/>
       <use xlink:href="#DejaVuSans-65" transform="translate(760.347656 0)"/>
       <use xlink:href="#DejaVuSans-6d" transform="translate(821.871094 0)"/>
       <use xlink:href="#DejaVuSans-70" transform="translate(919.283203 0)"/>
       <use xlink:href="#DejaVuSans-20" transform="translate(982.759766 0)"/>
       <use xlink:href="#DejaVuSans-30" transform="translate(1014.546875 0)"/>
       <use xlink:href="#DejaVuSans-2e" transform="translate(1078.169922 0)"/>
       <use xlink:href="#DejaVuSans-35" transform="translate(1109.957031 0)"/>
       <use xlink:href="#DejaVuSans-35" transform="translate(1173.580078 0)"/>
       <use xlink:href="#DejaVuSans-29" transform="translate(1237.203125 0)"/>
      </g>
     </g>
    </g>
    <g id="text_14">
     <!-- Model -->
     <g transform="translate(14.798438 223.411406) rotate(-90) scale(0.1 -0.1)">
      <defs>
       <path id="DejaVuSans-4d" d="M 628 4666 
L 1569 4666 
L 2759 1491 
L 3956 4666 
L 4897 4666 
L 4897 0 
L 4281 0 
L 4281 4097 
L 3078 897 
L 2444 897 
L 1241 4097 
L 1241 0 
L 628 0 
L 628 4666 
z
" transform="scale(0.015625)"/>
       <path id="DejaVuSans-64" d="M 2906 2969 
L 2906 4863 
L 3481 4863 
L 3481 0 
L 2906 0 
L 2906 525 
Q 2725 213 2448 61 
Q 2172 -91 1784 -91 
Q 1150 -91 751 415 
Q 353 922 353 1747 
Q 353 2572 751 3078 
Q 1150 3584 1784 3584 
Q 2172 3584 2448 3432 
Q 2725 3281 2906 2969 
z
M 947 1747 
Q 947 1113 1208 752 
Q 1469 391 1925 391 
Q 2381 391 2643 752 
Q 2906 1113 2906 1747 
Q 2906 2381 2643 2742 
Q 2381 3103 1925 3103 
Q 1469 3103 1208 2742 
Q 947 2381 947 1747 
z
" transform="scale(0.015625)"/>
       <path id="DejaVuSans-6c" d="M 603 4863 
L 1178 4863 
L 1178 0 
L 603 0 
L 603 4863 
z
" transform="scale(0.015625)"/>
      </defs>
      <use xlink:href="#DejaVuSans-4d"/>
      <use xlink:href="#DejaVuSans-6f" transform="translate(86.279297 0)"/>
      <use xlink:href="#DejaVuSans-64" transform="translate(147.460938 0)"/>
      <use xlink:href="#DejaVuSans-65" transform="translate(210.9375 0)"/>
      <use xlink:href="#DejaVuSans-6c" transform="translate(272.460938 0)"/>
     </g>
    </g>
   </g>
   <g id="line2d_22">
    <path d="M 367.323047 123.670852 
L 663.879687 123.670852 
" clip-path="url(#pa900d38153)" style="fill: none; stroke: #3556a0; stroke-width: 1.2; stroke-linecap: square"/>
    <defs>
     <path id="m8c2c99428f" d="M 0 4.5 
L 0 -4.5 
" style="stroke: #3556a0; stroke-width: 1.2"/>
    </defs>
    <g clip-path="url(#pa900d38153)">
     <use xlink:href="#m8c2c99428f" x="367.323047" y="123.670852" style="fill: #3556a0; stroke: #3556a0; stroke-width: 1.2"/>
     <use xlink:href="#m8c2c99428f" x="663.879687" y="123.670852" style="fill: #3556a0; stroke: #3556a0; stroke-width: 1.2"/>
    </g>
   </g>
   <g id="line2d_23">
    <path d="M 364.498698 208.398125 
L 642.89881 208.398125 
" clip-path="url(#pa900d38153)" style="fill: none; stroke: #3556a0; stroke-width: 1.2; stroke-linecap: square"/>
    <g clip-path="url(#pa900d38153)">
     <use xlink:href="#m8c2c99428f" x="364.498698" y="208.398125" style="fill: #3556a0; stroke: #3556a0; stroke-width: 1.2"/>
     <use xlink:href="#m8c2c99428f" x="642.89881" y="208.398125" style="fill: #3556a0; stroke: #3556a0; stroke-width: 1.2"/>
    </g>
   </g>
   <g id="line2d_24">
    <path d="M 309.706328 293.125398 
L 663.879687 293.125398 
" clip-path="url(#pa900d38153)" style="fill: none; stroke: #3556a0; stroke-width: 1.2; stroke-linecap: square"/>
    <g clip-path="url(#pa900d38153)">
     <use xlink:href="#m8c2c99428f" x="309.706328" y="293.125398" style="fill: #3556a0; stroke: #3556a0; stroke-width: 1.2"/>
     <use xlink:href="#m8c2c99428f" x="663.879687" y="293.125398" style="fill: #3556a0; stroke: #3556a0; stroke-width: 1.2"/>
    </g>
   </g>
   <g id="patch_3">
    <path d="M 155.496875 385.478125 
L 155.496875 31.318125 
" style="fill: none; stroke: #000000; stroke-width: 0.8; stroke-linejoin: miter; stroke-linecap: square"/>
   </g>
   <g id="patch_4">
    <path d="M 697.771875 385.478125 
L 697.771875 31.318125 
" style="fill: none; stroke: #000000; stroke-width: 0.8; stroke-linejoin: miter; stroke-linecap: square"/>
   </g>
   <g id="patch_5">
    <path d="M 155.496875 385.478125 
L 697.771875 385.478125 
" style="fill: none; stroke: #000000; stroke-width: 0.8; stroke-linejoin: miter; stroke-linecap: square"/>
   </g>
   <g id="patch_6">
    <path d="M 155.496875 31.318125 
L 697.771875 31.318125 
" style="fill: none; stroke: #000000; stroke-width: 0.8; stroke-linejoin: miter; stroke-linecap: square"/>
   </g>
   <g id="PathCollection_1">
    <defs>
     <path id="m7fa7221d11" d="M 0 2.645751 
C 0.701661 2.645751 1.374679 2.366978 1.870829 1.870829 
C 2.366978 1.374679 2.645751 0.701661 2.645751 0 
C 2.645751 -0.701661 2.366978 -1.374679 1.870829 -1.870829 
C 1.374679 -2.366978 0.701661 -2.645751 0 -2.645751 
C -0.701661 -2.645751 -1.374679 -2.366978 -1.870829 -1.870829 
C -2.366978 -1.374679 -2.645751 -0.701661 -2.645751 0 
C -2.645751 0.701661 -2.366978 1.374679 -1.870829 1.870829 
C -1.374679 2.366978 -0.701661 2.645751 0 2.645751 
z
" style="stroke: #000000; stroke-width: 0.4"/>
    </defs>
    <g clip-path="url(#pa900d38153)">
     <use xlink:href="#m7fa7221d11" x="565.592344" y="123.670852" style="fill: #3556a0; stroke: #000000; stroke-width: 0.4"/>
    </g>
   </g>
   <g id="PathCollection_2">
    <g clip-path="url(#pa900d38153)">
     <use xlink:href="#m7fa7221d11" x="562.203125" y="208.398125" style="fill: #3556a0; stroke: #000000; stroke-width: 0.4"/>
    </g>
   </g>
   <g id="PathCollection_3">
    <g clip-path="url(#pa900d38153)">
     <use xlink:href="#m7fa7221d11" x="555.424687" y="293.125398" style="fill: #3556a0; stroke: #000000; stroke-width: 0.4"/>
    </g>
   </g>
   <g id="text_15">
    <!-- 48 Novel Temperature Variations (Gemini 3 Pro) - Median Score Distributions -->
    <g transform="translate(196.855937 16.318125) scale(0.12 -0.12)">
     <defs>
      <path id="DejaVuSans-38" d="M 2034 2216 
Q 1584 2216 1326 1975 
Q 1069 1734 1069 1313 
Q 1069 891 1326 650 
Q 1584 409 2034 409 
Q 2484 409 2743 651 
Q 3003 894 3003 1313 
Q 3003 1734 2745 1975 
Q 2488 2216 2034 2216 
z
M 1403 2484 
Q 997 2584 770 2862 
Q 544 3141 544 3541 
Q 544 4100 942 4425 
Q 1341 4750 2034 4750 
Q 2731 4750 3128 4425 
Q 3525 4100 3525 3541 
Q 3525 3141 3298 2862 
Q 3072 2584 2669 2484 
Q 3125 2378 3379 2068 
Q 3634 1759 3634 1313 
Q 3634 634 3220 271 
Q 2806 -91 2034 -91 
Q 1263 -91 848 271 
Q 434 634 434 1313 
Q 434 1759 690 2068 
Q 947 2378 1403 2484 
z
M 1172 3481 
Q 1172 3119 1398 2916 
Q 1625 2713 2034 2713 
Q 2441 2713 2670 2916 
Q 2900 3119 2900 3481 
Q 2900 3844 2670 4047 
Q 2441 4250 2034 4250 
Q 1625 4250 1398 4047 
Q 1172 3844 1172 3481 
z
" transform="scale(0.015625)"/>
      <path id="DejaVuSans-4e" d="M 628 4666 
L 1478 4666 
L 3547 763 
L 3547 4666 
L 4159 4666 
L 4159 0 
L 3309 0 
L 1241 3903 
L 1241 0 
L 628 0 
L 628 4666 
z
" transform="scale(0.015625)"/>
      <path id="DejaVuSans-76" d="M 191 3500 
L 800 3500 
L 1894 563 
L 2988 3500 
L 3597 3500 
L 2284 0 
L 1503 0 
L 191 3500 
z
" transform="scale(0.015625)"/>
      <path id="DejaVuSans-61" d="M 2194 1759 
Q 1497 1759 1228 1600 
Q 959 1441 959 1056 
Q 959 750 1161 570 
Q 1363 391 1709 391 
Q 2188 391 2477 730 
Q 2766 1069 2766 1631 
L 2766 1759 
L 2194 1759 
z
M 3341 1997 
L 3341 0 
L 2766 0 
L 2766 531 
Q 2569 213 2275 61 
Q 1981 -91 1556 -91 
Q 1019 -91 701 211 
Q 384 513 384 1019 
Q 384 1609 779 1909 
Q 1175 2209 1959 2209 
L 2766 2209 
L 2766 2266 
Q 2766 2663 2505 2880 
Q 2244 3097 1772 3097 
Q 1472 3097 1187 3025 
Q 903 2953 641 2809 
L 641 3341 
Q 956 3463 1253 3523 
Q 1550 3584 1831 3584 
Q 2591 3584 2966 3190 
Q 3341 2797 3341 1997 
z
" transform="scale(0.015625)"/>
      <path id="DejaVuSans-74" d="M 1172 4494 
L 1172 3500 
L 2356 3500 
L 2356 3053 
L 1172 3053 
L 1172 1153 
Q 1172 725 1289 603 
Q 1406 481 1766 481 
L 2356 481 
L 2356 0 
L 1766 0 
Q 1100 0 847 248 
Q 594 497 594 1153 
L 594 3053 
L 172 3053 
L 172 3500 
L 594 3500 
L 594 4494 
L 1172 4494 
z
" transform="scale(0.015625)"/>
      <path id="DejaVuSans-75" d="M 544 1381 
L 544 3500 
L 1119 3500 
L 1119 1403 
Q 1119 906 1312 657 
Q 1506 409 1894 409 
Q 2359 409 2629 706 
Q 2900 1003 2900 1516 
L 2900 3500 
L 3475 3500 
L 3475 0 
L 2900 0 
L 2900 538 
Q 2691 219 2414 64 
Q 2138 -91 1772 -91 
Q 1169 -91 856 284 
Q 544 659 544 1381 
z
M 1991 3584 
L 1991 3584 
z
" transform="scale(0.015625)"/>
      <path id="DejaVuSans-56" d="M 1831 0 
L 50 4666 
L 709 4666 
L 2188 738 
L 3669 4666 
L 4325 4666 
L 2547 0 
L 1831 0 
z
" transform="scale(0.015625)"/>
      <path id="DejaVuSans-73" d="M 2834 3397 
L 2834 2853 
Q 2591 2978 2328 3040 
Q 2066 3103 1784 3103 
Q 1356 3103 1142 2972 
Q 928 2841 928 2578 
Q 928 2378 1081 2264 
Q 1234 2150 1697 2047 
L 1894 2003 
Q 2506 1872 2764 1633 
Q 3022 1394 3022 966 
Q 3022 478 2636 193 
Q 2250 -91 1575 -91 
Q 1294 -91 989 -36 
Q 684 19 347 128 
L 347 722 
Q 666 556 975 473 
Q 1284 391 1588 391 
Q 1994 391 2212 530 
Q 2431 669 2431 922 
Q 2431 1156 2273 1281 
Q 2116 1406 1581 1522 
L 1381 1569 
Q 847 1681 609 1914 
Q 372 2147 372 2553 
Q 372 3047 722 3315 
Q 1072 3584 1716 3584 
Q 2034 3584 2315 3537 
Q 2597 3491 2834 3397 
z
" transform="scale(0.015625)"/>
      <path id="DejaVuSans-44" d="M 1259 4147 
L 1259 519 
L 2022 519 
Q 2988 519 3436 956 
Q 3884 1394 3884 2338 
Q 3884 3275 3436 3711 
Q 2988 4147 2022 4147 
L 1259 4147 
z
M 628 4666 
L 1925 4666 
Q 3281 4666 3915 4102 
Q 4550 3538 4550 2338 
Q 4550 1131 3912 565 
Q 3275 0 1925 0 
L 628 0 
L 628 4666 
z
" transform="scale(0.015625)"/>
      <path id="DejaVuSans-62" d="M 3116 1747 
Q 3116 2381 2855 2742 
Q 2594 3103 2138 3103 
Q 1681 3103 1420 2742 
Q 1159 2381 1159 1747 
Q 1159 1113 1420 752 
Q 1681 391 2138 391 
Q 2594 391 2855 752 
Q 3116 1113 3116 1747 
z
M 1159 2969 
Q 1341 3281 1617 3432 
Q 1894 3584 2278 3584 
Q 2916 3584 3314 3078 
Q 3713 2572 3713 1747 
Q 3713 922 3314 415 
Q 2916 -91 2278 -91 
Q 1894 -91 1617 61 
Q 1341 213 1159 525 
L 1159 0 
L 581 0 
L 581 4863 
L 1159 4863 
L 1159 2969 
z
" transform="scale(0.015625)"/>
     </defs>
     <use xlink:href="#DejaVuSans-34"/>
     <use xlink:href="#DejaVuSans-38" transform="translate(63.623047 0)"/>
     <use xlink:href="#DejaVuSans-20" transform="translate(127.246094 0)"/>
     <use xlink:href="#DejaVuSans-4e" transform="translate(159.033203 0)"/>
     <use xlink:href="#DejaVuSans-6f" transform="translate(233.837891 0)"/>
     <use xlink:href="#DejaVuSans-76" transform="translate(295.019531 0)"/>
     <use xlink:href="#DejaVuSans-65" transform="translate(354.199219 0)"/>
     <use xlink:href="#DejaVuSans-6c" transform="translate(415.722656 0)"/>
     <use xlink:href="#DejaVuSans-20" transform="translate(443.505859 0)"/>
     <use xlink:href="#DejaVuSans-54" transform="translate(475.292969 0)"/>
     <use xlink:href="#DejaVuSans-65" transform="translate(519.376953 0)"/>
     <use xlink:href="#DejaVuSans-6d" transform="translate(580.900391 0)"/>
     <use xlink:href="#DejaVuSans-70" transform="translate(678.3125 0)"/>
     <use xlink:href="#DejaVuSans-65" transform="translate(741.789062 0)"/>
     <use xlink:href="#DejaVuSans-72" transform="translate(803.3125 0)"/>
     <use xlink:href="#DejaVuSans-61" transform="translate(844.425781 0)"/>
     <use xlink:href="#DejaVuSans-74" transform="translate(905.705078 0)"/>
     <use xlink:href="#DejaVuSans-75" transform="translate(944.914062 0)"/>
     <use xlink:href="#DejaVuSans-72" transform="translate(1008.292969 0)"/>
     <use xlink:href="#DejaVuSans-65" transform="translate(1047.15625 0)"/>
     <use xlink:href="#DejaVuSans-20" transform="translate(1108.679688 0)"/>
     <use xlink:href="#DejaVuSans-56" transform="translate(1140.466797 0)"/>
     <use xlink:href="#DejaVuSans-61" transform="translate(1201.125 0)"/>
     <use xlink:href="#DejaVuSans-72" transform="translate(1262.404297 0)"/>
     <use xlink:href="#DejaVuSans-69" transform="translate(1303.517578 0)"/>
     <use xlink:href="#DejaVuSans-61" transform="translate(1331.300781 0)"/>
     <use xlink:href="#DejaVuSans-74" transform="translate(1392.580078 0)"/>
     <use xlink:href="#DejaVuSans-69" transform="translate(1431.789062 0)"/>
     <use xlink:href="#DejaVuSans-6f" transform="translate(1459.572266 0)"/>
     <use xlink:href="#DejaVuSans-6e" transform="translate(1520.753906 0)"/>
     <use xlink:href="#DejaVuSans-73" transform="translate(1584.132812 0)"/>
     <use xlink:href="#DejaVuSans-20" transform="translate(1636.232422 0)"/>
     <use xlink:href="#DejaVuSans-28" transform="translate(1668.019531 0)"/>
     <use xlink:href="#DejaVuSans-47" transform="translate(1707.033203 0)"/>
     <use xlink:href="#DejaVuSans-65" transform="translate(1784.523438 0)"/>
     <use xlink:href="#DejaVuSans-6d" transform="translate(1846.046875 0)"/>
     <use xlink:href="#DejaVuSans-69" transform="translate(1943.458984 0)"/>
     <use xlink:href="#DejaVuSans-6e" transform="translate(1971.242188 0)"/>
     <use xlink:href="#DejaVuSans-69" transform="translate(2034.621094 0)"/>
     <use xlink:href="#DejaVuSans-20" transform="translate(2062.404297 0)"/>
     <use xlink:href="#DejaVuSans-33" transform="translate(2094.191406 0)"/>
     <use xlink:href="#DejaVuSans-20" transform="translate(2157.814453 0)"/>
     <use xlink:href="#DejaVuSans-50" transform="translate(2189.601562 0)"/>
     <use xlink:href="#DejaVuSans-72" transform="translate(2248.154297 0)"/>
     <use xlink:href="#DejaVuSans-6f" transform="translate(2287.017578 0)"/>
     <use xlink:href="#DejaVuSans-29" transform="translate(2348.199219 0)"/>
     <use xlink:href="#DejaVuSans-20" transform="translate(2387.212891 0)"/>
     <use xlink:href="#DejaVuSans-2d" transform="translate(2419 0)"/>
     <use xlink:href="#DejaVuSans-20" transform="translate(2455.083984 0)"/>
     <use xlink:href="#DejaVuSans-4d" transform="translate(2486.871094 0)"/>
     <use xlink:href="#DejaVuSans-65" transform="translate(2573.150391 0)"/>
     <use xlink:href="#DejaVuSans-64" transform="translate(2634.673828 0)"/>
     <use xlink:href="#DejaVuSans-69" transform="translate(2698.150391 0)"/>
     <use xlink:href="#DejaVuSans-61" transform="translate(2725.933594 0)"/>
     <use xlink:href="#DejaVuSans-6e" transform="translate(2787.212891 0)"/>
     <use xlink:href="#DejaVuSans-20" transform="translate(2850.591797 0)"/>
     <use xlink:href="#DejaVuSans-53" transform="translate(2882.378906 0)"/>
     <use xlink:href="#DejaVuSans-63" transform="translate(2945.855469 0)"/>
     <use xlink:href="#DejaVuSans-6f" transform="translate(3000.835938 0)"/>
     <use xlink:href="#DejaVuSans-72" transform="translate(3062.017578 0)"/>
     <use xlink:href="#DejaVuSans-65" transform="translate(3100.880859 0)"/>
     <use xlink:href="#DejaVuSans-20" transform="translate(3162.404297 0)"/>
     <use xlink:href="#DejaVuSans-44" transform="translate(3194.191406 0)"/>
     <use xlink:href="#DejaVuSans-69" transform="translate(3271.193359 0)"/>
     <use xlink:href="#DejaVuSans-73" transform="translate(3298.976562 0)"/>
     <use xlink:href="#DejaVuSans-74" transform="translate(3351.076172 0)"/>
     <use xlink:href="#DejaVuSans-72" transform="translate(3390.285156 0)"/>
     <use xlink:href="#DejaVuSans-69" transform="translate(3431.398438 0)"/>
     <use xlink:href="#DejaVuSans-62" transform="translate(3459.181641 0)"/>
     <use xlink:href="#DejaVuSans-75" transform="translate(3522.658203 0)"/>
     <use xlink:href="#DejaVuSans-74" transform="translate(3586.037109 0)"/>
     <use xlink:href="#DejaVuSans-69" transform="translate(3625.246094 0)"/>
     <use xlink:href="#DejaVuSans-6f" transform="translate(3653.029297 0)"/>
     <use xlink:href="#DejaVuSans-6e" transform="translate(3714.210938 0)"/>
     <use xlink:href="#DejaVuSans-73" transform="translate(3777.589844 0)"/>
    </g>
   </g>
   <g id="legend_1">
    <g id="patch_7">
     <path d="M 623.235937 380.478125 
L 690.771875 380.478125 
Q 692.771875 380.478125 692.771875 378.478125 
L 692.771875 364.8 
Q 692.771875 362.8 690.771875 362.8 
L 623.235937 362.8 
Q 621.235937 362.8 621.235937 364.8 
L 621.235937 378.478125 
Q 621.235937 380.478125 623.235937 380.478125 
z
" style="fill: #ffffff; opacity: 0.8; stroke: #cccccc; stroke-linejoin: miter"/>
    </g>
    <g id="line2d_25">
     <path d="M 625.235937 370.898437 
L 635.235937 370.898437 
L 645.235937 370.898437 
" style="fill: none; stroke: #000000; stroke-opacity: 0; stroke-width: 1.5; stroke-linecap: square"/>
     <defs>
      <path id="m1b7ea68ec5" d="M 0 3.5 
C 0.928211 3.5 1.81853 3.131218 2.474874 2.474874 
C 3.131218 1.81853 3.5 0.928211 3.5 0 
C 3.5 -0.928211 3.131218 -1.81853 2.474874 -2.474874 
C 1.81853 -3.131218 0.928211 -3.5 0 -3.5 
C -0.928211 -3.5 -1.81853 -3.131218 -2.474874 -2.474874 
C -3.131218 -1.81853 -3.5 -0.928211 -3.5 0 
C -3.5 0.928211 -3.131218 1.81853 -2.474874 2.474874 
C -1.81853 3.131218 -0.928211 3.5 0 3.5 
z
" style="stroke: #8da0cb"/>
     </defs>
     <g>
      <use xlink:href="#m1b7ea68ec5" x="635.235937" y="370.898437" style="fill: #8da0cb; stroke: #8da0cb"/>
     </g>
    </g>
    <g id="text_16">
     <!-- Gemini -->
     <g transform="translate(653.235937 374.398437) scale(0.1 -0.1)">
      <use xlink:href="#DejaVuSans-47"/>
      <use xlink:href="#DejaVuSans-65" transform="translate(77.490234 0)"/>
      <use xlink:href="#DejaVuSans-6d" transform="translate(139.013672 0)"/>
      <use xlink:href="#DejaVuSans-69" transform="translate(236.425781 0)"/>
      <use xlink:href="#DejaVuSans-6e" transform="translate(264.208984 0)"/>
      <use xlink:href="#DejaVuSans-69" transform="translate(327.587891 0)"/>
     </g>
    </g>
   </g>
  </g>
 </g>
 <defs>
  <clipPath id="pa900d38153">
   <rect x="155.496875" y="31.318125" width="542.275" height="354.16"/>
  </clipPath>
 </defs>
</svg>
